<svg xmlns="http://www.w3.org/2000/svg" width="256" height="256"><path d="M125.188-.652c2.811.027 5.618 0 8.43-.032C149.625-.713 164.376 2.41 179 9l2.406.938C194.98 15.498 207.622 24.708 218 35l2.625 2.5L223 40l1.652 1.668C237.79 55.557 246.28 71.868 252 90l1.117 3.506c3.003 10.507 3.533 20.56 3.46 31.456-.014 2.838.02 5.672.058 8.509.066 16.088-3.01 30.831-9.635 45.529l-.937 2.406C240.503 194.98 231.293 207.622 221 218l-2.5 2.625L216 223l-1.703 1.688c-10.082 9.542-22.003 16.646-34.672 22.187l-2.35 1.045c-15.21 6.34-30.042 8.918-46.463 8.732-2.811-.027-5.618 0-8.43.032-16.008.029-30.759-3.093-45.382-9.684l-2.406-.937C61.02 240.503 48.378 231.293 38 221l-2.625-2.5L33 216l-1.687-1.703c-9.543-10.082-16.647-22.003-22.188-34.672l-1.045-2.35c-6.34-15.21-8.918-30.042-8.732-46.463.027-2.811 0-5.618-.032-8.43C-.713 106.375 2.41 91.624 9 77l.938-2.406C15.498 61.02 24.708 48.378 35 38l2.5-2.625L40 33l1.703-1.687C51.785 21.77 63.706 14.666 76.375 9.125l2.35-1.045c15.21-6.34 30.042-8.918 46.463-8.732Z" fill="#1F1150"/><path d="M130 67c2.245 1.028 2.245 1.028 4.512 2.293l2.549 1.412 2.626 1.483 2.569 1.423a502.364 502.364 0 0 1 15.22 8.865c2.595 1.567 5.199 3.117 7.805 4.665l5.219 3.109 2.703 1.602 2.578 1.539 2.315 1.376C180 96 180 96 182 98c.274 2.523.274 2.523.306 5.747l.049 3.652.016 3.964.027 4.059c.017 2.839.025 5.677.028 8.516.005 3.632.043 7.263.088 10.895.03 2.796.037 5.591.038 8.387a515.1 515.1 0 0 0 .066 5.964c-.05 10.041-.05 10.041-2.983 13.063-2.726 1.813-5.405 3.586-8.26 5.19l-2.852 1.622a493.95 493.95 0 0 1-5.94 3.24c-4.968 2.679-9.863 5.436-14.696 8.35l-3.092 1.855a908.464 908.464 0 0 0-6.274 3.812c-1.013.605-2.027 1.21-3.072 1.832l-2.74 1.662c-3.78 1.66-6.88 1.832-10.792.459l-1.87-1.027-2.129-1.148-2.168-1.219-2.121-1.148c-4.74-2.59-9.37-5.35-13.992-8.143a734.193 734.193 0 0 0-8.32-4.908l-2.87-1.678a1895.108 1895.108 0 0 0-5.851-3.406l-2.842-1.666-2.553-1.487C75.046 163.03 73.58 162.026 72 160c-.421-2.712-.421-2.712-.483-6.029l-.088-3.762c-.014-1.358-.027-2.715-.038-4.072l-.052-4.182c-.032-2.923-.05-5.845-.06-8.768a598.177 598.177 0 0 0-.174-11.207 483.82 483.82 0 0 1-.076-8.64 189.503 189.503 0 0 0-.072-4.13c-.286-10.722-.286-10.722 2.924-14.315C76.191 93.327 78.455 92.136 81 91l2.895-1.732 2.488-1.381 2.826-1.58 2.916-1.62c8.028-4.491 15.973-9.076 23.816-13.882 8.875-5.237 8.875-5.237 14.059-3.805Z" fill="#FCFBFC"/><path d="M126.875 91.563C130 92 130 92 131.906 94.011c2.532 3.613 4.628 7.358 6.719 11.238a624.196 624.196 0 0 0 10.688 18.813l1.265 2.148a666.972 666.972 0 0 0 5.16 8.64c4.31 7.26 4.31 7.26 3.262 12.149-3.118 3.05-5.45 3.378-9.73 3.388l-3.49.029-3.753-.019-3.862.01c-2.694.001-5.388-.003-8.082-.017a1019.73 1019.73 0 0 0-10.357.01c-3.295.014-6.59.005-9.886-.003l-3.76.019-3.479-.029-3.065-.007C97 150 97 150 95.177 148.648 93.285 146 93.575 144.181 94 141a66.53 66.53 0 0 1 3.938-6.875c.835-1.33 1.668-2.663 2.5-3.996l1.296-2.066c2.01-3.274 3.85-6.636 5.704-10a391.056 391.056 0 0 1 10-16.938l1.288-2.074c4.35-6.91 4.35-6.91 8.149-7.489Z" fill="#130C45"/><path d="m76 94 2 1-1.966 1.622c-2.57 3.005-2.548 4.517-2.58 8.432l-.06 3.7-.003 3.98c-.015 1.362-.032 2.724-.05 4.086-.044 3.577-.064 7.154-.08 10.732-.019 3.653-.06 7.306-.1 10.96-.076 7.162-.126 14.325-.161 21.488h-1a4068.73 4068.73 0 0 1-.207-24.487c-.021-3.79-.05-7.58-.095-11.37a1253.93 1253.93 0 0 1-.078-10.97 412.403 412.403 0 0 0-.043-4.188 401.42 401.42 0 0 1-.031-5.861l-.027-3.372C72 97 72 97 74.029 95.117L76 94Z" fill="#EBE6F6"/><path d="m76 94 2 1-1.962 1.661c-2.45 2.812-2.566 4.087-2.647 7.76l-.098 3.106-.043 3.223-.09 3.27c-.07 2.66-.123 5.32-.16 7.98h-1a952.309 952.309 0 0 1-.25-12.313l-.102-3.537-.039-3.388-.063-3.127C72 97 72 97 74.024 95.14L76 94Z" fill="#E2E0ED"/><path d="M99 133c.613 1.813.613 1.813 1 4-1.813 3-1.813 3-4 6a85.912 85.912 0 0 0-2 4c-.747-5.979 1.677-9.324 5-14Z" fill="#4D4673"/></svg>
