<svg xmlns="http://www.w3.org/2000/svg" width="300" height="300"><path d="m243 32 2.95 2.27c5.213 4.036 5.213 4.036 7.05 5.73v2l1.938.813C257 44 257 44 258 47h2c2.79 2.946 5.242 6.163 7.728 9.367a347.522 347.522 0 0 0 3.667 4.602C284.162 77.634 292.508 97.579 297 118l.526 2.33c4.347 20.101 4.014 41.64-.526 61.67l-.554 2.476c-5.408 23.2-16.178 43.966-31.466 62.149-1.985 2.317-1.985 2.317-3.617 4.688L260 253h-2l-.813 1.938C256 257 256 257 253 258v2c-22.778 21.591-53.069 35.001-84 39-1.27.18-2.54.36-3.848.547-38.335 4.661-76.486-7.994-107.039-30.692-31.73-24.967-52.417-61.379-57.425-101.48-4.055-38.38 6.319-77.966 30.035-108.574C34.323 54.373 38.08 50.147 42 46l2.379-2.61C95.3-10.407 186.106-14.397 243 32Z" fill="#D5AC78"/><path d="m243 32 2.95 2.27c5.213 4.036 5.213 4.036 7.05 5.73v2l1.938.813C257 44 257 44 258 47h2c2.79 2.946 5.242 6.163 7.728 9.367a347.522 347.522 0 0 0 3.667 4.602C284.162 77.634 292.508 97.579 297 118l.526 2.33c4.347 20.101 4.014 41.64-.526 61.67l-.554 2.476c-5.408 23.2-16.178 43.966-31.466 62.149-1.985 2.317-1.985 2.317-3.617 4.688L260 253h-2l-.813 1.938C256 257 256 257 253 258v2c-22.778 21.591-53.069 35.001-84 39-1.27.18-2.54.36-3.848.547-38.335 4.661-76.486-7.994-107.039-30.692-31.73-24.967-52.417-61.379-57.425-101.48-4.055-38.38 6.319-77.966 30.035-108.574C34.323 54.373 38.08 50.147 42 46l2.379-2.61C95.3-10.407 186.106-14.397 243 32ZM56.875 68.25C33.553 95.492 24.883 128.602 27 164c3.167 33.21 21.372 63.138 46.636 84.375 3.602 2.845 7.414 5.3 11.364 7.625l2.108 1.245c19.432 11.266 39.102 17.143 61.645 17.07 2.047-.002 4.093.021 6.14.046 32.583.158 62.124-14.534 85.17-36.861 24.727-24.771 35.386-57.444 35.373-91.915-.164-11.44-1.912-21.73-5.436-32.585l-.68-2.175C264.623 96.114 257.226 82.592 247 71l-2.113-2.477C224.133 44.711 195.5 29.56 164 26c-41.89-2.862-78.454 11.686-107.125 42.25Z" fill="#FEFEFE"/><path d="M143 42v49l-9 3c-16.832 7.216-29.176 17.18-36.414 34.355-5.73 16.59-4.91 33.786 2.414 49.77 8.579 16.058 21.863 25.186 39 30.875l4 1v48h-9l-1-16-4.438-.938c-4.437-.937-4.437-.937-5.562-2.062a177.036 177.036 0 0 1-.063-7.063l.028-3.91L123 225l-2.152-.32c-15.242-3.638-29.562-19.482-37.473-32.305-10.513-18.71-14.029-42.025-8.813-63C81.198 106.962 95.225 90.632 115 79c5.627-3 5.627-3 8-3V61c6-2 6-2 11-2V43c2-1 2-1 9-1Z" fill="#FEFEFD"/><path d="M173 44c24.958 2.894 47.09 18.817 63.07 37.516C243.873 91.56 249.32 102.22 254 114l.992 2.379c9.618 25.332 5.905 54.791-4.693 79.08-12.136 26.64-33.962 46.64-61.21 57.1-5.256 1.915-10.607 3.332-16.089 4.441v-10l11-2v-8l3.113-1.469C206.427 226.264 221.736 214.033 232 195l1.418-2.441c10.987-19.98 13.192-46.236 6.921-67.975C232.445 99.956 216.457 80.622 194 68a456.455 456.455 0 0 0-5.75-2.563c-2.414-1.14-2.414-1.14-4.25-2.437-1.125-3.813-1.125-3.813-1-7l-10-3v-9Zm-46 0v9c-7.625 3-7.625 3-11 3v8l-2.824 1.398C103.97 70.065 95.88 75.337 88 82l-2.234 1.887c-14.946 13.78-25.748 36.386-26.906 56.559-1.006 28.697 6.189 52.615 25.605 74.308 7.919 8.36 16.94 15.32 27.847 19.309 2.11.832 2.11.832 3.688 1.937 1.092 2.87 1.052 4.864 1 8l10 3v9c-17.977-2.018-34.835-12.037-48-24l-1.574-1.425c-20.89-19.16-34.012-45.931-35.645-74.387-.98-31.084 9.708-59.02 30.903-81.793L75 72l2.16-2.238C88.684 58.633 110.27 44 127 44Z" fill="#FEFDFC"/><path d="M157 42h9l1 16 4.438.938c4.437.937 4.437.937 5.562 2.062.234 2.016.413 4.038.563 6.063l.253 3.347L178 73l2.203.848C189.847 77.693 200.141 81.916 207 90c-1.61 4.074-4.538 6.765-7.625 9.75l-1.563 1.535A897.139 897.139 0 0 1 194 105c-3-1.435-5.758-3.092-8.563-4.875-9.195-5.52-17.68-7.332-28.437-9.125V42Zm36 154c5.29 4.408 10.188 9.076 15 14-8.007 8.807-17.965 13.95-29 18h-2v12c-7.625 2-7.625 2-11 2v16l-9 1v-48l14-3c8.322-2.996 14.998-6.625 22-12Z" fill="#FEFEFD"/></svg>
