<svg xmlns="http://www.w3.org/2000/svg" width="300" height="300"><path d="m243 32 2.95 2.27c5.213 4.036 5.213 4.036 7.05 5.73v2l1.938.813C257 44 257 44 258 47h2c2.79 2.946 5.242 6.163 7.728 9.367a347.522 347.522 0 0 0 3.667 4.602C284.162 77.634 292.508 97.579 297 118l.526 2.33c4.347 20.101 4.014 41.64-.526 61.67l-.554 2.476c-5.408 23.2-16.178 43.966-31.466 62.149-1.985 2.317-1.985 2.317-3.617 4.688L260 253h-2l-.813 1.938C256 257 256 257 253 258v2c-22.778 21.591-53.069 35.001-84 39-1.27.18-2.54.36-3.848.547-38.335 4.661-76.486-7.994-107.039-30.692-31.73-24.967-52.417-61.379-57.425-101.48-4.055-38.38 6.319-77.966 30.035-108.574C34.323 54.373 38.08 50.147 42 46l2.379-2.61C95.3-10.407 186.106-14.397 243 32Z" fill="#040102"/><path d="m243 32 2.95 2.27c5.213 4.036 5.213 4.036 7.05 5.73v2l1.938.813C257 44 257 44 258 47h2c2.79 2.946 5.242 6.163 7.728 9.367a347.522 347.522 0 0 0 3.667 4.602C284.162 77.634 292.508 97.579 297 118l.526 2.33c4.347 20.101 4.014 41.64-.526 61.67l-.554 2.476c-5.408 23.2-16.178 43.966-31.466 62.149-1.985 2.317-1.985 2.317-3.617 4.688L260 253h-2l-.813 1.938C256 257 256 257 253 258v2c-22.778 21.591-53.069 35.001-84 39-1.27.18-2.54.36-3.848.547-38.335 4.661-76.486-7.994-107.039-30.692-31.73-24.967-52.417-61.379-57.425-101.48-4.055-38.38 6.319-77.966 30.035-108.574C34.323 54.373 38.08 50.147 42 46l2.379-2.61C95.3-10.407 186.106-14.397 243 32ZM115.187 46.625l-2.304.782C96.78 53.094 81.824 62.637 70 75v2l-1.73.664c-9.24 5.44-17.284 21.315-20.524 31.113-.592 1.764-1.263 3.502-1.96 5.227-5.148 13.115-5.931 25.907-6.036 39.871l-.029 2.844c.137 29.191 14.888 55.56 34.717 76.031 4.843 4.736 9.83 8.657 15.562 12.25l2.73 1.77c23.997 14.864 53.906 19.153 81.399 13.214 6.142-1.561 11.992-3.608 17.871-5.984l2.305-.86c13.717-5.486 25.45-14.682 35.695-25.14l2.336-2.375c11.839-12.7 19.652-29.14 24.664-45.625l.973-3.195c7.132-28.597.982-57.463-13.051-82.735-3.184-5.086-6.979-9.562-10.922-14.07l-1.625-1.992C220.318 63.264 202.198 52.28 184 47l-3.262-1.027c-9.466-2.98-17.33-4.16-27.273-4.158a723.45 723.45 0 0 1-5.99-.04c-11.222-.016-21.652 1.221-32.287 4.85Z" fill="#010000"/><path d="M181 46c1.562.481 3.124.96 4.688 1.438 1.442.506 2.88 1.028 4.312 1.562l2.824 1.05C203.747 54.345 212.951 60.603 222 68l1.867 1.492c4.566 3.754 8.405 7.93 12.133 12.508l2.195 2.688c14.837 18.91 22.457 41.8 22.18 65.75l-.029 3.85c-.143 8.917-.74 17.136-3.346 25.712l-1.031 3.438c-9.869 29.872-29.74 53.19-57.504 67.906-2.129.987-4.267 1.836-6.465 2.656l-3.055 1.234c-26.682 10.286-56.733 9.487-83.129-1.472-27.809-12.373-48.48-35.48-59.351-63.64C37.32 164.98 36.595 135.944 47 111l.934-2.375C52.66 97.198 59.297 85.848 68 77h2l.734-1.738C75.835 66.147 87.204 60.187 96 55l2.824-1.688C122.06 40.585 156.027 36.576 181 46Zm-55 21-3.805 1.066C113.92 70.522 106.95 73.883 100 79l-2.547 1.875c-17.978 13.847-30.743 32.562-34.98 55.168-1.705 14.272-.7 27.269 3.527 40.957l.688 2.785C68.499 186.93 72.168 192.763 76 199l1.754 3.367c2.56 4.494 6.081 7.962 9.746 11.57l2.166 2.135c8.135 7.86 16.474 13.363 26.897 17.803l2.036.87c18.93 7.557 44.664 7.235 63.429-.59 27.064-11.85 41.647-30.566 52.499-57.241 7.239-18.577 4.414-41.584-3.023-59.656-9.932-21.515-26.915-38.953-49.316-47.508-18.44-6.638-37.21-8.232-56.188-2.75Z" fill="#E5706F"/><path d="m175 84 3.02.992c8.934 3.209 15.92 8.813 22.98 15.008l2.973 2.594C206 105 206 105 206.176 107.05c-1.771 2.936-4.124 4.29-6.988 6.136l-3.208 2.106c-4.562 2.613-4.562 2.613-6.98 2.707-1.57-1.223-1.57-1.223-3.125-3.063-8.1-8.632-19.202-13.685-30.992-14.285a350.859 350.859 0 0 0-5.57-.09l-2.664-.03c-12.51.167-23.852 5.54-32.899 14.093-10.374 11-15.312 23.202-15.168 38.252.47 12.464 4.763 22.368 12.418 32.123l1.582 2.02c8.344 9.357 21.405 15.02 33.648 16.324 15.259.69 27.47-4.312 38.77-14.344a106.05 106.05 0 0 0 6-6c4.217 1.486 7.625 3.612 11.313 6.125l3.238 2.195L208 193c-6.069 13.75-20.708 21.744-34 27-17.067 5.595-37.479 6.454-53.934-1.852L118 217l-2.41-1.273C99.268 206.594 89.387 192.728 82 176l-1.39-3.04c-4.836-12.632-5.245-31.735.066-44.276L82 126l1.543-3.465c9.006-19.682 23.858-32.156 43.836-39.62C142.365 77.506 160.24 78.293 175 84Z" fill="#EB676E"/><path d="M254 116c9.994 14.991 7.873 40.64 4.813 57.438A136.004 136.004 0 0 1 257 180l-1.031 3.438c-9.869 29.872-29.74 53.19-57.504 67.906-2.129.987-4.267 1.836-6.465 2.656l-3.055 1.234c-26.686 10.287-56.7 9.471-83.105-1.457C97.699 250.157 89.05 245.62 83 239c4.083 1.02 7.452 2.183 11.125 4.25 3.216 1.718 3.216 1.718 6.875 1l2-1.25v3h-2v4l2.125-.188C106 250 106 250 108.75 251.438c3.57 1.717 6.299 2.032 10.2 2.254C121 254 121 254 124 256c1.902.425 3.823.771 5.75 1.063l3.047.472L136 258l3.469.543c9.673 1.252 19.122.59 28.719-.856l2.465-.356c4.278-.702 6.998-1.426 10.347-4.331 2.75-.188 2.75-.188 5 0v-2h-2v-2c2.906-1.257 4.796-2 8-2v3l1.125-1.438c1.875-1.562 1.875-1.562 4.688-2 3.89-.686 6.108-2.127 9.187-4.562l1-3c2.31-.741 4.648-1.402 7-2 1.354-.625 2.7-1.272 4-2v-6h8v-8l6 1v-2h2l-.313-2.625c.432-4.657 2.078-6.063 5.313-9.375l2-1c1.242-1.9 1.242-1.9 2-4l-1-2 3-1c2.394-3.959 3.38-7.449 4-12l1-2 .375-1.75c.625-2.25.625-2.25 2.09-4.879 1.748-3.839 2.319-7.411 2.722-11.559l.24-2.293c.995-10.096.473-19.652-.715-29.708-.54-4.644-.812-9.135-.712-13.811h-4c.375-2.438.375-2.438 1-5l2-1Z" fill="#DDAB4B"/><path d="M191 183c4.217 1.486 7.625 3.612 11.313 6.125l3.238 2.195L208 193c-6.069 13.75-20.708 21.744-34 27-17.078 5.598-37.455 6.439-53.926-1.844L118 217l-2.48-1.344c-5.72-3.254-10.887-6.958-15.52-11.656v-1c3.375.313 3.375.313 7 1l2 3a56.54 56.54 0 0 0 7 4v3l7 1v2h9v2l4-1v2c4.926.802 9.618 1.135 14.625 1.125l3.852.008c3.026-.114 5.638-.227 8.523-1.133l2-3 2.188.563c2.94.457 4.953.172 7.812-.563v-2l9-1v-2l1.688-.625c4.087-2.43 6.817-5.889 8.312-10.375l4 2v-2h2l1-4-2-1v-2h2c-2.51-3.669-2.51-3.669-6.25-5.813L193 188l-4 6-4-1-1 7-3.688-.688c-4.096-.512-5.964.154-9.312 2.688-3.583 2.297-6.926 3.76-11 5l-3 1v-2c-9.87-.295-9.87-.295-19 3v-3h-3l-2-3c-3.027-1.426-3.027-1.426-6.5-2.625-6.484-2.367-6.484-2.367-8.5-3.375l-1 3h-2l1-9 2.605 1.61c13.396 8.089 26.554 13.076 42.415 9.577 12.292-3.159 21.39-9.881 29.98-19.187Z" fill="#E48049"/><path d="m184 48-4 1v-2l-3.29-.184-4.335-.254-2.16-.119c-3.268-.195-6.382-.472-9.613-1.04-2.578-.656-2.578-.656-4.602.597l-5-1-2 1c-2.313.02-4.626-.009-6.938-.063-11.467-.406-11.467-.406-21.5 4.126L119 52c-2.883 1.081-4.816 1-8 1-5.44 1.05-5.44 1.05-9 5-2.059.844-2.059.844-4.438 1.5-3.47.96-5.05 1.982-7.562 4.5h-3v2c-4.385 3-4.385 3-7 3v2h-2v3l-1.852.273c-2.731.924-3.163 1.855-4.523 4.352C68.669 83.7 65.149 88.035 60.812 92c-2.447 2.7-3.455 5.636-4.812 9l-1.5 2.375c-2.575 4.506-4.13 9.454-5 14.563C49 120 49 120 46 122c-.767 2.845-.767 2.845-1.125 6.063-.794 5.856-.794 5.856-1.875 6.937-.072 2.556.004 5.097.063 7.652C43 145 43 145 42 147c-.394 7.123.087 14.22.781 21.309.21 2.578.257 5.106.219 7.691-7.9-11.85-3.659-37.488-1-51 1.383-4.802 3.077-9.39 5-14l.934-2.375C52.66 97.198 59.297 85.848 68 77h2l.734-1.738C75.835 66.147 87.204 60.187 96 55l2.824-1.688C120.458 41.462 161.971 33.314 184 48Z" fill="#8E45AC"/><path d="m129 61 3.125.563c3.744.422 6.202.056 9.875-.563 12.48-.802 25.82-.217 37.152 5.625 3.05 1.473 4.875 1.698 8.223 1.563l2.648-.083L192 68l-1 5 8 1 1 4 4 1 1 4c-6.524-3.67-6.524-3.67-8.684-5.168-17.2-11.837-39.862-14.978-60.18-12.328-3.44.682-6.766 1.523-10.136 2.496l-3.805 1.066C109.625 72.796 99.847 79.498 90 88l-2.309 1.98c-13.832 12.778-23.734 33.845-24.839 52.521-.1 2.751-.148 5.496-.164 8.249l-.018 2.615c.06 5.342.723 10.228 2.001 15.417.355 2.39.071 3.939-.671 6.218-2-2-2-2-2.125-5.625L62 166h-2l.016-2.539c.017-3.104.03-6.21.039-9.314.007-2.006.02-4.012.033-6.018l.01-3.809.016-3.523c.08-2.752.08-2.752-1.114-4.797h2l-1-8 1 2h2l.402-3.395.535-4.418.264-2.236c.381-3.118.803-5.962 1.799-8.951l2.438-1.875c2.874-2.384 3.448-3.623 4.562-7.125.536-1.44 1.078-2.877 1.625-4.313L76 94l1 2-1 2h2l.625-1.625c1.634-2.822 3.65-4.712 6.035-6.91 1.591-1.54 1.591-1.54 2.34-4.465h2l1-4h3c2.201-2.44 2.201-2.44 4-5h-3v-2l3.625.75c3.648.474 4.38.247 7.875-1.563L108 71v-2c1.77-.337 3.541-.67 5.313-1l2.988-.563C119 67 119 67 122 67l1-2h4l2-4Z" fill="#BA56A6"/><path d="M234 179c1.299 3.897 1.15 7.111 0 11-1.365 2.208-2.858 4.155-4.527 6.14-1.504 1.899-2.564 3.617-3.473 5.86.304 2.69.304 2.69 1 5l-7 2v3l-2.25 1.25c-2.816 1.792-3.36 2.538-4.813 5.375L211 222c-1.329.352-2.662.688-4 1-1.305 2.996-1.305 2.996-2 6l-4-2v2l-2.813.813c-3.018 1.124-4.103 1.894-6.187 4.187h-2l-1 2-3 1v-2a632.663 632.663 0 0 0-5.25 1.813l-2.953 1.019c-2.66 1.11-4.52 2.442-6.797 4.168a93.365 93.365 0 0 1-4-1l-2.438 1c-3.119 1.217-4.32.66-7.562 0a162.073 162.073 0 0 0-6.727.008l-3.875.05c-2.019.032-4.037.067-6.056.113-1.96.043-3.92.065-5.881.087l-3.538.067c-3.299-.367-3.87-.87-5.923-3.325-5.03-2.168-9.816-3.486-15.215-4.375L108 234l-1-3c-2.86-1.562-5.743-2.902-8.72-4.219-4.204-1.958-6.668-3.952-9.28-7.781h2l1-2 2.938 2.625c6.673 5.643 13.393 9.728 21.437 13.125l2.07.89c18.936 7.69 44.772 7.36 63.583-.486 20.95-9.172 35.818-22.83 45.972-43.154l1.629-3.207c.845-1.684 1.68-3.373 2.496-5.07C233 180 233 180 234 179Z" fill="#C88340"/><path d="M254 116c9.994 14.991 7.873 40.64 4.813 57.438A136.004 136.004 0 0 1 257 180l-1.031 3.438C251.196 197.883 244.19 213.36 233 224v-4h2l-.313-2.625c.432-4.657 2.078-6.063 5.313-9.375l2-1c1.242-1.9 1.242-1.9 2-4l-1-2 3-1c2.394-3.959 3.38-7.449 4-12l1-2 .375-1.75c.625-2.25.625-2.25 2.09-4.879 1.748-3.839 2.319-7.411 2.722-11.559l.24-2.293c.995-10.096.473-19.652-.715-29.708-.54-4.644-.812-9.135-.712-13.811h-4c.375-2.438.375-2.438 1-5l2-1Z" fill="#E3A546"/><path d="M137 81c-.688 1.938-.688 1.938-2 4-2.063.563-2.063.563-5 1-8.5 2.362-8.5 2.362-16.063 6.625C112 94 112 94 108 94l-.762 1.723c-1.409 2.59-3.07 4.53-5.05 6.715l-2.168 2.402a113.444 113.444 0 0 1-4.645 4.66C88.67 116.558 85.835 123.486 84 133h-2l.063 2.625C82 139 82 139 81.502 141.819c-.508 3.213-.617 6.204-.6 9.454l.01 3.497c.007 1.19.016 2.38.025 3.605l.013 3.676c.012 2.983.028 5.966.049 8.949-6.093-9.14-4.116-26.427-2.352-36.82.918-2.88 2.015-5.471 3.352-8.18l1.543-3.465c9.05-19.778 23.937-32.088 43.924-39.708C130.882 81.584 133.317 81 137 81Z" fill="#BF5990"/><path d="M234 179c1.299 3.897 1.15 7.111 0 11-1.365 2.208-2.858 4.155-4.527 6.14-1.504 1.899-2.564 3.617-3.473 5.86.304 2.69.304 2.69 1 5l-7 2v3l-2.25 1.25c-2.816 1.792-3.36 2.538-4.813 5.375L211 222c-1.329.352-2.662.688-4 1-1.305 2.996-1.305 2.996-2 6l-4-2v2h-5v-3c1.984-1.621 1.984-1.621 4.75-3.438 12.535-8.877 20.407-18.865 27.25-32.562l1.629-3.207c.845-1.684 1.68-3.373 2.496-5.07C233 180 233 180 234 179Z" fill="#D08C49"/><path d="m144.809 98.902 3.76.01 3.869.025 3.95.014c3.204.012 6.408.028 9.612.049l1 3-2.852-.484c-4.835-.686-9.646-.738-14.523-.766l-2.71-.063c-12.66-.073-24.005 5.279-33.165 13.938-10.465 11.097-15.189 23.167-15.115 38.296.194 6.567 1.55 12.772 3.365 19.079h-2l-.938-2.875c-.936-2.986-.936-2.986-2.062-5.125a113.25 113.25 0 0 1-.098-5.664l.01-3.399.025-3.562.014-3.586c.012-2.93.028-5.86.049-8.789h-2v6h-1v-8l3 1c1.38-3.385 1.38-3.385 2.59-6.832 1.604-4.812 3.832-8.375 6.988-12.336 1.582-1.955 1.582-1.955 3.172-4.832l1.25-2h2v-2c1.29-.672 2.581-1.337 3.875-2l2.18-1.125C121 106 121 106 123 106l1-2c6.76-4.461 12.711-5.135 20.809-5.098Z" fill="#C45C82"/><path d="M228 110c2.583 1.004 3.794 1.664 5.266 4.059l.984 2.379 1.016 2.37C236 121 236 121 236 124l3-1c2 2 2 2 2.125 5.625L241 132h-2l.438 2.57c1.357 8.579 1.866 16.737 1.562 25.43l-.09 3.559c-.291 6.266-.504 10.776-4.91 15.441l-3 1 .621-1.941.816-2.621.81-2.567c4.844-18.452 2.04-38.816-5.161-56.164-.9-2.244-1.58-4.35-2.086-6.707Z" fill="#D77553"/><path d="M100 203c3.375.313 3.375.313 7 1l2 3a56.54 56.54 0 0 0 7 4v3l7 1v2h9v2l4-1v2c6.64 1.224 13.202 1.112 19.938 1.063l3.517-.014c2.848-.012 5.697-.028 8.545-.049v1c-16.296 3.725-35.07 3.323-50-5l-2.48-1.344c-5.72-3.254-10.887-6.958-15.52-11.656v-1Z" fill="#CB6A4C"/><path d="M83 239c4.083 1.02 7.452 2.183 11.125 4.25 3.216 1.718 3.216 1.718 6.875 1l2-1.25v3h-2v4l2.125-.188C106 250 106 250 108.75 251.438c3.57 1.717 6.299 2.032 10.2 2.254C121 254 121 254 124 256c1.988.398 3.991.724 6 1 3.838.527 5.732.822 9 3 2.417.366 2.417.366 5.105.414l2.979.117 3.103.094 3.14.117c2.557.094 5.115.18 7.673.258v1c-27.099.959-51.411-3.392-74-19-1.375-1.29-2.728-2.608-4-4Z" fill="#C48343"/><path d="M74 103h2c-1.296 3.414-2.816 6.649-4.463 9.907-8.615 17.406-11.53 36.83-6.864 55.869.352 2.392.07 3.943-.673 6.224-2-2-2-2-2.125-5.625L62 166h-2l.016-2.539c.017-3.104.03-6.21.039-9.314.007-2.006.02-4.012.033-6.018l.01-3.809.016-3.523c.08-2.752.08-2.752-1.114-4.797h2l-1-8 1 2h2l.402-3.395.535-4.418.264-2.236c.809-6.617 1.587-8.856 6.799-12.951l1.688-2.25L74 103Z" fill="#C25D95"/><path d="M51 104h2l-.621 2.23-.816 2.957-.81 2.918c-.795 2.849-.795 2.849-1.163 5.633C49 120 49 120 46 122c-.767 2.845-.767 2.845-1.125 6.063-.794 5.856-.794 5.856-1.875 6.937-.072 2.556.004 5.097.063 7.652C43 145 43 145 42 147c-.394 7.123.087 14.22.781 21.309.21 2.578.257 5.106.219 7.691-7.903-11.854-3.654-37.484-1-51 1.977-7.459 4.826-14.506 9-21Z" fill="#B35281"/><path d="m94 74 7 1v4c-2.09 2.043-2.09 2.043-4.938 4.188-6.455 5.058-13.057 10.333-17.437 17.374L77 103h-3l-1 3-1-3 2-2 .5-3.063L75 95l2-1-1 4h2l.625-1.625c1.634-2.822 3.65-4.712 6.035-6.91 1.591-1.54 1.591-1.54 2.34-4.465h2l1-4h3c2.201-2.44 2.201-2.44 4-5h-3v-2Z" fill="#BC58A5"/><path d="M84 123h2l-2 10h-2l.063 2.625C82 139 82 139 81.502 141.819c-.508 3.213-.617 6.204-.6 9.454l.01 3.497c.007 1.19.016 2.38.025 3.605l.013 3.676c.012 2.983.028 5.966.049 8.949-5.822-8.733-4.227-25.29-2.635-35.292 1.138-4.745 2.943-8.67 5.635-12.708Z" fill="#CD5D86"/><path d="m91 217 1.434 1.102A579.748 579.748 0 0 0 99 223l1.938 1.488C110.986 231.77 123.675 236.696 136 238v1a829.65 829.65 0 0 1-6.688-.375c-1.24-.07-2.482-.14-3.761-.21-3.289-.384-5.55-1.107-8.551-2.415-2.363-.514-4.726-.933-7.11-1.34L108 234l-1-3c-2.86-1.562-5.743-2.902-8.72-4.219-4.204-1.958-6.668-3.952-9.28-7.781h2v-2Z" fill="#D6784B"/><path d="M160 64c7.846-.232 14.234-.2 21.438 3.125 3.614 1.234 6.752 1.004 10.562.875l-1 5 8 1 1 4 4 1 1 4c-6.524-3.67-6.524-3.67-8.684-5.168C185.664 70.502 172.562 67.238 160 65v-1Z" fill="#C05988"/><path d="M151.265 42.705a379.65 379.65 0 0 0 4.558-.062c10.199-.199 18.552.63 28.177 4.357l-4 2v-2l-3.29-.184-4.335-.253-2.16-.12c-3.268-.195-6.382-.472-9.613-1.04-2.578-.656-2.578-.656-4.602.597l-5-1-2 1a74.6 74.6 0 0 1-4.57.098l-2.715-.01-2.84-.025-2.863-.014A1872.32 1872.32 0 0 1 129 46c5.09-5.09 15.428-3.26 22.265-3.295Z" fill="#BC53B7"/><path d="m138.691 39.734 3.866-.007 1.999.012c1.977.01 3.954 0 5.93-.012 8.35.016 16.307.744 24.514 2.273v2l-3.566-.492c-6.778-.75-13.56-.653-20.371-.633l-3.96-.012c-7.097.007-14.06.227-21.103 1.137v-2c4.38-1.668 8.014-2.256 12.691-2.266Z" fill="#230923"/><path d="M138 80c12.968-.436 24.764-.818 37 4l3.512 1.379A277.973 277.973 0 0 1 187 89c-3.663 1.221-4.295.644-7.688-.938C174.554 86.03 171.131 85.62 166 86v-2h-4v-2l-2.371.254-3.066.308-3.06.317L151 83l-1-1a144.504 144.504 0 0 0-6.063-.563l-3.347-.253L138 81v-1Z" fill="#C05981"/><path d="M235 131c3.546 6.659 3.182 13.942 3.188 21.313l.037 2.685c.013 6.114-.393 12.131-2.225 18.002l-2 2a619.986 619.986 0 0 1-.063-4.625l-.035-2.602C234 165 234 165 234.5 162.246c.52-3.377.613-6.542.598-9.957l-.01-3.77-.025-3.894-.014-3.965c-.012-3.22-.028-6.44-.049-9.66Z" fill="#461C12"/><path d="M184 48c4.884-.537 8.417 1.364 12.625 3.563l2.13 1.09C213.942 60.55 213.942 60.55 219 66l-8-2-1 2-2-2v-4l-3.375-.25L201 59c-1.125-1.938-1.125-1.938-2-4-3.77-2.057-7.916-2.625-12.11-3.34L185 51l-1-3Z" fill="#C25C86"/><path d="M126 217h6v2l4-1v2c6.64 1.224 13.202 1.112 19.938 1.063l3.517-.014c2.848-.012 5.697-.028 8.545-.049v1c-12.535 2.865-24.437 2.577-37 0v-2h-2v-2l-3-1Z" fill="#CC7546"/><path d="M254 116c9.073 13.61 6.411 33.506 6 49h-1l-.044-1.797c-.292-10.65-.602-20.887-3.335-31.23-.707-3.386-.72-6.524-.621-9.973h-4c.375-2.438.375-2.438 1-5l2-1Z" fill="#C56849"/><path d="m149.563 60.75 2.42-.023c5.32.017 9.904.797 15.017 2.273v1l-2.336.076c-3.534.117-7.068.24-10.601.362l-3.674.119c-6.514.23-12.924.613-19.389 1.443v-3c6.265-1.645 12.094-2.313 18.563-2.25Z" fill="#BA5798"/><path d="m102 97 2 1c-5.23 8.25-5.23 8.25-8.438 11.375-3.341 3.423-5.57 7.297-8.011 11.395L86 123h-2c2.902-10.211 10.277-18.934 18-26Z" fill="#B85689"/><path d="M98 97c2.063.438 2.063.438 4 1l-2.938 2.625C90.63 109.093 85.056 119.872 81 131c-1.285-3.855-.405-5.403.938-9.188l1.152-3.292L84 116h2l.375-1.688c.701-2.594 1.42-4.903 2.625-7.312 2.063-1.125 2.063-1.125 4-2l1-3h2l.438-1.938C97 98 97 98 98 97Z" fill="#250715"/><path d="M256 133c4.566 6.85 3.184 16.486 3.188 24.438l.037 3.892c.01 6.578-.216 12.388-2.225 18.67h-1c-1-5.1-.939-9.176-.063-14.313 1.861-10.95.895-21.676.063-32.687Z" fill="#DD8046"/><path d="m246 205 2 3-1.207 1.574c-2.31 3.04-4.536 5.972-6.418 9.301-1.576 2.435-2.846 2.86-5.375 4.125l-.375 1.813c-.843 2.95-2.7 4.114-5.059 5.949-2.016 1.594-3.785 3.388-5.566 5.238l-2-1 2.055-1.914C232.808 224.672 239.865 215.5 246 205Z" fill="#251508"/><path d="M239 138h1c1.21 15.384 1.21 15.384 1 22l-.086 3.16c-.53 11.198-.53 11.198-4.914 15.84l-3 1a948.71 948.71 0 0 1 1.375-4.75l.773-2.672c.852-2.578.852-2.578 1.88-4.332 1.29-2.982 1.298-5.517 1.386-8.762l.117-3.789.094-3.945.117-3.992c.094-3.253.18-6.505.258-9.758Z" fill="#E77F45"/><path d="M234 179c1.299 3.896 1.155 7.113 0 11-1.399 2.24-2.923 4.221-4.625 6.238-1.581 1.824-1.581 1.824-2.375 4.762h-2c1.216-7.296 3.605-16.605 9-22Z" fill="#EB9140"/><path d="m211 216 2 3c-2.052 2.248-3.007 3.002-6 4-1.225 3.008-1.225 3.008-2 6l-4-2v2h-5v-3c2.266-1.973 2.266-1.973 5.25-4.063l2.953-2.097c2.232-1.468 4.376-2.727 6.797-3.84Z" fill="#EBA043"/><path d="m195 227 1 3a90.488 90.488 0 0 1-4 4h-2l-1 2-3 1v-2l-9 2c2.482-2.482 3.584-3.47 6.574-4.824l2.022-.928 2.091-.935 2.127-.971A1003.86 1003.86 0 0 1 195 227Z" fill="#E79D44"/><path d="m116 191 2.71 1.645c6.909 4.113 13.354 7.6 21.29 9.355v1c-7.84.912-15.084-2.542-22-6l-1 3h-2l1-9Z" fill="#E46B50"/><path d="M146 96c4.488-.09 8.592.174 13 1 2.333.339 4.666.673 7 1v1l-33 1v-2c3.143-1.572 6.558-1.232 10-1l3 1v-2Z" fill="#E35E8D"/><path d="M255 176h1c.337 5.722-.709 9.891-2.813 15.188l-.79 2.115c-1.399 3.628-2.852 6.74-5.397 9.697-.25-5.625-.25-5.625 2-9 .366-1.994.701-3.995 1-6l1-2 .375-1.75c.823-2.964 2.204-5.53 3.625-8.25Z" fill="#DE964A"/><path d="m125 238 2.684.184c9.769.66 19.54 1.254 29.316 1.816v1c-7.385.637-14.777 1.137-22.188 1.313l-3.73.113C128 242 128 242 126.074 239.98L125 238Z" fill="#E38E4D"/><path d="M83 239c4.083 1.02 7.452 2.183 11.125 4.25 3.216 1.718 3.216 1.718 6.875 1l2-1.25v3h-2v4c-4.4-1.304-7.96-3.013-11.813-5.5l-2.894-1.844C84 241 84 241 83 239Z" fill="#C86C48"/><path d="M231 178h2c-.626 4.806-2.624 8.625-4.813 12.875l-1.04 2.066c-2.251 4.434-4.65 8.76-7.147 13.059l-1-4h2v-5h2l.313-1.625c.868-3 2.243-5.613 3.687-8.375h2l.438-3.375C230 180 230 180 231 178Z" fill="#210A04"/><path d="m143.246 41.902 1.988.005c2.068.005 4.136.018 6.203.03A3656.439 3656.439 0 0 1 166 42v1l-2.535.06c-3.139.079-6.277.165-9.416.257-2.012.057-4.025.104-6.037.152C140.11 43.707 133.49 44.503 126 47a81.355 81.355 0 0 1-4.688.063l-2.449-.028L117 47v-1c1.853-.484 3.707-.962 5.563-1.438l3.128-.808c5.883-1.34 11.526-1.878 17.555-1.852Z" fill="#914C8B"/><path d="M79 135c1.266 3.867 1.112 7.732 1.063 11.75l-.014 2.113c-.012 1.713-.03 3.425-.049 5.137h1v17c-3.007-4.51-3.127-8.521-3.133-13.852l-.004-3.328.012-3.445-.012-3.469.004-3.32.004-3.03C78 138 78 138 79 135Z" fill="#A64C60"/><path d="m191 183 5 2-3 1-2-1-.438 1.875C190 189 190 189 189 191h-2v2h-5l-2 4-4-1 2.012-1.574c4.574-3.613 8.999-7.17 12.988-11.426Z" fill="#CE774D"/><path d="m190 211 2 1-1 3a90.59 90.59 0 0 1-7 3c-4.31 1.523-4.31 1.523-8 4-2.67.141-5.324.042-8 0 2.896-1.93 5.528-3.091 8.75-4.375 3.619-1.472 7.036-2.971 10.375-5L190 211Z" fill="#321409"/><path d="m61 211 2 4h2l.688 3.375c.918 3.785.918 3.785 3.937 5.063L72 224v5c-5.301-4.008-9.07-8.663-13-14l2-1v-3Z" fill="#DD6856"/><path d="M182 70h8l1 2c1.888.685 1.888.685 4.063 1.125l2.222.508L199 74l1 4 4 1 1 4c-3.722-2.093-7.363-4.227-10.938-6.563-3.864-2.45-7.734-3.969-12.062-5.437v-1Z" fill="#BD5B7A"/><path d="M119.188 46.938 123 47c-1 3-1 3-4.313 4.688C115 53 115 53 111 53c-2.336.312-4.67.642-7 1 3.061-2.624 3.732-3 8-3v-3c2.75-.917 4.36-1.109 7.188-1.063Z" fill="#994BBA"/><path d="M61 145h1l.148 3.148c.37 7.094.783 13.923 2.547 20.836.346 2.285.004 3.832-.695 6.016-2-2-2-2-2.125-5.625L62 166h-2l1-21Z" fill="#D16185"/><path d="M157 43c9.808-.53 17.789.573 27 4l-4 2v-2l-3.254-.148-4.309-.227-2.134-.094c-4.716-.26-8.807-1.078-13.303-2.531v-1Z" fill="#BF5B9E"/><path d="m107 122 1 2-2 3c-.326 2.318-.44 4.604-.559 6.941C105 136 105 136 102 138c-1.205 2.552-1.205 2.552-2 5-1.941-5.335.834-10.078 3-15 1.218-2.154 2.504-4.023 4-6Z" fill="#350F19"/><path d="m93 84 2 1-3 5-1.25 2.75C89 95 89 95 85.312 95.813L82 96c3.509-4.184 7.08-8.196 11-12Z" fill="#250920"/><path d="m192 247 1 5h-3v2h-9v-1h5v-2h-2v-2c2.906-1.257 4.796-2 8-2Z" fill="#ECB33E"/><path d="M100 203c3.375.313 3.375.313 7 1l2 3 3 2v3c-5.753-2.03-8.392-4.08-12-9Z" fill="#EA6B52"/><path d="M259 165h1c.222 7.302.185 13.984-2 21l-3 1c.673-5.025 1.544-9.972 2.563-14.938l.42-2.072c.337-1.664.677-3.327 1.017-4.99Z" fill="#270D05"/><path d="M249 103h3c2.88 6.415 4.546 11.97 5 19-1.601-2.402-2.536-4.152-3.508-6.793l-.8-2.158-.817-2.237-.84-2.271c-.682-1.846-1.359-3.693-2.035-5.541Z" fill="#3B110B"/><path d="M228 110c2.556 1 3.797 1.684 5.3 4.023.335.776.669 1.552 1.012 2.352l1.051 2.336c.707 2.541.506 3.834-.363 6.289-3.03-1.515-3.37-3.854-4.625-6.938l-1.352-3.277C228 112 228 112 228 110Z" fill="#E46958"/><path d="M133 82a3015.157 3015.157 0 0 1-7.875 3l-2.262.867C117.227 88 117.227 88 115 88c1-3 1-3 3.063-4.625C122.96 81.082 127.739 80.453 133 82Z" fill="#270919"/><path d="M63 126h1c.248 6.57-.676 12.57-2 19h-1l-.438-3.375c-.346-3.446-.346-3.446-1.562-5.625h2l-1-8 1 2h2v-4Z" fill="#D05E96"/><path d="M115 114c.313 2.188.313 2.188 0 5-2.474 2.876-4.844 4.896-8 7 .856-3.968 2.695-12 8-12Z" fill="#0A0203"/><path d="M75 198c2.393 1.196 2.798 2.126 4.063 4.438l1.035 1.87A157.137 157.137 0 0 1 82 208h-7v-7h-2v-2l2-1Z" fill="#E1665C"/><path d="m238 123 3 2c.188 3.625.188 3.625 0 7h-2v6h-1c-.338-1.582-.67-3.166-1-4.75l-.563-2.672C236 128 236 128 236 124l2-1Z" fill="#F57248"/><path d="M100 250c4.975-.355 7.62.765 12 3 3.738.714 3.738.714 7 1l-2 3a365.55 365.55 0 0 1-17-6v-1Z" fill="#C37342"/><path d="m56 93 3 1c-1.877 5.136-3.33 7.844-8 11 0-3.444.796-4.748 2.5-7.688l1.406-2.449L56 93Z" fill="#A64DA3"/><path d="m185 258-5 1v2l-19 1v-1l3.613-.621 4.7-.817 2.38-.408 2.295-.4 2.11-.365c6.121-1.252 6.121-1.252 8.902-.389Z" fill="#3A210C"/><path d="M91 217c1.293.956 2.584 1.915 3.875 2.875l2.18 1.617C99 223 99 223 101 225c-2.968.353-5.156.542-7.734-1.113-1.47-1.242-2.873-2.56-4.266-3.887l2-1v-2Z" fill="#E16D4F"/><path d="M182 193h3l-1 7-3.75-.625c-3.37-.436-5.378-.409-8.25 1.625.563-1.875.563-1.875 2-4 2.314-.73 4.648-1.401 7-2l1-2Z" fill="#ED7F45"/><path d="M97 147h1l.367 3.184C99.24 157.56 100.195 164.78 102 172h-2l-.938-2.875c-.936-2.986-.936-2.986-2.062-5.125a242.295 242.295 0 0 1-.063-8.625l.014-2.43c.012-1.981.03-3.963.049-5.945Z" fill="#C86170"/><path d="M99 133h1a424.4 424.4 0 0 1-.375 4.75c-.07.882-.14 1.763-.21 2.672C99 142.99 98.287 144.758 97 147v-8h-2v6h-1v-8l3 1 2-5Z" fill="#DA6083"/><path d="m55 88 4 1-7 13h-1c-.68-5.273 1.752-9.394 4-14Z" fill="#1B051A"/><path d="M96 56a1592.97 1592.97 0 0 1-5.313 3.438L87.7 61.37C85 63 85 63 82 64l-1-3c1-1 1-1 3.563-1.063L87 60l.813-1.938c2.101-3.65 4.6-3.175 8.187-2.062Z" fill="#15041D"/><path d="M128 105v2c-1.496 1.219-1.496 1.219-3.438 2.5-2.787 1.787-2.787 1.787-4.562 4.5h-5c2.968-4.274 7.38-9 13-9Z" fill="#2A0A15"/><path d="M167 63v1c-8.042.167-15.986-.353-24-1v-1c8.216-1.85 15.974-1.423 24 1Z" fill="#CF5DA2"/><path d="M206 59c5.71.418 8.61 2.575 13 6-3.623 1.208-4.641.543-8-1l-1 2-2-2v-4l-2-1Z" fill="#CB5E80"/><path d="M91 192h3l1 2c2.025.652 2.025.652 4 1l1 8c-3.257-3.167-6.272-6.362-9-10v-1Z" fill="#E06659"/><path d="M189 180c3.438.813 3.438.813 7 2l1 3h3l1 3c-2.577-1.03-5.118-2.056-7.625-3.25L191 184l-3 2 1-6Z" fill="#2A0E07"/><path d="M193 224h6c-3.644 4.638-8.63 6.074-14 8l1-3 2.375-.25c2.772-.478 2.772-.478 3.938-2.813L193 224Z" fill="#230C04"/><path d="M51 104h2l-.621 2.23-.816 2.957-.81 2.918A117.265 117.265 0 0 0 49 120c-2-3-2-3-1.828-5.375L47.75 112c.18-.866.36-1.733.547-2.625C49 107 49 107 51 104Z" fill="#C658AD"/><path d="M69 116h1c.314 5.236-.224 8.515-3 13l-2 1c.539-5.277 1.773-9.256 4-14Z" fill="#361127"/><path d="M248 102c2.96 3.364 3.923 6.692 5 11-3 0-3 0-4.75-1.563-1.748-3.408-1.025-5.774-.25-9.437Z" fill="#DB6751"/><path d="m204 196 2 1-9 10-1-4h2v-2h2l1-3 3-2Z" fill="#D2814A"/><path d="M101 243h2v3h-2v4l-6-2v-3l2.438-.438c2.483-.303 2.483-.303 3.562-1.562Z" fill="#E77A47"/><path d="m239 211 2 1c-1.557 4.671-4.084 8.087-7 12l-1-4h2l1-3c1.846-4.846 1.846-4.846 3-6Z" fill="#D9A550"/><path d="M63 83c1.6 3.2.032 5.723-1 9l-5 1c1.37-3.995 3.257-6.8 6-10Z" fill="#904699"/><path d="M110 74v2h-3v3l-2.438.375L102 80l-1 2a101.38 101.38 0 0 1-6 2c3.662-4.005 9.238-10 15-10Z" fill="#320F2E"/><path d="M171 67c6.715 1.3 12.72 3.3 19 6v1h-5v-2l-1.875.563C181 73 181 73 179 72v-2l-8-2v-1Z" fill="#2A0A18"/><path d="M126 69c-4.357 2.904-9.08 5.45-14.438 4.625L110 73c11.177-5.855 11.177-5.855 16-4Z" fill="#361132"/><path d="M125 238h4v2l1.793-.035c4.21-.048 8.1-.025 12.207 1.035v1a396.55 396.55 0 0 1-7.313.25l-2.091.102c-2.022.039-2.022.039-5.596-.352-1.98-2.016-1.98-2.016-3-4Z" fill="#F0853B"/><path d="M232 181h1c-.432 6.152-1.654 9.82-5 15h-2c1.599-5.196 3.741-10.066 6-15Z" fill="#B47543"/><path d="M188 187a639.945 639.945 0 0 1-3.875 3.5l-2.18 1.969C180 194 180 194 178 194v-2h2v-4c4.625-2.125 4.625-2.125 8-1Z" fill="#200803"/><path d="M81 96c1 2 1 2 .75 3.938-.862 2.37-1.948 3.332-3.75 5.062l-1 2.125C76 109 76 109 73 110c1.326-3.623 2.943-6.635 5.125-9.813l1.633-2.394L81 96Z" fill="#360F2B"/><path d="M236 82h2v2l1.813.125c2.187.875 2.187.875 4 3.75C245 91 245 91 244 94a2421.09 2421.09 0 0 1-4-5.438l-2.25-3.058C236 83 236 83 236 82Z" fill="#260707"/><path d="M107 181c3.26 3.17 6.222 6.4 9 10l-6-1-3-9Z" fill="#CA6255"/><path d="m111 185 4 1v2l3-1 1 5h2l-1 2a974.752 974.752 0 0 1-3.938-3.375l-2.214-1.898C112 187 112 187 111 185Z" fill="#2B0907"/><path d="m70 108 1 3h-2l-2 9h-2c-.074-3.343-.065-5.804 1-9 2.063-1.688 2.063-1.688 4-3Z" fill="#D657A6"/><path d="m196 93 2 4 6-1-1 6a728.877 728.877 0 0 1-3.938-2.875l-2.214-1.617C195 96 195 96 194 94l2-1Z" fill="#2D0B0E"/><path d="M125 197a406040296.253 406040296.253 0 0 1 8.203 2.93A60.904 60.904 0 0 1 140 203c-5.638.345-9.112-.36-14-3l-1-3Z" fill="#CA6B4E"/><path d="M47 111c1.125 3.75 1.125 3.75 0 6l2 1c-1.375 2-1.375 2-3 4h-2c.551-3.95 1.39-7.35 3-11Z" fill="#AD5195"/><path d="m206 106 1 3-1 2h-3l-1 3-6 1c2.769-2.974 5.523-4.932 9-7l1-2Z" fill="#3E1415"/><path d="M74 103h2c-1.687 4.498-3.817 8.729-6 13h-1v-5h2l.375-2.875C72 105 72 105 74 103Z" fill="#B45A96"/><path d="m212 242 2 1c-.625 1.875-.625 1.875-2 4-3.125 1.25-3.125 1.25-6 2v-3c3-2.188 3-2.188 6-4Z" fill="#2C1C0A"/><path d="M173 200c-5.17 4.062-5.17 4.062-9.375 3.75L161 203c7.179-4.786 7.179-4.786 12-3Z" fill="#C6734A"/><path d="M68 184c3.05 3.66 7 9.079 7 14l-3-1c-1.063-2.313-1.063-2.313-2-5l-1.125-2.063C68 188 68 188 68 184Z" fill="#BC5C5F"/><path d="M102 173c2.724 2.353 3.814 4.625 5 8h-4v-2h-2l1-6Z" fill="#D45F5C"/><path d="m101 251 14 5c-4.02 1.005-4.596 1.088-8.125-.375l-2.07-.836A81.717 81.717 0 0 1 101 253v-2Z" fill="#270C05"/><path d="m191 185 5 1v2l-1.813.188c-3.058 1.136-3.737 2.985-5.187 5.812l-2-3h2l2-6Z" fill="#F08145"/><path d="M62 161h1c.365 1.58.717 3.165 1.063 4.75l.597 2.672c.338 2.565.152 4.149-.66 6.578-2-2-2-2-2.195-4.82l.07-3.305.055-3.32L62 161Z" fill="#B95A6F"/><path d="m207 218 1 2-2 3h-2v2l-6 1c2.853-2.932 5.65-5.643 9-8Z" fill="#D1914C"/><path d="m246 205 2 3c-.95 1.339-1.91 2.671-2.875 4l-1.617 2.25L242 216h-2c1.813-3.777 3.907-7.373 6-11Z" fill="#38210B"/><path d="m194 201 2 1v5h-5l3-6Zm-4 6 1 3h-2l1-3Z" fill="#EF863C"/><path d="m117 112-7 6v-5c3.625-2.125 3.625-2.125 7-1Z" fill="#B85A7F"/><path d="M222 98h2c1.257 2.906 2 4.796 2 8h2l-1 4-6-11 1-1Z" fill="#CE6562"/><path d="M241 90c3.483 3.019 4.792 5.57 6 10l-2 2v-5h-3l-1-7Z" fill="#C85B59"/><path d="m129 61 4 1-2 1v3h-7l3-1c1.209-2 1.209-2 2-4Z" fill="#D057B0"/><path d="M131 44c-2.345 2.345-3.96 2.955-7.262 3.098l-2.425-.035-2.45-.028L117 47v-1c4.873-1.591 8.808-2.212 14-2Z" fill="#914AA2"/><path d="M201 249c-2.77 3.81-6.629 4.068-11 5v-2h3v-2c2.928-.976 4.956-1.082 8-1Z" fill="#CBA74E"/><path d="M177 242h5l-2 4h-4l1-4Z" fill="#F0A531"/><path d="M74 231c2.938.75 2.938.75 6 2 .688 2.063.688 2.063 1 4l3 1-2 1a1154.753 1154.753 0 0 1-4-3.438l-2.25-1.933L74 232v-1Z" fill="#CB684A"/><path d="m195 227 1 2c-7.286 4.571-7.286 4.571-12 4 3.41-2.865 6.907-4.347 11-6Z" fill="#B3814C"/><path d="M126 217h6v2l3 1v2h-4v-2h-2v-2l-3-1Z" fill="#E07546"/><path d="m224 202 3 1v4c-1.875.625-1.875.625-4 1l-2-2 3-4Z" fill="#EC993F"/><path d="M207 192h2c.201 3.625-.142 5.865-2 9l-4-1 2-2.313c2.299-2.53 2.299-2.53 2-5.687Z" fill="#2D140C"/><path d="M104 174h2c1.324 1.645 1.324 1.645 2.688 3.813l1.386 2.144C111 182 111 182 110 185a782.74 782.74 0 0 1-3-4.375l-1.688-2.46C104 176 104 176 104 174Z" fill="#2E0906"/><path d="M179 109c3.536 1.911 5.79 3.626 8 7l-7-1 1-4h-2v-2Z" fill="#260808"/><path d="M220 89v5l-3 1-4-5c5.875-1 5.875-1 7-1Z" fill="#DD5F6C"/><path d="m94 74 7 1v4h-5l1-3h-3v-2Z" fill="#C454B8"/><path d="m93 218 7 2 1 4c-3.914-1.27-5.79-2.512-8-6Z" fill="#35110B"/><path d="m214 211 2 3c-2 3-2 3-5.125 3.688L208 218l6-7Z" fill="#C58641"/><path d="m183 191 4 2h-5l-2 4-4-1 7-5Z" fill="#C87143"/><path d="M43 178c2 1 2 1 4 3 .37 2.754.183 5.204 0 8-2.313-2.313-2.496-3.479-3.125-6.625l-.508-2.477L43 178Z" fill="#C35F70"/><path d="M220 70c4.314.48 6.166 1.746 9 5-3.375-.25-3.375-.25-7-1-1.438-2.063-1.438-2.063-2-4Z" fill="#D25F75"/><path d="m220 236 2 1-2 5h-6l6-6Z" fill="#27180A"/><path d="m227 221 6 1-1 4-5-2v-3Z" fill="#E6AC41"/><path d="m203 216 5 1-3 4-5-1 3-4Z" fill="#1C0D09"/><path d="m126 197 9 1 1 3c-4.22-.48-6.797-1.166-10-4Z" fill="#3C150D"/><path d="m194 115 2 1c-1.188 2-1.188 2-3 4-2.688.25-2.688.25-5 0l-1-4 2.375.625L192 117l2-2Z" fill="#300A0C"/><path d="M76 94c1.108 3.325.845 5.622 0 9h-2l-1 3-1-3 2-2c.366-1.994.701-3.995 1-6l1-1Z" fill="#D156B1"/><path d="M184 232c-3.203 2.834-5.78 3.52-10 4v-2c3.402-2.094 6.053-2.18 10-2Z" fill="#271006"/><path d="M230 227c0 3.97-1.314 5.165-4 8-2.14.648-2.14.648-4 1 .957-1.126 1.916-2.25 2.875-3.375l1.617-1.898A75.822 75.822 0 0 1 230 227Z" fill="#301B09"/><path d="M139 205h10v1l-3.25.375c-3.129.521-5.085 1.026-7.75 2.625l1-4Z" fill="#F57741"/><path d="M232 121c2.296 3.445 2.54 5.938 3 10h-2c-1.607-3.215-1.057-6.436-1-10Z" fill="#37100D"/><path d="M249 103h3c3 5.75 3 5.75 3 8l-3-1c-1.688-3.563-1.688-3.563-3-7Z" fill="#260705"/><path d="m120 47 3 1c-2.528 2.799-4.204 4.458-8 5 1.37-3.161 1.99-3.993 5-6Z" fill="#A84CC1"/><path d="M79 237c6.875 3.75 6.875 3.75 8 6-2.782-.376-4.588-.673-6.813-2.438C79 239 79 239 79 237Z" fill="#250905"/><path d="M82 208a317.62 317.62 0 0 1 6 5v1h-5l-1-6Z" fill="#CC6051"/><path d="M100 203h5l1 6a317.62 317.62 0 0 1-6-5v-1Z" fill="#CF6451"/><path d="M47 191c2.19 3.285 2.998 6.207 4 10h-3l-1-10Z" fill="#3B1315"/><path d="M254 187h1c.25 2.813.25 2.813 0 6-2 1.875-2 1.875-4 3l3-9Z" fill="#3E210F"/><path d="M196 186c3.375 1.186 5.647 2.276 8 5-4.517.366-4.517.366-6.813-1.375C196 188 196 188 196 186Z" fill="#D0774B"/><path d="M94 79h6l-5 5-2-3 1-2Z" fill="#B355A4"/><path d="m191 74 7 4c-3.01.934-3.867 1.044-7 0v-4Z" fill="#310C14"/><path d="M184 48h5l1 4-6-2v-2Z" fill="#C65890"/><path d="M57 212a141.4 141.4 0 0 1 5 5v2h-3c-2-3-2-3-2-7Z" fill="#320C0B"/><path d="m85 210 6 1v5a317.62 317.62 0 0 1-6-5v-1Z" fill="#220503"/><path d="m253 194 2 1c-2.625 4.875-2.625 4.875-6 6 .313-2.375.313-2.375 1-5l3-2Z" fill="#1E1108"/><path d="M114 114c0 3.15-.279 4.418-2 7-2.125.75-2.125.75-4 1 1.443-3.366 3.333-5.51 6-8Z" fill="#2D0B15"/><path d="m110 74-8 4 1-4c3-1 3-1 7 0Z" fill="#B158A3"/></svg>
