<svg xmlns="http://www.w3.org/2000/svg" width="300" height="300"><path d="m243 32 2.95 2.27c5.213 4.036 5.213 4.036 7.05 5.73v2l1.938.813C257 44 257 44 258 47h2c2.79 2.946 5.242 6.163 7.728 9.367a347.522 347.522 0 0 0 3.667 4.602C284.162 77.634 292.508 97.579 297 118l.526 2.33c4.347 20.101 4.014 41.64-.526 61.67l-.554 2.476c-5.408 23.2-16.178 43.966-31.466 62.149-1.985 2.317-1.985 2.317-3.617 4.688L260 253h-2l-.813 1.938C256 257 256 257 253 258v2c-22.778 21.591-53.069 35.001-84 39-1.27.18-2.54.36-3.848.547-38.335 4.661-76.486-7.994-107.039-30.692-31.73-24.967-52.417-61.379-57.425-101.48-4.055-38.38 6.319-77.966 30.035-108.574C34.323 54.373 38.08 50.147 42 46l2.379-2.61C95.3-10.407 186.106-14.397 243 32Z" fill="#000139"/><path d="M50 181c7.589-.181 15.177-.328 22.767-.414 3.525-.042 7.049-.099 10.573-.19 4.056-.103 8.11-.142 12.168-.177l3.817-.125c8.584-.005 8.584-.005 11.724 2.617 1.516 2.028 2.706 4.089 3.951 6.289 4.578 5.101 9.952 8.246 16 11.313l2.013 1.023c13.803 6.703 30.43 6.763 44.874 1.926 8.336-3.379 18.539-8.03 23.218-16.19 2.005-3.297 3.512-5.67 7.326-6.779 2.987-.219 5.88-.193 8.874-.074l3.27.034c3.435.045 6.866.145 10.3.247 2.333.04 4.667.077 7 .11 5.71.087 11.417.221 17.125.39-.504 3.47-1.019 6.544-2.566 9.7l-.959 1.957-1.037 2.03c-.36.705-.718 1.41-1.087 2.136-12.808 24.569-34.528 42.457-60.71 51.146-27.232 7.713-54.783 5.01-80.016-7.664C101.382 236.25 94.269 231.458 88 226v-2H69v-15c21.311-1.377 21.311-1.377 27.434 1.758 2.369 2.295 4.436 4.726 6.566 7.242 3.511 2.606 7.215 4.816 11 7l2.25 1.332c8.352 4.568 17.672 6.956 26.75 9.668l.434-2.2a368.04 368.04 0 0 1 1.629-7.613l.535-2.394L146 222l-2.281-.375c-13.932-2.705-29.972-9.425-38.61-21.203-4.717-3.674-9.149-3.15-14.972-3.129l-3.476-.046c-3.658-.043-7.315-.052-10.974-.06-2.482-.023-4.964-.048-7.447-.076-6.08-.063-12.16-.095-18.24-.111v-16Z" fill="#9054F0"/><path d="m224 69 2.805 2.27C239.582 82.182 252.498 98.993 255 116c-6.85.203-13.699.343-20.55.44-2.33.04-4.658.094-6.987.164a542.83 542.83 0 0 1-10.06.177l-3.14.125c-4.244.003-7.103-.002-10.526-2.67C199 108.988 199 108.988 199 106l-1.723-.793c-2.453-1.3-4.505-2.839-6.714-4.52-13.508-9.585-29.606-11.45-45.692-9.261C132.77 94.366 121.35 100.76 113 110l-1.3 3.108c-3.214 3.442-4.024 3.357-8.57 3.573a309.528 309.528 0 0 1-7.427-.095l-3.951-.026c-3.46-.023-6.918-.082-10.377-.148-3.532-.061-7.065-.089-10.598-.119A2439.63 2439.63 0 0 1 50 116v-15h52l2-4c9.818-10.453 23.899-18.326 38-21a146.21 146.21 0 0 1 5 0l-.875-2.555-1.125-3.32-1.125-3.305C143 64 143 64 143 62c-15.773 3.188-29.193 9.142-42 19l-2.938 2.188c-2.13 1.692-2.13 1.692-3.344 3.9C93 89 93 89 90.456 89.455l-2.999-.063-3.252-.04-3.392-.101-3.428-.055c-2.796-.047-5.59-.119-8.385-.195V74l3.621.063c10.496.239 10.496.239 19.317-4.688l2.019-2.191C126.861 32.014 190.811 41.644 224 69Z" fill="#8F57F0"/><path d="M31 154h68c3 12 3 12 3 16H31v-16Z" fill="#3DC6F6"/><path d="M31 128h71l-3 15H31v-15Z" fill="#3BC8F5"/><path d="M69 209c21.31-1.376 21.31-1.376 27.504 1.793 2.376 2.276 4.405 4.67 6.496 7.207 2.895 2.175 5.918 4.102 9 6l-1 2h-2v-2h-5l1 3-1.438 1.188c-1.918 2.225-2.08 3.957-2.562 6.812a2768.21 2768.21 0 0 1-4.25-2.813l-2.39-1.582c-4.585-3.119-4.585-3.119-6.36-4.605v-2H69v-15Z" fill="#57A6F4"/><path d="M206 181h49c-1.128 6.765-1.128 6.765-2.566 9.7l-.959 1.957-1.037 2.03c-.36.705-.718 1.41-1.087 2.136C238.772 217.115 221.814 233.49 201 243h-2l-1-3c1.865-2.628 3.304-3.864 6.492-4.488A132.94 132.94 0 0 1 212 235l1-6 6-1v-7h7v-7h7v-7l7-1v-6l6-1c.857-4.394 1.09-8.526 1-13h-13v-2l-1.924.092c-2.9.137-5.8.273-8.701.408l-3.027.145c-4.787.221-9.554.42-14.348.355v-4Z" fill="#B445BB"/><path d="M199 96v6l6 2 1 6c20.558 1.558 20.558 1.558 41 0v-10c3 1 3 1 4.387 3.617l1.3 3.258 1.325 3.242C255 113 255 113 255 116c-6.85.203-13.699.343-20.55.44-2.33.04-4.658.094-6.987.164a542.83 542.83 0 0 1-10.06.177l-3.14.125c-4.244.003-7.103-.002-10.526-2.67C199 108.988 199 108.988 199 106l-1.688-.75c-2.712-1.466-4.948-3.28-7.312-5.25l1-3c5.75-1 5.75-1 8-1Z" fill="#C844C9"/><path d="M178 48c21.014.75 41.445 14.778 55.498 29.578C238.628 83.25 243.376 89.25 247 96l-1 2-6-3v-5h-7l-1-7h-6l-1-9h-2l-1 2c-1.5-1.313-1.5-1.313-3-3v-3l-2.438-.375L214 69l-1-2h-1l-1-5-3.375.063C204 62 204 62 202 61v-3l-3 3-1-5c-6.382-.824-12.567-1.12-19-1-1-3-1-3-1-7Zm57 36-1 2h2l-1-2Z" fill="#B13BD5"/><path d="M50 101h32v1c-6.37.821-12.521 1.1-18.938 1a891.665 891.665 0 0 0-5.027-.063l-2.207-.035c-1.927-.019-1.927-.019-3.828 1.098-.658 3.03-.658 3.03-1 6l1.906-.035 2.594-.028 2.531-.035C61 110 61 110 64.56 110.535c5.67.756 11.31.28 17.004-.035 14.029-.774 14.029-.774 19.437.5l1 2-6 1 13 1v1H50v-15Z" fill="#31D1F2"/><path d="M50 181c7.589-.181 15.177-.328 22.767-.414 3.525-.042 7.049-.099 10.573-.19 4.056-.103 8.11-.142 12.168-.177l3.817-.125c8.57-.005 8.57-.005 11.773 2.635 1.54 2.028 2.742 4.008 3.902 6.271l2 3-7-1-1-6c-10.706-1.86-10.706-1.86-21 0v-2l-3.012.996c-3.98 1.138-7.657 1.17-11.8 1.066-4.761-.325-4.761-.325-9.188.938v-2H54l-1 2h-2v7c10.91.91 21.71 1.08 32.656.875l3.145-.035 2.817-.051C92 194 92 194 95 196c-10.157.884-20.19 1.126-30.375 1.063-1.43-.006-2.86-.01-4.29-.014-3.444-.01-6.89-.03-10.335-.049v-16Z" fill="#459AC7"/><path d="M233 207c3.375-.125 3.375-.125 7 0l2 2c-11.61 14.281-24.067 26.219-41 34h-2l-1-3c1.865-2.628 3.304-3.864 6.492-4.488A132.94 132.94 0 0 1 212 235l1-6 6-1v-7h7v-7h7v-7Z" fill="#B736DE"/><path d="M31 154h68c3 12 3 12 3 16H31v-1h66c1.217-6.34 1.217-6.34 0-12l-2-1-1 3c-1.458.054-2.916.093-4.375.125l-2.46.07C85 159 85 159 83 157h2v-2H31v-1Z" fill="#4A79AE"/><path d="M80 128h22l-3 15H31v-1l46-1v-2c5.945-.778 11.042-.953 17 0 2.322-.347 2.322-.347 4-1 .167-2.917.167-2.917 0-6l-2-2-2 .438c-4.343.814-8.678.482-13-.438l-1-2Z" fill="#4F7BB0"/><path d="M81 196c3.562-.117 7.124-.187 10.688-.25l3.052-.102c7.51-.099 7.51-.099 11.405 2.243C108 200 108 200 109 202h2v-2h3v2h2v2h-2v3l5 1 1 3 5-2 1 2-1 3h2.25c6.75 0 6.75 0 9.75 1v1l6 1-1 4c-13.474-1.925-28.688-9.897-37.094-20.688-4.321-3.438-8.343-3.092-13.719-3.125l-2.966-.076A409.047 409.047 0 0 0 81 197v-1Z" fill="#6A82E0"/><path d="M199 96v6l6 2 1 6 13 1v1l-6 1 6 1v1c-12.374 1.068-12.374 1.068-16.266-1.488C199 109.134 199 109.134 199 106l-1.688-.75c-2.712-1.466-4.948-3.28-7.312-5.25l1-3c5.75-1 5.75-1 8-1Z" fill="#A736EB"/><path d="M31 155h29l1 2c-6.155 1.81-11.605 2.253-18 2.125l-2.637-.027c-2.12-.024-4.242-.06-6.363-.098l-1 9 2.09-.254c6.21-.673 11.731-.658 17.91.254v1H31v-14Z" fill="#27ECEB"/><path d="M225 74c6.682 1.967 9.792 4.262 13.813 9.875l1.404 1.855c2.462 3.29 4.91 6.605 6.783 10.27l-1 2-6-3v-5h-7l-1-7h-6l-1-9Zm10 10-1 2h2l-1-2Z" fill="#C33BC8"/><path d="M31 128h22v2H34l-1 8 3.36-.07c1.463-.02 2.926-.037 4.39-.055l2.21-.05c3.844-.036 6.786 0 10.04 2.175v2H31v-14Z" fill="#19EDED"/><path d="m101 111 1 2-6 1 13 1v1H50v-1l31-1v-3c6.718-.991 13.294-1.377 20 0Z" fill="#518BC8"/><path d="M206 182h45l-4 1v3h-13v-2l-1.924.092c-2.9.137-5.8.273-8.701.408l-3.027.145c-4.787.221-9.554.42-14.348.355v-3Z" fill="#BC32DB"/><path d="M233 207c3.375-.125 3.375-.125 7 0l2 2c-1.79 2.126-3.582 4.25-5.375 6.375l-1.54 1.828-1.483 1.758-1.365 1.619c-1.031 1.183-2.127 2.31-3.237 3.42h-3v-10h7v-7Z" fill="#BE37D2"/><path d="m129 80 1 2-3 2c-.724 2.06-.724 2.06-1 4l-2.188-.25c-3.65.325-5.09 1.895-7.812 4.25h-2l-.188 1.813c-1.13 3.045-3.055 3.632-5.812 5.187v2h-6c4.438-10.402 17.274-16.393 27-21Z" fill="#6C7DEC"/><path d="M178 48c8.618.438 16.292 3.146 24 7-.573 2.867-.861 3.861-3 6l-1-5c-6.382-.824-12.567-1.12-19-1-1-3-1-3-1-7Z" fill="#9B3EEC"/><path d="M115 55v3h-2l-1 3-2.75-.25c-3.303-.035-3.303-.035-5.625 2-2.015 2.328-2.015 2.328-1.625 6.25-1.666.043-3.334.04-5 0l-1-1-2 7h-3l-1-1-2 2-1-3c18.935-18 18.935-18 28-18Z" fill="#6498E7"/><path d="m88 83 1 2h6l-2 4H69v-5c3.517-.1 6.565.281 10 1 2.663.368 5.33.683 8 1l1-3Z" fill="#529FE1"/><path d="M239 111v2h9v1c-6.219.91-12.282 1.183-18.563 1.188l-2.748.037c-5.3.011-9.676-.485-14.689-2.225v-1c9.011-.633 17.96-1.172 27-1Z" fill="#BE33DC"/><path d="m129.75 61.875 2.113.027c1.713.024 3.425.06 5.137.098-2.919 1.946-5.049 2.702-8.375 3.688-6.057 1.947-11.385 4.696-16.91 7.824C109 75 109 75 106 76l1-5 2.152-.516 2.785-.734 2.778-.703L117 68a62.356 62.356 0 0 0 1-4c3.456-2.72 7.563-2.228 11.75-2.125Z" fill="#7773F0"/><path d="M69 209h19l-1 4c-1.32.09-1.32.09-2.668.184l-3.52.254c-1.148.08-2.297.162-3.48.246-2.848.27-5.544.691-8.332 1.316v-6Z" fill="#4EB3F9"/><path d="M74 182c4.838-.224 9.672-.386 14.514-.494 1.644-.045 3.287-.107 4.929-.185 13.685-.636 13.685-.636 18.467 2.722 1.981 2.23 3.61 4.374 5.09 6.957h-7l-1-6c-10.706-1.86-10.706-1.86-21 0v-2l-3.063 1.063c-3.86 1.126-6.99.742-10.937-.063v-2Z" fill="#6D8AF2"/><path d="M202 186h3l1 6c-3 2-3 2-7 2v6h-2v-2l-5 1c.558-3.536 1.642-4.883 4.438-7.063 2.475-1.948 3.766-3.243 5.562-5.937Z" fill="#9F3DDE"/><path d="m129 92 7 1c-2.782 2.17-5.614 3.96-8.688 5.688-6.99 4.14-12.62 9.569-18.312 15.312l1-5h2v-2c2.313-2.625 2.313-2.625 5-5h3l1-5 8-1v-4Z" fill="#737BEC"/><path d="m202 103 3 1 1 6 13 1v1l-6 1 6 1v1c-2.291.08-4.583.14-6.875.188l-3.867.105L205 115c-2.323-3.484-2.085-4.93-2-9l-1-3Z" fill="#AF36E4"/><path d="m214 233 3 1a2506.376 2506.376 0 0 1-7.875 4.5c-.746.43-1.493.859-2.262 1.3l-2.168 1.231-2 1.143C201 243 201 243 199 243l-1-3c3.203-4.368 6.695-4.802 11.758-5.605 2.27-.29 2.27-.29 4.242-1.395Z" fill="#A541D4"/><path d="m74.25 110.875 3.828.055L81 111v2h5v1c-7.822 1.765-15.433 1.69-23-1 3.704-2.376 6.93-2.205 11.25-2.125Z" fill="#4BB6F7"/><path d="M233 182h18l-4 1v3h-13l-1-4Z" fill="#CC30D1"/><path d="M95 139v3H74l3-1v-2c6.232-1.039 11.747-.833 18 0Z" fill="#5BA4F9"/><path d="m124 212 1 2h2.25c6.75 0 6.75 0 9.75 1v1l6 1-1 4c-6.467-1.162-12.096-3.125-18-6v-3Z" fill="#7864EA"/><path d="M136 48v3h-3c-1.705 1.94-1.705 1.94-3 4l-6-2-1 2h-2c.2-1.89.2-1.89 1-4 2.145-1.047 2.145-1.047 4.813-1.75l2.644-.734C132 48 132 48 136 48Z" fill="#786EEE"/><path d="m225 74 6 2v4h3l-1 3h-7l-1-9Z" fill="#C430DB"/><path d="M95 214c4.438.518 6.79 2.094 10.188 4.938l2.605 2.152C110 223 110 223 112 225l-3 1v-2l-1.938-.375L105 223l-1-2-3-.875L98 219c-.75-2.063-.75-2.063-1-4l-2-1Zm1 5h2v2h-2v-2Z" fill="#688BE6"/><path d="M46 155h14l1 2c-4.842 1.336-8.934 2.253-14 2l-1-4Z" fill="#2BDDF3"/><path d="M32 156h6l-1.938.938c-3.16 3.16-2.881 6.745-3.062 11.062l2.09-.254c6.21-.673 11.731-.658 17.91.254v1H32v-13Z" fill="#0FF0EA"/><path d="M115 55v3h-2l-1 3-2.75-.188c-3.626.21-4.506 1.011-7.25 3.188l-3-1c1.582-.96 3.166-1.918 4.75-2.875l2.672-1.617C112.42 55 112.42 55 115 55Z" fill="#6C83E9"/><path d="M198 242v2c-5.372 2.629-10.045 3.608-16 4v-2h3l1-3c1.625-.168 3.25-.334 4.875-.5l2.742-.281C196 242 196 242 198 242Z" fill="#9D3EE9"/><path d="M202 55c1.794.954 3.585 1.913 5.375 2.875l3.023 1.617C213 61 213 61 215 63l-3 1-2-2c-2-.042-4-.042-6 0l-2-1v-6Z" fill="#A83ED7"/><path d="m189 198 2 1c-1.375 2-1.375 2-3 4h-2l-1 3h-7c1-3 1-3 3.215-4.422l2.722-1.328 2.715-1.36L189 198Z" fill="#9B43E9"/><path d="m129 80 1 2-3 2c-.724 2.06-.724 2.06-1 4h-8c1-3 1-3 3.285-4.387l2.778-1.3 2.785-1.325L129 80Z" fill="#7877F2"/><path d="m58.125 138.438 2.758.308L63 139l1 3H53v-2l-2-1c2.623-1.312 4.23-.896 7.125-.563Z" fill="#2ED3F1"/><path d="M80 128h17l-2 3c-5.512.467-9.783-.261-15-2v-1Z" fill="#57A4FB"/><path d="M74 182h21v1l-7 2v-2l-3.063 1.063c-3.86 1.126-6.99.742-10.937-.063v-2Z" fill="#54ADF9"/><path d="m194 102 3.875.875 2.18.492C202 104 202 104 204 106c-.375 2.625-.375 2.625-1 5-2-1.375-2-1.375-4-3v-2l-1.938-.875C195 104 195 104 194 102Z" fill="#9E41D6"/><path d="M60 182h14l-1 3-3.375-.063c-3.457-.2-3.457-.2-5.625 1.063v-2l-4-2Z" fill="#3BC6F4"/><path d="m102 235 8 1v3l4-1 1 3c-3 1-3 1-5.48-.18l-2.707-1.695-2.731-1.68L102 236v-1Z" fill="#6984E6"/><path d="M117 228c1.607.425 3.21.866 4.813 1.313l2.707.738c2.532.97 3.752 1.9 5.48 3.949-1.456.222-2.915.427-4.375.625l-2.46.352L121 235l-2-2h2l-4-5Z" fill="#7578F1"/><path d="M157 208h9l-2 1v3l-4 1-1-2v3h-2v-6Z" fill="#8845F8"/><path d="m59 110 8 1v2l3 2a350.93 350.93 0 0 1-4.813.125l-2.707.07C60 115 60 115 57 113l2-3Z" fill="#35CCF1"/><path d="m103 226 2 1-1.438 1.188c-1.914 2.22-2.175 3.946-2.562 6.812l-6-4c2-3 2-3 4.563-3.625L102 227l1-1Z" fill="#6695F3"/><path d="M116 243c5.569.48 10.67 1.3 16 3v3c-5.361-1.59-10.708-3.19-16-5v-1Z" fill="#716FDE"/><path d="m238 111 1 2h9v1c-7.338 1.174-14.582 1.094-22 1v-1l12-1v-2Z" fill="#C92AD7"/><path d="M231 76c3.596 3.494 6.835 7.111 10 11h-3l-1-2-4 1 1-6h-3v-4Z" fill="#B33BC2"/><path d="M148 223c1 3 1 3 0 6h2v2l-1.938.375L146 232l-1 2c-1.397-4.19.136-6.128 2-10l1-1Z" fill="#815AF6"/><path d="m73 111 1 2c2.322.407 4.657.744 7 1v1c-6.406.209-11.93.158-18-2 3.402-2.094 6.053-2.18 10-2Z" fill="#41BFF4"/><path d="m205 236 1 3h-3v3l-4 1-1-3c3.625-4 3.625-4 7-4Z" fill="#AA3CE8"/><path d="M240 200h5c-.25 2.875-.25 2.875-1 6-2.063 1.375-2.063 1.375-4 2v-8Z" fill="#CA35D0"/><path d="m95.563 110.313 3.003.238L101 111l1 2-12 1-2-3c2.7-1.35 4.57-.949 7.563-.688Z" fill="#639BFB"/><path d="m236 84 5 4-1 2h-7l1-4h2v-2Z" fill="#C92ED6"/><path d="M143 236v3h-2v2h-5v-4c3-1 3-1 7-1Z" fill="#7D61F7"/><path d="M99 159c1.803 3.607 2.466 6.084 3 10h-5l2-10Z" fill="#6489E0"/><path d="M77 139c5.28-.305 6.577-.317 11 3H74l3-1v-2Z" fill="#4BB1FA"/><path d="M108 93c1.097 3.29.8 4.713 0 8h-6c1.443-3.366 3.333-5.51 6-8Z" fill="#6884E2"/><path d="m206 182 13 1v1l-13 1v-3Z" fill="#AF36E4"/><path d="M67 155v3l-11 1v-2c3.634-2.326 6.77-2.163 11-2Z" fill="#37CDF2"/><path d="m102 76 4 1-10 8v-3h2l1-4h2l1-2Z" fill="#688DE7"/><path d="m51 139 2 1v2h-7v-2l-3-1c3.322-1.107 4.683-.85 8 0Z" fill="#21E0F0"/><path d="M69 209h5v5l-5 1v-6Z" fill="#41C2F1"/><path d="M203 186h2l1 6c-3 2-3 2-6 2l1-3 3 1v-2h-2l1-4Z" fill="#AC37EB"/><path d="m111 70 2 2c-4.75 4-4.75 4-7 4l1-5c1.875-.625 1.875-.625 4-1Z" fill="#6C87F1"/><path d="m150 67-1 9c-3-3-3-3-3.188-5.688L146 68c2-1 2-1 4-1Z" fill="#8055F4"/><path d="m88 83 1 2h6l-1 3h-6v-5Z" fill="#5C9CED"/><path d="M221 69c2 1.375 2 1.375 4 3v2h-2l-1 2-3-3 2-4Z" fill="#BD33E0"/><path d="M178 48h2v2h5l-4 2 1 3-4-1v-6Z" fill="#993CF5"/><path d="M225.563 223.938 228 224c-4.75 4.875-4.75 4.875-7 6 1.073-5.977 1.073-5.977 4.563-6.063Z" fill="#B13BD0"/><path d="m51 193 9 1v2h-9v-3Z" fill="#2CD7F0"/><path d="M118 64h2v3l2 1-9 4v-3l5-2v-3Z" fill="#737CEA"/><path d="m98 64 4 1v4h-5l1-5Z" fill="#6796F9"/><path d="m194 53 8 2c-1 4-1 4-3 6l-1-5-4-1v-2Z" fill="#A93CE9"/><path d="m189 50 9 3-8 2-1-5Z" fill="#9C45DD"/><path d="m132 202 7 2c-1.25 1.563-1.25 1.563-3 3-2.188-.313-2.188-.313-4-1v-4Z" fill="#7767E8"/><path d="m129 92 7 1c-2.386 1.892-4.072 3.024-7 4v-5Z" fill="#7C6FF0"/><path d="m93 69 2 1-1 5h-3c.875-4.875.875-4.875 2-6Z" fill="#609EF8"/><path d="m124 212 1 2 2.313-.188c2.687.188 2.687.188 4.5 1.688L133 217l-2 1a135.916 135.916 0 0 1-7-3v-3Z" fill="#756FE6"/><path d="M118 209h2v2l5-2c0 3 0 3-1 5-2.438-.813-2.438-.813-5-2l-1-3Z" fill="#787AF3"/><path d="m233 207 4 2v3h-2l1 3-3-1v-7Z" fill="#C62FDB"/><path d="M98 136h1v6h-4v-4h3v-2Z" fill="#6697F6"/><path d="m111 91 2 4c-1.813 1.563-1.813 1.563-4 3l-3-1 2-1a113.158 113.158 0 0 0 3-5Z" fill="#6E89F8"/><path d="M191 97h4l-1 5-4-2 1-3Z" fill="#9B40DE"/><path d="M69 84h4l1 4h-5v-4Z" fill="#40C0F3"/></svg>
