<svg xmlns="http://www.w3.org/2000/svg" width="300" height="300"><path d="m243 32 2.95 2.27c5.213 4.036 5.213 4.036 7.05 5.73v2l1.938.813C257 44 257 44 258 47h2c2.79 2.946 5.242 6.163 7.728 9.367a347.522 347.522 0 0 0 3.667 4.602C284.162 77.634 292.508 97.579 297 118l.526 2.33c4.347 20.101 4.014 41.64-.526 61.67l-.554 2.476c-5.408 23.2-16.178 43.966-31.466 62.149-1.985 2.317-1.985 2.317-3.617 4.688L260 253h-2l-.813 1.938C256 257 256 257 253 258v2c-22.778 21.591-53.069 35.001-84 39-1.27.18-2.54.36-3.848.547-38.335 4.661-76.486-7.994-107.039-30.692-31.73-24.967-52.417-61.379-57.425-101.48-4.055-38.38 6.319-77.966 30.035-108.574C34.323 54.373 38.08 50.147 42 46l2.379-2.61C95.3-10.407 186.106-14.397 243 32Z" fill="#21A7FA"/><path d="m243 32 2.95 2.27c5.213 4.036 5.213 4.036 7.05 5.73v2l1.938.813C257 44 257 44 258 47h2c2.79 2.946 5.242 6.163 7.728 9.367a347.522 347.522 0 0 0 3.667 4.602C284.162 77.634 292.508 97.579 297 118l.526 2.33c4.347 20.101 4.014 41.64-.526 61.67l-.554 2.476c-5.408 23.2-16.178 43.966-31.466 62.149-1.985 2.317-1.985 2.317-3.617 4.688L260 253h-2l-.813 1.938C256 257 256 257 253 258v2c-22.778 21.591-53.069 35.001-84 39-1.27.18-2.54.36-3.848.547-38.335 4.661-76.486-7.994-107.039-30.692-31.73-24.967-52.417-61.379-57.425-101.48-4.055-38.38 6.319-77.966 30.035-108.574C34.323 54.373 38.08 50.147 42 46l2.379-2.61C95.3-10.407 186.106-14.397 243 32Zm-96-4v24l-5.688-.125c-9.207.01-18.179.504-26.312 5.125-1.37.435-2.745.85-4.125 1.25C95.538 63.277 81.215 75.183 73 89l-3 3c-1.59 2.676-2 3.818-2 7h-2c-3.303 3.452-3.303 3.452-4 8h-2l-.75 3.563c-.94 4.302-2.114 8.513-3.313 12.75-1.827 6.574-2.6 12.873-2.937 19.687l-23 1c-.188 7.983.281 15.204 2 23h2l-.133 2.559C34.281 180.278 40.351 191.525 45 201h2l-.332 2.621c.438 4.454 2.582 6.449 5.645 9.441 3.402 3.429 6.326 6.689 8.687 10.938 3.27 4.33 6.44 7.098 11 10l1 2a264.271 264.271 0 0 0 5 3l2 2 2.313.875C85 243 85 243 87.308 244.879c6.894 5.434 15.337 8.645 23.691 11.121l2.25.773c22.245 7.39 52.35 7.33 74.172-1.785a104.472 104.472 0 0 0 3.738-1.984c2.851-1.556 5.859-2.74 8.86-3.977 2.1-1.089 3.329-2.358 4.98-4.027 3.188-1.188 3.188-1.188 6-2v-2l8-4v-2h2v-2l6-3v-2l3-1a381.113 381.113 0 0 0 5-6l3-2v-2h2l1-3 3-1c1.469-2.177 1.469-2.177 2.688-4.813l1.324-2.644c1.23-2.71 1.23-2.71.988-6.543h2c2.853-5.732 4.534-10.599 5-17h2c1.75-6.402 1.75-6.402 2-13h2c4.601-21.404 4.286-48.109-7-67.375-3.78-6.477-5.338-13.38-7-20.625l-1.93-.387C244 80 244 80 242.875 78.188L242 76l-1.125-2.25L240 72h-2l-.787-1.784c-1.297-2.37-2.652-3.83-4.62-5.67l-2.003-1.874-2.09-1.922-2.09-1.969C223.192 55.3 223.192 55.3 219 54v-2c-3.827-3.732-7.046-5.519-12.07-7.188-2.514-1.058-4.235-2.792-6.23-4.613-2.841-2.004-6.036-2.694-9.364-3.574C189 36 189 36 186.062 34.812c-2.158-.995-2.158-.995-5.062-.812v-2c-11.47-2.447-22.229-4.567-34-4Z" fill="#232330"/><path d="M166 101v2l2.25.875A81.918 81.918 0 0 1 175 107v2l1.813.313c2.51.788 3.357 1.857 5.187 3.687 2.103.714 2.103.714 4 1v-2l1.574-.734c3.403-1.636 6.195-3.063 9.051-5.579C199 104 199 104 202 103.814c6.062 2.399 8.18 8.299 10.688 13.937 8.566 21.847 4.232 43.379-4.688 64.25h-2v2h-2l-1 4 1.75 1.426 2.25 1.887 2.25 1.863C211 195 211 195 211 198l1.875.313C215 199 215 199 217 202c-.097 3.705-.977 4.974-3.438 7.813C211 212 211 212 209 212v2h-2l-.191 1.766c-1.143 3.158-2.988 4.132-5.746 5.984l-2.715 1.86C196 225 196 225 194 225v2l-1.977.55c-5.592 1.604-5.592 1.604-10.898 3.95-8.92 4.282-19.349 5.641-29.152 5.598l-3.897-.01-4.013-.025A3709.203 3709.203 0 0 1 130 237v-2l-2.082-.184-2.73-.254c-.894-.08-1.787-.162-2.708-.246C120 234 120 234 117 233v-2h-6l-1-2a301.18 301.18 0 0 0-6-1.625c-9.856-2.99-16.454-10.657-23.435-17.872-1.51-1.6-1.51-1.6-3.565-2.503v-2h-2v-4l-1.813-.688C70.388 198.632 69.42 196.91 68 194v-3h-2a519.108 519.108 0 0 1-2.5-4.313l-1.406-2.425C61 182 61 182 61 179h-2c-1.581-5.588-2.358-10.885-2.754-16.68-.111-2.343-.111-2.343-1.246-4.32-.14-4.336-.043-8.66 0-13h22l.813 6.938c1.055 8.27 2.849 14.948 7.187 22.062a261.938 261.938 0 0 1 2.84 7.793c1.386 2.637 2.483 3.06 5.16 4.207a112.79 112.79 0 0 1 3 5c3.701 5.32 8.035 8.156 13.574 11.484C112 204 112 204 114 206a98.346 98.346 0 0 0 4.938 2c3.036 1.145 5.339 2.185 8.062 4 5.849 2.661 11.827 2.331 18.125 2.313l3.227.048c10.93.007 21.87-2.298 31.648-7.361l1-2h2v-2h4l.688-1.875c1.691-2.74 3.304-3.175 6.312-4.125v-2c3.462-3 3.462-3 6-3-1.063-4.586-1.063-4.586-4.5-7.563L193 183c-.673-1.664-1.34-3.33-2-5-1.872-.843-1.872-.843-4-1l-1.93-.684c-2.101-.557-2.101-.557-3.71.758l-1.61 1.613C176.075 182.093 171.239 186 166 186v2c-8.163 2.748-15.424 3.407-24 3l-2.66-.023c-11.67-.481-19.51-7.591-27.32-15.489C110 173 110 173 110 170h-2c-6.758-11.299-8.467-19.877-8-33h2l-.25-3c-.01-4.598 1.776-8.194 4.25-12a2121.32 2121.32 0 0 1 3-3 62.324 62.324 0 0 0 2.188-3.688L113 112h2l.75-1.813c3.026-5.294 9.047-7.284 14.688-8.874L132 101v-2c9.946-1.624 25.262-3.825 34 2Z" fill="#232430"/><path d="M147 28c11.771-.567 22.53 1.553 34 4v2l3.125.313C188.005 35 190.55 36.164 194 38l3.063.938C200 40 200 40 202.313 41.874c2.45 1.937 4.346 2.932 7.187 4.125 3.66 1.552 6.608 3.201 9.5 6v2l1.797.8c2.283 1.244 3.677 2.504 5.453 4.388 3.234 3.352 6.662 6.36 10.246 9.332L238 70v2h2c1.783 2.639 2.99 4.972 4 8 2.015.733 2.015.733 4 1l.297 1.652c1.356 6.837 3.888 12.631 6.933 18.868 6.656 13.987 8.968 27.403 8.958 42.73l.001 3.05c-.052 7.406-.629 14.442-2.189 21.7h-2l-.438 3.125c-.479 3.3-1 6.588-1.562 9.875l-4 1v6l-1-3h-2v2h-2l1 10-3-1-.25 1.563c-.887 2.882-2.295 5.17-3.828 7.753-1.017 1.857-1.588 3.594-1.922 5.684h-2l-1 2-1-1c-1.64.03-1.64.03-3.313.063-5.243-.09-5.243-.09-7.687-2.063-1.966-4.635-.228-9.343 1-14h-6l-1 2c-7.732-1.755-12.438-5.464-18-11l2-4h2v-2h2l.348-1.586c.836-3.093 1.968-6.038 3.09-9.039 6.522-18.176 6.942-37.473-.938-55.375-2.849-6.765-2.849-6.765-8.188-11.188-4.35.247-6.133 2.034-9.41 4.75-2.243 1.696-4.1 2.263-6.902 2.438v2c-3.56-.305-5-1-7.813-3.313C176 108 176 108 176 104l2-1c-5.718-3.796-10.676-4.922-17.438-5.75l-2.794-.379c-2.255-.304-4.51-.594-6.768-.871v-2h-4v-2c5.273.445 10.018 1.084 15 3l1-3h6l-2-5 2.438-.875c2.695-.858 2.695-.858 3.562-3.125 6.75.875 6.75.875 9 2v2l2.438.063c5.704 1.5 10.165 5.408 14.195 9.66 1.322 1.517 1.322 1.517 3.554 1.34 4.97-1.878 8.819-5.47 12.934-8.758C217 88 217 88 219 88v-4h-2l-1-2-3-1c-1.5-1.559-1.5-1.559-3-3.438-1.964-2.45-3.32-3.776-6-5.562v-2l-7-2v-2h-4v-2h-3a323.79 323.79 0 0 1-3-3c-12.619-6.2-26.14-8.115-40-9V28Z" fill="#33D1F8"/><path d="M58 116h1c.234 4.373.312 7.708-1.438 11.75-2.227 5.254-2.24 10.6-2.562 16.25h22v1H55l.438 6.375c.08 1.183.162 2.367.246 3.586.127 2.954.127 2.954 1.316 5.039a87 87 0 0 1 .535 4.352l.264 2.578.264 2.695.275 2.719c.224 2.218.445 4.437.662 6.656h2c.838 1.622 1.67 3.248 2.5 4.875l1.406 2.742C66 189 66 189 66 191h2l1.023 1.934 1.352 2.504 1.336 2.496c1.123 2.2 1.123 2.2 3.289 3.066v4h2v2l1.797.8c2.283 1.244 3.677 2.504 5.453 4.387.612.62 1.225 1.24 1.855 1.88a288.238 288.238 0 0 1 3.633 3.773c5.133 5.023 10.633 6.986 17.383 9.02L110 228l1 3h6v2l13 2v2c3.91-.095 7.82-.201 11.731-.317 1.968-.057 3.937-.104 5.906-.152 11.605-.353 23.881-1.01 34.3-6.594 4.041-2.127 7.528-2.613 12.063-2.937v-2c1.863-1.438 1.863-1.438 4.313-3l2.425-1.563L203 219c3.248-1.722 3.248-1.722 4-5h2v-2l2.938-2.313c2.265-1.815 2.997-2.517 4.062-5.312.22-2.647.22-2.647-2-5.375l-3-1 1-2 1.715.473 2.222.59 2.215.597L220 198l1-1c2-.04 4-.043 6 0 .125 6.625.125 6.625-1 10 .39 2.143.39 2.143 1 4 3.392 1.044 6.465 1.074 10 1h4l.34-2.168c.705-3.023 1.793-5.395 3.222-8.144.456-.884.91-1.767 1.38-2.676L247 197h2v-9h2v-2h2l1-3h2c-.508 5.966-2.386 10.638-5 16h-2l-.25 1.938c-1.033 4.218-2.511 8.325-4.75 12.062l-3 1-1 3h-2l-1 3a381.113 381.113 0 0 1-6 5l-2 3h-2v2c-3.462 3-3.462 3-6 3v2h-2v2c-2.639 1.783-4.972 2.99-8 4v2l-2.75.75c-3.256.98-3.256.98-5.004 3.137-2.822 2.655-5.863 3.846-9.434 5.175l-2.025.78c-4.882 1.865-9.792 3.62-14.787 5.158l-3.438 1.125c-19.51 4.792-43.672 3.337-62.562-3.125l-2.082-.578c-5.259-1.522-9.97-3.874-14.793-6.422l-1.985-1.044c-3.137-1.698-5.722-3.335-8.14-5.956l-2.5-1c-2.564-1.025-3.63-2.045-5.5-4l-3-1a140.693 140.693 0 0 1-5-5l-2.563-2.563L63 226l-2.125-2c-1.875-2-1.875-2-3.2-4.316-2.416-3.87-5.607-6.861-8.812-10.086-2.237-3.12-2.24-4.842-1.863-8.598h-2c-11.403-23.158-11.403-23.158-11-34h-2c-1.719-7.796-2.188-15.017-2-23l23-1 .25-5.063c.608-7.595 2.612-14.658 4.75-21.937Z" fill="#1384F8"/><path d="m87 162 2 1v4c2.416.167 2.416.167 5 0l2-2v3l4-3v2h2l1-4v2h3l2 5h2a246.046 246.046 0 0 1 3 5c6.403 7.647 13.665 13.581 23.813 14.813 1.727.092 3.457.152 5.187.187l3.273.117c6.044.125 11.017-.173 16.727-2.117h4v-2l2.703-1.39 3.547-1.86 3.516-1.828c2.937-1.745 4.882-3.495 7.234-5.922 2 .125 2 .125 4 1l2.125.75C191 178 191 178 192 180.563l1 2.437c1.936.672 1.936.672 4 1 2.397 1.712 2.925 2.573 3.438 5.5-.438 2.5-.438 2.5-2.313 4.313C196 195 196 195 194 195v2a374.925 374.925 0 0 1-6 4l-1 2h-4v2h-2l-1 3c-2.371 1.316-2.371 1.316-5.438 2.563l-2.996 1.253c-13.52 4.487-32.226 6.511-45.629.934A114.479 114.479 0 0 1 121 210a608.07 608.07 0 0 0-4.438-2.063c-3.19-1.634-5.788-3.661-8.562-5.937l-3.313-1.688C99.862 197.655 96.163 193.462 93 189v-3l-1.75-.063c-2.915-1.214-3.979-3.01-5.434-5.75-1.47-3.94-1.648-8.015-1.816-12.187l3 3v-9Z" fill="#41EFF8"/><path d="M147 28c11.771-.567 22.53 1.553 34 4v2l3.125.313C188.005 35 190.55 36.164 194 38l3.063.938C200 40 200 40 202.313 41.874c2.45 1.937 4.346 2.932 7.187 4.125 3.66 1.552 6.608 3.201 9.5 6v2l1.75.762c5.737 3.157 12.97 10.289 15 16.55L236 73h-4v2l-2.5 1c-2.737 1.709-2.737 1.709-2.762 4.277.05 1.752.142 3.503.282 5.25-.022 2.724-.632 4.164-2.02 6.473h-6v-2h2v-8l-3 1 1-4-3 1v-3l-3.188-.25c-4.1-.807-5.89-1.827-8.812-4.75v-2l-7-2v-2h-4v-2h-3a323.79 323.79 0 0 1-3-3c-12.619-6.2-26.14-8.115-40-9V28Z" fill="#3EEDF8"/><path d="M147 52c11.571-.246 21.172 1.013 32 5l2.75.977L184.5 59l2.531.938C189 61 189 61 190 64h3v2h4v2l2.242.29c3.143.81 4.524 1.893 6.883 4.085l2.008 1.836L210 76l1.742 1.602C213 79 213 79 213 81l4 1v2h2v4c-2.438 1.813-2.438 1.813-4.086 2.781-3.13 1.994-5.864 4.502-8.668 6.926C204 99 204 99 201.476 98.91c-2.799-1.029-4.374-2.246-6.538-4.285-2.016-1.876-3.94-3.627-6.184-5.227L187 88v-2l-2.313-.688c-3.104-1.105-5.962-2.348-8.937-3.75-9.679-4.421-18.1-5.995-28.75-6.562V52Z" fill="#242734"/><path d="m87 162 2 1v4c2.416.167 2.416.167 5 0l2-2v3l4-3v2h2l1-4v2h3l2 5h2a246.046 246.046 0 0 1 3 5c6.403 7.647 13.665 13.581 23.813 14.813 1.727.092 3.457.152 5.187.187l3.273.117c6.072.125 10.973-.28 16.727-2.117 2.438.375 2.438.375 4 1-3.435 2.29-4.985 2.178-9 2v2h-21l6 1-1 2c-2.333.042-4.667.04-7 0l-1-1a99.984 99.984 0 0 0-5 0l3 2v4c-4.554.37-4.554.37-6.813-1.5L123 198l1-2h-3v4l-8 1v2h7v-2l5 1v3h-5v3l2.063.375c2.937.625 2.937.625 6.142 1.64 5.987 1.553 11.99 1.395 18.135 1.41 2.26.012 4.515.062 6.773.112 8.786.094 15.38-.844 23.459-4.556L179 206l2 1a515.114 515.114 0 0 1-5.875 2.875l-3.305 1.617c-12.02 5.152-30.328 6.269-42.832 2.528A62.727 62.727 0 0 1 121 210a608.07 608.07 0 0 0-4.438-2.063c-3.19-1.634-5.788-3.661-8.562-5.937l-3.313-1.688C99.862 197.655 96.163 193.462 93 189v-3l-1.75-.063c-2.915-1.214-3.979-3.01-5.434-5.75-1.47-3.94-1.648-8.015-1.816-12.187l3 3v-9Z" fill="#3DE8F8"/><path d="M117 234h4v2h5v2l44 1v-2l-3-1c3.789-1.41 6.948-2.52 11-2 2.813 1.375 2.813 1.375 5 3v2h-2v2l-2 1 10 3-8 4v3l-3 1-1.125 2.063C175 257 175 257 172.809 257.262A96.093 96.093 0 0 1 166 257v2c-11.639 1.156-23.382 1.766-35 0l-1-1a123.141 123.141 0 0 0-5.563-.563l-3.066-.253L119 257l2-1v-5l-6-1 1-4 4-1-.563-2.875C119 239 119 239 120 237l-3-1v-2Z" fill="#1388FA"/><path d="M254 183h2c-.508 5.966-2.386 10.638-5 16h-2l-.25 1.938c-1.033 4.218-2.511 8.325-4.75 12.062l-3 1-1 3h-2l-1 3a381.113 381.113 0 0 1-6 5l-2 3h-2v2c-3.462 3-3.462 3-6 3v2h-2v2c-2.639 1.783-4.972 2.99-8 4v2c-2.812.937-4.587 1.135-7.5 1.125l-2.344.008C199 244 199 244 196 243v2h-2v-4h2v-3l-5-1v-3h5v-2h-2v-2h-4v-2l4-1v-2c1.863-1.438 1.863-1.438 4.313-3l2.425-1.563L203 219c3.248-1.722 3.248-1.722 4-5h2v-2l2.938-2.313c2.265-1.815 2.997-2.517 4.062-5.312.22-2.647.22-2.647-2-5.375l-3-1 1-2 1.715.473 2.222.59 2.215.597L220 198l1-1c2-.04 4-.043 6 0 .125 6.625.125 6.625-1 10 .39 2.143.39 2.143 1 4 3.392 1.044 6.465 1.074 10 1h4l.34-2.168c.705-3.023 1.793-5.395 3.222-8.144.456-.884.91-1.767 1.38-2.676L247 197h2v-9h2v-2h2l1-3Z" fill="#22ACFA"/><path d="M210 76c2.938.375 2.938.375 6 1l1 2h2v3h2v8l-2.938.875c-3.169.767-3.169.767-4.062 3.125h-2c-.426 9.65-.426 9.65 2.266 18.746 1.683 5.166 1.514 10.86 1.734 16.254h2v23h2l-1 10-3 1 1 2h3v2h3v5l-2 1v-5h-2l-.375 2.375C218 173 218 173 216 175c-.648 2.57-.648 2.57-1 5h-2l1 3a87.451 87.451 0 0 1-1 5c-.344 2.332-.68 4.665-1 7h2v2c-3.239-1.444-5.62-3.258-8.25-5.625l-2.14-1.914L202 188l2-4h2v-2h2l.348-1.586c.836-3.093 1.968-6.038 3.09-9.039 6.522-18.176 6.942-37.473-.938-55.375-2.849-6.765-2.849-6.765-8.188-11.188-4.35.247-6.133 2.034-9.41 4.75-2.243 1.696-4.1 2.263-6.902 2.438v2c-3.56-.305-5-1-7.813-3.313C176 108 176 108 176 104l2-1c-5.718-3.796-10.676-4.922-17.438-5.75l-2.794-.379c-2.255-.304-4.51-.594-6.768-.871v-2h-4v-2c5.273.445 10.018 1.084 15 3l1-3h6l-2-5 2.438-.875c2.695-.858 2.695-.858 3.562-3.125 6.75.875 6.75.875 9 2v2l2.438.063c5.704 1.5 10.165 5.408 14.195 9.66 1.322 1.517 1.322 1.517 3.554 1.34 4.97-1.878 8.819-5.47 12.934-8.758C217 88 217 88 219 88v-4h-2l-1-2-3-1c-1.688-2.563-1.688-2.563-3-5Z" fill="#2DC6F6"/><path d="M147 28c11.771-.567 22.53 1.553 34 4v2l3.125.313C188.005 35 190.55 36.164 194 38l3.188 1c2.754.98 3.99 1.773 5.812 4-4.754-1.148-9.379-2.383-14-4v2c-8.404 1.093-15.068 1.17-23-2l1 3 5 1a56.54 56.54 0 0 1-7 4c2.791 1.209 2.791 1.209 6 2a89.261 89.261 0 0 0 4-2c2.25.875 2.25.875 4 2v-2h2l1 7 6 2-1 2h6l-3 1v2h5l1 4h2v2l4 1-2 1-3-1v-2h-4v-2h-3a323.79 323.79 0 0 1-3-3c-12.619-6.2-26.14-8.115-40-9V28Z" fill="#3FDFEF"/><path d="m102 122 1 6h-2c-.118 3.77-.188 7.54-.25 11.313l-.102 3.189c-.083 6.789.864 12.067 3.486 18.342C105 163 105 163 105 165h-2l-1 2c-4.628 1.006-8.434 1.26-13 0l-1-4 .125 3.875c.07 2.18.07 2.18-.125 4.125l-2 2-1-1-1 2c-2.406-7.047-4.228-13.461-4.625-20.938l-.117-2.072A711.944 711.944 0 0 1 79 146l2.418-.773c3-1.055 3-1.055 3.894-4.852L86 137h4l1-15c4.199-1.05 6.794-.728 11 0Z" fill="#2CC6F6"/><path d="M212 167c1 2 1 2 .004 5.04l-1.441 3.585-1.434 3.602L208 182h-2v2h-2l-1 4 1.75 1.426 2.25 1.887 2.25 1.863C211 195 211 195 211 198l1.875.313C215 199 215 199 217 202c-.097 3.705-.977 4.974-3.438 7.813C211 212 211 212 209 212v2h-2l-.191 1.766c-1.143 3.158-2.988 4.132-5.746 5.984l-2.715 1.86C196 225 196 225 194 225v2l-6 1 1.938-1.313c2.33-1.6 2.33-1.6 3.062-4.687h-2v-2l5 2v-2h2l1-4 4-1-1-2-3-1-1 4h-8l-.438-2.313c-.525-2.769-.525-2.769-1.562-5.687-3.512-1.23-3.512-1.23-7-2l2-1v-2h4l.688-1.875c1.691-2.74 3.304-3.175 6.312-4.125v-2c3.462-3 3.462-3 6-3-1.302-4.08-1.302-4.08-3-8v-5a54.922 54.922 0 0 0-1-4h-3l2-4h3l2 9 4-1 1-3v3c3.125-1.635 3.125-1.635 3.688-4.125L209 173l-3 1v-3h5l1-4Z" fill="#222431"/><path d="m103 62 2 1-1.5 1.875c-1.692 1.964-1.692 1.964-1.5 4.125h2v8l-2.555-.07-3.32-.055-3.305-.07c-2.957-.106-2.957-.106-4.82 2.195a88.406 88.406 0 0 0 1 5l-1 1a235.648 235.648 0 0 0-1 7l-2.52-.176-3.293-.136-3.269-.176L77 92c-1.798 2.44-1.798 2.44-3 5h-2a88.406 88.406 0 0 0-1 5l1 1 2-5 2 1c-.49 4.408-1.824 6.011-5 9l-1.5 2.5c-1.557 2.595-3.293 4.446-5.5 6.5-2-1-2-1-3-2h-2l1-8h2l.313-1.75c.796-2.607 1.878-4.224 3.687-6.25h2l.313-1.688c1.015-3.417 2.602-6.272 5.187-8.75 1.7-1.597 1.7-1.597 2.75-4.312C81.49 74.52 93.02 66.247 103 62Z" fill="#1694F4"/><path d="m87 162 2 1v4c2.416.167 2.416.167 5 0l2-2v3l4-3v2h2l1-4v2h3l2 5h2l1.188 2.063c2.076 3.365 4.537 5.77 7.386 8.484C120 182 120 182 120 183h-5v-3c-1.708-.837-1.708-.837-4-1-2.893 1.41-2.893 1.41-5.75 3.438l-2.984 1.996L100 186l1 4h-2v2h2v2l1.813.375C105 195 105 195 108 197v2h-2l-1 2c-4.509-3.664-8.554-7.3-12-12v-3l-1.75-.063c-2.915-1.214-3.979-3.01-5.434-5.75-1.47-3.94-1.648-8.015-1.816-12.187l3 3v-9Z" fill="#33D5F9"/><path d="M211 196c2.786.904 4.72 1.74 6.875 3.75 1.53 3.06.937 5.002.125 8.25l-3 1v4h-3c-.923 3.473-.923 3.473-.375 6.938.59 3.242-1.051 5.292-2.625 8.062h2v2h3l1 2c3.03.658 3.03.658 6 1v2h-2v2c-2.639 1.783-4.972 2.99-8 4v2c-2.812.937-4.587 1.135-7.5 1.125l-2.344.008C199 244 199 244 196 243v2h-2v-4h2v-3l-5-1v-3h5v-2h-2v-2h-4v-2l4-1v-2c1.863-1.438 1.863-1.438 4.313-3l2.425-1.563L203 219c3.248-1.722 3.248-1.722 4-5h2v-2l2.938-2.313c2.265-1.815 2.997-2.517 4.062-5.312.22-2.647.22-2.647-2-5.375l-3-1v-2Z" fill="#1FA0F8"/><path d="M31 145h23l.063 9.5.027 2.943c.017 5.283-.315 10.33-1.09 15.557l-2-2v-3h-7l-1 2v-2h-2l-1-2c-3.167 1.833-3.167 1.833-5 5v-8h-2a382.852 382.852 0 0 1-1-4.5l-.563-2.531C31 153 31 153 31 145Z" fill="#1994F8"/><path d="M190 228v2h4v2h2v2h-5v3l5 1v3h-2v4h2v-2l9 1c-1 3-1 3-2.602 4.063-2.13.986-4.262 1.965-6.398 2.937l-3.25 1.75c-5.27 1.757-10.246 1.494-15.75 1.25l1-2h3v-3l-4-1 3.375-.375c3.656-.272 3.656-.272 5.625-2.625l-8-3 3-1v-2h2v-2c-3.487-1.594-6.157-2.405-10-2l-3 2v2c-4.659.025-9.318.043-13.977.055-1.58.005-3.162.012-4.742.02-8.5.046-16.832 0-25.281-1.075v-2h-5v-2l9 1v2c3.91-.095 7.82-.201 11.731-.317 1.968-.057 3.937-.104 5.906-.152 12.694-.386 25.21-1.444 36.468-7.726C186 228 186 228 190 228Z" fill="#1D95F1"/><path d="M58 116h1c.234 4.373.312 7.708-1.438 11.75-2.227 5.254-2.24 10.6-2.562 16.25h22v1H55l.438 6.375c.08 1.183.162 2.367.246 3.586.127 2.954.127 2.954 1.316 5.039.04 2.333.043 4.667 0 7l-4 1 1-23H31l2 18h2l1 5 5-3v3l8-1v11l-5 1-1 4h-3v2h2v7c-2.957-3.416-4.309-7.143-5.688-11.375l-.681-1.96C34.3 174.653 33.759 171.214 34 167h-2c-1.719-7.796-2.188-15.017-2-23l23-1 .25-5.063c.608-7.595 2.612-14.658 4.75-21.937Z" fill="#1888F2"/><path d="m118 239 3 2-1 5-1.938.313L116 247l-1 3 6 1v5c.957.09.957.09 1.934.184l2.504.253 2.496.247C130 257 130 257 131 258c7.839 1.197 15.78 1.125 23.688 1.063l3.318-.014c2.665-.012 5.33-.028 7.994-.049v-2l1.898-.148 2.477-.227 2.46-.21c2.368-.244 2.368-.244 4.165-2.415 2.164-.195 2.164-.195 4.625-.125l2.477.055L186 254c-1 2-1 2-4.027 3.035a316.48 316.48 0 0 1-3.91 1.027l-3.84 1.036C154.362 263.72 130.207 262.612 111 256l-2.363-.719c-4.99-1.543-9.191-3.538-13.637-6.281 2.594-2.13 4.635-3.536 8-4l1 1c2.328.368 4.662.702 7 1v-2l2.375-.75c2.948-1.404 3.527-2.257 4.625-5.25Z" fill="#197BF8"/><path d="m64 188 2 1v2h2l1.023 1.934 1.352 2.504 1.336 2.496c1.123 2.2 1.123 2.2 3.289 3.066v4h2v2l1.797.8c2.283 1.244 3.677 2.504 5.453 4.387.612.62 1.225 1.24 1.855 1.88a288.238 288.238 0 0 1 3.633 3.773c5.133 5.023 10.633 6.986 17.383 9.02L110 228l1 3h6v2l3 1h-7v-2h-5v-2h-3v-2H95v-2h-4v-4h-2v-2l-6-1v3h-2v-3l-2.313 1.063C76 221 76 221 73 220v-6h-2v-3l3 1 1-3-4 1-1-3h3c-1.208-4.43-2.517-6.981-6-10l-2 1 1 2h-4v-4h2v-8Z" fill="#1385F9"/><path d="m210 114 5 1 1 14h2v23h2l-1 10-3 1 1 2h3v2h3v5l-2 1v-5h-2l-.375 2.375C218 173 218 173 216 175c-.648 2.57-.648 2.57-1 5h-2l1 3a87.451 87.451 0 0 1-1 5c-.344 2.332-.68 4.665-1 7h2v2c-3.239-1.444-5.62-3.258-8.25-5.625l-2.14-1.914L202 188l2-4h2v-2h2l.348-1.586c.836-3.093 1.968-6.038 3.09-9.039 6.879-19.17 6.347-38.468-1.438-57.375Z" fill="#29B3F0"/><path d="M147 52v22h-1v-7h-5l-1-4-4 1v-2h3v-2l-3.125.563c-6.292.817-12.587.011-18.875-.563v2h-12c3.195-3.195 4.902-3.833 9.125-5.125 3.73-.908 3.73-.908 6.875-2.875 8.694-1.873 17.135-2.195 26-2Z" fill="#1B9CF4"/><path d="M99 196c1.94 1.098 3.878 2.204 5.813 3.313l3.269 1.863C111 203 111 203 112.562 204.594c1.974 1.93 4.056 2.626 6.626 3.594l2.73 1.042L124 210c-1.813.625-1.813.625-4 1l-3-2c-2.057-.24-2.057-.24-4.188-.125L109 209v-5h-3v-2l-5-1v2l1.938.313L105 204l1 3h-2v2h-2v2l4-1v4c-5.152.09-9.92-.153-15-1v2h2v2h2l.25 1.875c.563 2.31.563 2.31 2.813 3.375L100 223c-1.757.699-1.757.699-4 1-1.923-1.263-1.923-1.263-3.89-3.184l-2.15-2.06-2.21-2.194-2.258-2.181A649.56 649.56 0 0 1 80 209l2-2c.4-2.323.74-4.657 1-7h2v3h-2v3l6-2v5l4-1 1-4h4l-1-5 2-1v-2Z" fill="#242330"/><path d="M180.813 235.375 183 237v2h-2v2l-2 1 10 3-8 4v3l-3 1-1.125 2.063C175 257 175 257 172.809 257.262A96.093 96.093 0 0 1 166 257c0-3 0-3 1.5-4.688L169 251l-1.5-1.313C166 248 166 248 166 245l4-1c-3.162-2.108-4.507-2.338-8.188-2.625l-2.73-.227L157 241l1-2h12v-2l-3-1c5.177-1.926 8.707-3.12 13.813-.625Z" fill="#1692F9"/><path d="M210 76c2.938.375 2.938.375 6 1l1 2h2v3h2v8l-2.938.875c-3.169.767-3.169.767-4.062 3.125h-2c-.027 2.146-.046 4.292-.063 6.438l-.035 3.62c-.241 2.83-.241 2.83 1.098 3.942.141 2.67.042 5.324 0 8l-1-2h-2c-1.078-1.715-1.078-1.715-2.25-3.938-1.775-2.903-2.431-3.906-5.563-5.437-4.162.49-6.116 2.31-9.285 4.938-2.243 1.695-4.1 2.262-6.902 2.437v2h-3l-.375-1.938L182 110l-2-1 8-1 .5-2.313c1.972-3.533 3.874-3.887 7.625-5.011 2.084-.601 2.084-.601 3.875-2.676l2.125-.25c5.127-1.338 8.914-5.183 12.996-8.445C217 88 217 88 219 88v-4h-2l-1-2-3-1c-1.688-2.563-1.688-2.563-3-5Z" fill="#38D9EC"/><path d="M80 85c3.87.573 6.152 2.39 9 5v2l-2.52-.176-3.293-.136-3.269-.176L77 92c-1.798 2.44-1.798 2.44-3 5h-2a88.406 88.406 0 0 0-1 5l1 1 2-5 2 1c-.49 4.408-1.824 6.011-5 9l-1.5 2.5c-1.557 2.595-3.293 4.446-5.5 6.5-2-1-2-1-3-2h-2l1-8h2l.313-1.75c.796-2.607 1.878-4.224 3.687-6.25h2l.438-1.813c.45-1.749.99-3.474 1.562-5.187 3.563-1.188 3.563-1.188 7-2v-3h3v-2Z" fill="#1A9BF9"/><path d="M62 167h2v4h2l1-4h4v4h-2c-.125 5.578-.125 5.578 1 11h-2l2 6h2l.25-2.313C73 183 73 183 75 181.563c2.333-1.486 2.333-1.486 2.75-4.75L78 174l2 1 2-2 1 4h-2l.188 2.813C81 183 81 183 79.561 184.625L78 186c-.714 2.103-.714 2.103-1 4l2 1a158.814 158.814 0 0 1-5 6h-2l.5-2.313c.591-2.723.591-2.723.5-5.687l-1 3c-2.063.688-2.063.688-4 1l-1-7h-2v-3h-2c-2.547-4.775-2.42-9.72-2-15l1-1Z" fill="#27222D"/><path d="M31 145h23v8h-4v6l-3-2c-.188-2.625-.188-2.625 0-5h2v-6h-9v6h-2l1 9h1c.188 2.375.188 2.375 0 5l-3 2-2 3v-8h-2a382.852 382.852 0 0 1-1-4.5l-.563-2.531C31 153 31 153 31 145Z" fill="#1B90F7"/><path d="M188 89c8.387 4.516 8.387 4.516 11 8-.406 2.125-.406 2.125-1 4l-3.875.625c-2.203.46-2.203.46-4.125 1.375-1.611 2.994-1.611 2.994-2 6l-6 1 1 4a197.99 197.99 0 0 1-3.5-2.75c-.65-.51-1.3-1.02-1.969-1.547C176 108 176 108 176 104l6-1v-2h3l1-5h2v-2l-2-1 2-4Z" fill="#2DCDF4"/><path d="m127 93 1 3h4v-2h4v2l2.438-.5c7.497-1.052 14.278-.367 21.707 1.008 2.392.412 4.688.643 7.105.805 4.73.867 7.894 2.908 11.75 5.687l-3 1 1 5h-2v-2l-1.688-.313c-2.789-.829-4.926-2.03-7.312-3.687v-2c-8.011-1.781-15.562-2.225-23.75-2.063-13.028.21-13.028.21-19.25-.937v-3l-2-1 6-1Z" fill="#22B0EA"/><path d="M183 175c2.939.507 5.516 1.344 8 3l1 2.563 1 2.437c1.936.672 1.936.672 4 1 2.397 1.712 2.925 2.573 3.438 5.5-.438 2.5-.438 2.5-2.313 4.313C196 195 196 195 194 195v2a374.925 374.925 0 0 1-6 4l-1 2c-2-1-2-1-4-4-2.06-.724-2.06-.724-4-1l1-3 9 1v-3h-2v-5h2l1 4h4v-6l-3-1v-2h-2v-3h-9c2-4 2-4 3-5Z" fill="#3DF0F4"/><path d="m168 104 7 3v2l1.813.313c2.51.788 3.357 1.857 5.187 3.687 2.103.714 2.103.714 4 1v-2l1.574-.734c3.403-1.636 6.195-3.063 9.051-5.579C199 104 199 104 202 103.814c4.199 1.661 5.944 4.249 8 8.187.813 2.938.813 2.938 1 5l-3-2-3 1-1-6h-2v3h-4l-1-3h-3l-1 3c-1.938.75-1.938.75-4 1l-2-1v2h-7l-1 5h-2v2h-3v-2l2-1v-6h2v-2h-4v-3h-4v-2h-2v-2Z" fill="#242733"/><path d="M241 80h2c1.875 2.195 1.875 2.195 4 5.125l2.125 2.883c1.861 2.97 2.889 5.645 3.875 8.992l1 2c.04 2 .043 4 0 6-3 0-3 0-5-1l-1-3-.813 2.438L246 106l-3 1v-8h2l-2-7h-2V80Z" fill="#37ECF6"/><path d="m173 47 6 2v-2h2l1 7 6 2-1 2h6l-3 1v2h5l1 4h2v2l4 1-2 1-3-1v-2h-4v-2h-3a323.79 323.79 0 0 1-3-3c-8.54-4.195-17.712-6.243-27-8v-1h6v-2l2.375-.375c2.766-.416 2.766-.416 4.625-2.625Z" fill="#3DE7F4"/><path d="M99 122a676.22 676.22 0 0 1-.875 5.25l-.492 2.953c-.582 2.57-1.341 4.518-2.633 6.797h-3l.688 3.813c.285 2.222.285 2.222.312 4.187-1.375 1.75-1.375 1.75-3 3-.714 2.103-.714 2.103-1 4h-3c-1.882-5.959-2.197-9.142 0-15h4l1-15c3.702-.925 4.635-1.082 8 0Z" fill="#2ABAF9"/><path d="m148 19-1 8 3.664-.219c9.795-.563 19.522-.925 29.336-.781l-2 3 3 2c-6.353.217-12.1-.08-18.297-1.488C157.52 28.53 152.26 28.336 147 28v24h-11v-1h10c-.14-3.25-.288-6.5-.438-9.75l-.119-2.79-.127-2.694-.11-2.476c-.137-2.284-.137-2.284-.788-4.4C144 27 144 27 145 24l-4 2c-1.5-1.313-1.5-1.313-3-3v-3l1.813-.438c5.574-1.433 5.574-1.433 8.187-.562Z" fill="#242F43"/><path d="M95 194h2v2h2l1 3-2 1v4h-4l-1 5h-4v-5l-3 2h-3v-3h2v-3h-2v9l-3-1c-1.188-3.063-1.188-3.063-2-6l2-1v-5l4-1 1 4h4v-2l2.438-.938c2.453-.825 2.453-.825 3.562-2.062Z" fill="#281F29"/><path d="m179 179 10 1v3l6 2-1 7h-4l-1-4h-2v4h-5v-2l-2.313.563C177 191 177 191 174 190v-4l7-2v-2l-3-1 1-2Z" fill="#48ECF9"/><path d="M212 167c1 2 1 2 .004 5.04l-1.441 3.585-1.434 3.602L208 182h-2v2h-2c-.772 1.837-.772 1.837-1 4 1.417 1.583 1.417 1.583 3 3v3c-2.892.826-4.887 1-8 1-2.2.933-2.2.933-4 2v-2c3.462-3 3.462-3 6-3-1.302-4.08-1.302-4.08-3-8v-5a54.922 54.922 0 0 0-1-4h-3l2-4h3l2 9 4-1 1-3v3c3.125-1.635 3.125-1.635 3.688-4.125L209 173l-3 1v-3h5l1-4Z" fill="#24303C"/><path d="m80 209 2.938 2.5 1.96 1.652a78.965 78.965 0 0 1 4.079 3.852c5.487 5.416 10.907 7.738 18.18 9.89L110 228l1 3h6v2l3 1h-7v-2h-5v-2h-3v-2H95v-2h-4v-4h-2v-2l-6-1v3h-2v-3l-5 2 1-5 1 2c2.473-.344 2.473-.344 5-1l1-2-4-1v-5Z" fill="#1080E4"/><path d="M58 116h1c.234 4.373.312 7.708-1.438 11.75-2.227 5.254-2.24 10.6-2.562 16.25h22v1H55l.438 6.375c.08 1.183.162 2.367.246 3.586.127 2.954.127 2.954 1.316 5.039.04 2.333.043 4.667 0 7l-4 1 1-23H31c.653 4.622.653 4.622 1.316 9.242.589 4.285.774 8.437.684 12.758h-1c-1.719-7.796-2.188-15.017-2-23l23-1 .25-5.063c.608-7.595 2.612-14.658 4.75-21.937Z" fill="#225E8D"/><path d="m113 205 7 1v2l2.063.375c2.937.625 2.937.625 6.142 1.64 5.987 1.553 11.99 1.395 18.135 1.41 2.26.012 4.515.062 6.773.112 8.786.094 15.38-.844 23.459-4.556L179 206l2 1a515.114 515.114 0 0 1-5.875 2.875l-3.305 1.617c-12.02 5.152-30.328 6.269-42.832 2.528A62.116 62.116 0 0 1 121 210a533.2 533.2 0 0 0-4.75-2.313L113 206v-1Z" fill="#34A6AD"/><path d="M166 30c1.938.141 3.875.288 5.813.438l3.269.246C178 31 178 31 181 32v2l3.125.313C188.005 35 190.55 36.164 194 38l3.188 1c2.754.98 3.99 1.773 5.812 4-4.754-1.148-9.379-2.383-14-4v2h-4v-2h3v-2l-7 2v-2h-15l2-4h-2v-3Z" fill="#38F1F5"/><path d="M136 262h24v3l2.563-.188c4.048.221 6.728 1.59 10.437 3.188 2.676.508 5.28.761 8 1v2c-5.791 1.016-9.458.963-15-1v-2l-1.793.438c-4.132.97-7.93 1.838-12.207 1.562v-3h6v-2l-22-1v-2Z" fill="#281F24"/><path d="M109 254h12v2l1.934.184 2.504.253 2.496.247C130 257 130 257 131 258c7.839 1.197 15.78 1.125 23.688 1.063l3.318-.014c2.665-.012 5.33-.028 7.994-.049v-2l1.898-.148 2.477-.227c.812-.07 1.624-.14 2.46-.21 2.368-.244 2.368-.244 4.165-2.415 2.164-.195 2.164-.195 4.625-.125l2.477.055L186 254c-1 2-1 2-4.027 3.035a316.48 316.48 0 0 1-3.91 1.027l-3.84 1.036c-18.924 4.404-45.157 4.509-63.223-3.098l-2-2Z" fill="#1463B5"/><path d="m207 96 1 2h-2l-2 7-3.125.188c-3.654.766-4.444 1.003-7 3.312-2.855 2.483-4.193 3.175-7.875 3.5v2h-3l-.375-1.938L182 110l-2-1 8-1 .5-2.313c1.972-3.533 3.874-3.887 7.625-5.011 2.084-.601 2.084-.601 3.875-2.676 1.658-.373 3.326-.707 5-1l2-1Z" fill="#28D8EF"/><path d="M81 169c3.481 1.74 4.282 6.365 5.613 9.896 1.482 3.8 1.482 3.8 4.485 6.4L93 186c1.563 2.313 1.563 2.313 3 5l1.688 2.813L99 196h-2v-2l-9 1v-4l-3-1v-2h-2c-1.016-2.823-.943-4.342-.438-7.375.473-3.918-.132-6.007-1.562-9.625v-2Z" fill="#252233"/><path d="M147 52v22h-1v-7h-5l2-3h3V53c-7.806.245-7.806.245-14.938 3-5.001 2.882-10.407 2.812-16.062 3v2l-2.188-.063c-2.731.061-5.155.456-7.812 1.063 2.571-3.147 5.3-3.954 9.125-5.125 3.73-.908 3.73-.908 6.875-2.875 8.694-1.873 17.135-2.195 26-2Z" fill="#177EC7"/><path d="M180 232v2l-3.313.375c-3.76.38-3.76.38-6.687 2.625v2c-4.659.025-9.318.043-13.977.055-1.58.005-3.162.012-4.742.02-8.5.046-16.832 0-25.281-1.075v-2h-5v-2l9 1v2c3.91-.095 7.82-.201 11.731-.317 1.968-.057 3.937-.104 5.906-.152 10.83-.33 21.91-4.531 32.363-4.531Z" fill="#147ED6"/><path d="m210 114 5 1 1 14h2v23h2l-1 10-3 1v5h-2v3h-2l.875-2.875c.38-1.374.755-2.749 1.125-4.125l.578-2.023c3.938-16.034 1.635-32.889-4.578-47.977Z" fill="#2EB6CB"/><path d="m44 197 4 1 .938 3.313A169.836 169.836 0 0 0 51 208l2 1 1 3c3.503 1.716 3.503 1.716 7 3v7h2c1.86 1.968 3.534 4.056 5.246 6.152C69.96 230.248 69.96 230.248 73 231l-1-3h4a84.76 84.76 0 0 1-2 7l1.75.188c3.137 1.132 4.342 3.154 6.25 5.812-5.547-2.67-9.73-5.517-14-10l-2.563-2.563L63 226l-2.125-2c-1.875-2-1.875-2-3.2-4.316-2.416-3.87-5.607-6.861-8.812-10.086-2.237-3.12-2.24-4.842-1.863-8.598h-2l-1-4Z" fill="#0B76D5"/><path d="M254 183h2c-.508 5.966-2.386 10.638-5 16h-2l-.25 1.938c-1.033 4.218-2.511 8.325-4.75 12.062l-3 1-1 3h-2l-1 3-1-4 2-1 1-3h2l.34-2.168c.705-3.023 1.793-5.395 3.222-8.144.456-.884.91-1.767 1.38-2.676L247 197h2v-9h2v-2h2l1-3Z" fill="#23BBE8"/><path d="M260 169h1c.18 5.22-.03 9.073-2 14h-2l.063 3.438C257 190 257 190 256 191c-.02 1.375.009 2.75.063 4.125.062 4.363-.662 7.758-2.063 11.875h-2v-2h-3l-2 5h-3l1.938-3.25c1.468-2.558 2.59-4.803 3.062-7.75h2c1.95-5.619 3.632-11.211 5-17h2l-.125-2.563c.14-3.86.953-6.774 2.125-10.437Z" fill="#29273E"/><path d="m181 72 3 1v2h12l-1 4c.865 2.705.865 2.705 2 5h-3v-2h-2l1 5h-4v-5h2v-2h-3l-1 3c-2.063.688-2.063.688-4 1v-2h-3v-2c2.169.506 4 1 6 2v-2l-2-1c-1.306-2.305-2.159-4.476-3-7Z" fill="#1C242A"/><path d="M147 92c5.273.445 10.018 1.084 15 3l1-3h6v2l7 1v3c-1.625 1.125-1.625 1.125-4 2a124.952 124.952 0 0 1-6-2c-2.266-.342-4.527-.565-6.809-.781-2.755-.275-5.467-.73-8.191-1.219v-2h-4v-2Z" fill="#30BFFA"/><path d="M268 114h2c.568 12.02.568 12.02-3 16h-2v30h-2c-.05-5.054-.086-10.107-.11-15.161-.01-1.719-.024-3.438-.04-5.156-.025-2.473-.036-4.945-.045-7.417l-.032-2.324c-.001-6.847-.001-6.847 2.227-9.942l2-1c.656-2.527.656-2.527 1-5Z" fill="#272F41"/><path d="M211 196c2.786.904 4.72 1.74 6.875 3.75 1.53 3.06.937 5.002.125 8.25l-3 1v4h-3l-.188 2.125c-1.128 3.994-2.755 6.084-5.812 8.875-3.813-.125-3.813-.125-7-1 4.75-4.875 4.75-4.875 7-6l1-3h2v-2l2.938-2.313c2.265-1.815 2.997-2.517 4.062-5.312.22-2.647.22-2.647-2-5.375l-3-1v-2Z" fill="#1AA4E8"/><path d="M74 186c1.136 3.41.867 4.003-.438 7.188l-.87 2.167L72 197h2l.75-1.875c1.456-2.476 2.628-3.076 5.25-4.125l-.5 1.875c-.576 2.086-.576 2.086-.5 4.125l2 1-.563 1.875c-.674 2.167-.674 2.167.563 4.125h-2l1 4-3-1v-2h-2v-4l-1.813-.625c-2.997-1.884-3.8-4.186-5.187-7.375l4-1 .438-1.875C73 188 73 188 74 186Z" fill="#22283A"/><path d="M55 145h22v2H56c.609 3.043 1.224 6.006 2 9l1-3h2l-.465 3.004c-.567 3.968-.85 7.932-1.097 11.934l-.131 2.072A2055.19 2055.19 0 0 0 59 175c-1.898-3.242-2.326-5.896-2.563-9.625-.18-3.832-.18-3.832-1.437-7.375-.14-4.336-.043-8.66 0-13Z" fill="#2A323E"/><path d="m176 171 1 2h2v2h3v-2l5 1-1 2-1.688.313c-2.83.84-4.408 2.488-6.593 4.406-3.013 2.245-6.131 3.205-9.719 4.281l-2-1v-3l3-1 1-3 1.938-.938c2.517-1.296 3.03-2.484 4.062-5.062Z" fill="#233F49"/><path d="M81 137h4v7l-5 2c.115 2.355.242 4.708.375 7.063.07 1.31.14 2.621.21 3.972.305 2.915.674 5.105 1.517 7.836C83 168 83 168 82 170c-3.986-8.877-5.288-16.247-5-26h-2v-3h2l1 2 3 1v-7Z" fill="#2AB5EC"/><path d="M79 232h2v3l6 2 1-3v3h3l-.063 2.375c-.124 2.606-.124 2.606 1.063 4.625l-1 2h3v2c-5.144-1.328-8.047-3.484-11.875-7.125l-1.508-1.418A432.078 432.078 0 0 1 77 236l2-4Z" fill="#0A7CE7"/><path d="m227 228 4 1-1 4h-3v3h-2l-1 3v-2l-5 1v3c-4.241 2.276-8.302 3.916-13 5l-2-1c2.647-1.46 3.894-2 7-2v-2c4.353-4 4.353-4 8-4v-2h2v-2c3.462-3 3.462-3 6-3v-2Z" fill="#2D284B"/><path d="M31 145h23v8h-4v6l-3-2c-.188-2.625-.188-2.625 0-5h2v-6H33v14h-1c-.874-5.244-1-9.483-1-15Z" fill="#1C88DB"/><path d="M163 99c1.703 1.543 1.703 1.543 3 3l-2.659-.124c-3.276-.146-6.552-.283-9.829-.413a668.41 668.41 0 0 1-4.242-.187c-2.04-.095-4.08-.175-6.122-.253l-3.713-.158c-3.52.138-6.136.978-9.435 2.135l-2-1 4-1v-2c9.996-1.632 21.052-2.104 31 0Z" fill="#2F3E5F"/><path d="m121 259 2.686.217c9.768.727 19.46.905 29.251.846 1.474-.006 2.947-.01 4.42-.014 3.548-.011 7.095-.028 10.643-.049l-2 1v2h9v1l-15 1v-3c-.826.01-1.652.02-2.503.032-3.113.034-6.225.06-9.338.078-1.99.015-3.981.04-5.971.066-7.32.037-14.09-.32-21.188-2.176v-1Z" fill="#24314E"/><path d="M181 182v2c-3 2-3 2-7 2v4l4 1-1 4h-3v-3l-5-1 1-4-4 1v-2a273.618 273.618 0 0 1 4.688-2.563l2.636-1.44c3.06-1.14 4.595-.924 7.676.003Z" fill="#3AF3F8"/><path d="m180 26-2 3 3 2c-6.353.217-12.1-.08-18.297-1.488-5.178-.98-10.449-1.2-15.703-1.512v-1c11.016-.658 21.96-1.162 33-1Z" fill="#2D2B3C"/><path d="m250 183 2 3-1 2h-2l1 10-3-1-.313 1.813c-.776 2.47-1.758 3.51-3.687 5.187-2-3-2-3-2-7a103.49 103.49 0 0 1 3-3v-3h2l.875-2.313C248 186 248 186 250 183Z" fill="#2EB9FA"/><path d="M120 182c3.655.555 6.031 1.5 9.09 3.543 5.463 3.148 10.302 3.035 16.472 2.77l3.057-.069c2.462-.058 4.92-.14 7.381-.244v-1h10c-8.212 4.106-14.902 4.315-24 4l-2.676-.02c-7.026-.302-12.555-3.033-18.324-6.98l-1-2Z" fill="#2D4357"/><path d="M163 97c6.635.355 10.632 2.131 16 6l-3 1 1 5h-2v-2l-1.688-.313c-2.789-.829-4.926-2.03-7.312-3.687v-2l-3-1v-3Z" fill="#36C0F3"/><path d="M231 64c1.173.951 2.338 1.911 3.5 2.875l1.969 1.617L238 70v2h2c1.783 2.639 2.99 4.972 4 8 2.015.733 2.015.733 4 1l1 7c-4.784-4.526-4.784-4.526-6.25-7.75-1.51-2.439-1.51-2.439-3.898-2.715a83.174 83.174 0 0 0-4.891-.297L232 77l-1-2c1-2 1-2 4-3l-1.438-2.313C232 67 232 67 231 64Z" fill="#3ED0D6"/><path d="m192 197 2 1-1 4h-4v5h2v2h3v2h-2v2h6v3h-8l-.438-2.313c-.525-2.769-.525-2.769-1.562-5.687-3.512-1.23-3.512-1.23-7-2l2-1v-2h4l.813-1.875C189 199 189 199 192 197Z" fill="#2C2531"/><path d="m222 49 3 1h-2l2 2 1-2h2v7l4 1 1 7c-4.246-2.187-7.196-5.058-10.45-8.477-1.492-1.622-1.492-1.622-3.55-2.523.375-1.938.375-1.938 1-4l2-1Z" fill="#243442"/><path d="m179 201 4 2v2a974.418 974.418 0 0 1-8.25 3.563l-2.355 1.037-2.286.966-2.094.905c-2.366.621-3.725.304-6.015-.471l2.875-.625c3.417-1.083 3.417-1.083 4.5-4.5L170 203h9v-2Z" fill="#3DE8EA"/><path d="M186 171h5l1 4h4c1.858 3.135 2.201 5.375 2 9-2.375-.188-2.375-.188-5-1a124.97 124.97 0 0 1-2-5c-2.041-.887-2.041-.887-4-1v-3l-2-1 1-2Z" fill="#1C2A2D"/><path d="M166 79c8.137.271 13.932 3.09 21 7l-1 2-4-1v-2l-9-2-2 4h-5l.563-2.313c.665-2.777.665-2.777-.563-5.687Z" fill="#28BAF0"/><path d="M220 165v2h3v5l-2 1v-5h-2l-.188 2.188c-1.072 3.712-2.91 5.324-5.812 7.812l-3 1c.875-5.75.875-5.75 2-8h2v-3c2.06-2.649 2.52-3 6-3Z" fill="#29C2F9"/><path d="M188 65h3v2h3v2l1.875.438C198 70 198 70 200 71v2h4v2l-4 1v-2h-4v-2c-4.041-.634-7.907-1.124-12-1v-3h3l1-3Z" fill="#172B29"/><path d="m106.688 246.438 2.449.87L111 248l-1 2h-4v3l3 1c-5.979.747-9.324-1.677-14-5 4.251-3.372 6.493-4.445 11.688-2.563Z" fill="#1B7BED"/><path d="M105 165c1.5 1.375 1.5 1.375 3 3v2h2l1.188 2.063c2.076 3.365 4.537 5.77 7.386 8.484C120 182 120 182 120 183h-5v-3h-2l-.875-1.938c-.953-2.214-.953-2.214-3.125-3.062v2h-2l-1 2c-.936-3.155-1.106-5.966-1.063-9.25l.028-2.703L105 165Z" fill="#33C3DB"/><path d="m168 104 7 3v2l1.813.313c2.51.788 3.357 1.857 5.187 3.687 2.103.714 2.103.714 4 1v-2l3-1v2h-2v2h-7l-1 5h-2v2h-3v-2l2-1v-6h2v-2h-4v-3h-4v-2h-2v-2Z" fill="#27354C"/><path d="M259 118h1c1.891 7.614 2.249 14.802 2.125 22.625l-.027 3.332A1198.23 1198.23 0 0 1 262 152l-2 1-.06-2.2a2348.92 2348.92 0 0 0-.315-9.925l-.094-3.46-.117-3.36-.095-3.079c-.345-3.218-1.195-5.95-2.319-8.976h2v-4Z" fill="#37E1F9"/><path d="m103 62 2 1-1.5 1.875c-1.692 1.964-1.692 1.964-1.5 4.125h2v2l-10-1-1 3-6 1c3.819-5.645 9.54-9.846 16-12Z" fill="#1680CA"/><path d="M210 76c2.938.375 2.938.375 6 1l1 2h2v3h2v8l-2.938.875c-3.169.767-3.169.767-4.062 3.125h-2v2l-4-1a790.547 790.547 0 0 1 4.375-3.5l2.46-1.969C217 88 217 88 219 88v-4h-2l-1-2-3-1c-1.688-2.563-1.688-2.563-3-5Z" fill="#35BDC6"/><path d="m199 212 4 1v2l-1.938.813c-2.393 1.074-2.393 1.074-3.062 4.187h-2v2l-5-2v2h-6l-1-3c2.882-.96 4.699-1.106 7.688-1.063l2.449.028L196 218v-2h2l1-4Z" fill="#172829"/><path d="m85 74 2 1-1.375 2.25A89.434 89.434 0 0 0 82 84h-2v3h-3v3h-2l-1 2-3-1 1.813-1.625c2.31-2.268 2.31-2.268 3.5-5.188C78.522 80.013 81.56 77.186 85 74Z" fill="#1191DA"/><path d="M166 189c-3.435 2.29-4.985 2.178-9 2v2c-2.896.054-5.791.094-8.688.125l-2.474.05c-4.409.036-7.825-.1-11.838-2.175v-1c.6.01 1.199.02 1.817.032 2.748.042 5.497.067 8.245.093.943.017 1.886.034 2.858.05 5.809.041 13.941-3.23 19.08-1.175Z" fill="#37C3C5"/><path d="M189 98h10l-1 3c-1.777.52-1.777.52-3.938.813-2.167.38-2.167.38-4.062 1.187-1.611 2.994-1.611 2.994-2 6h-3c-.188-2.313-.188-2.313 0-5 1.438-1.625 1.438-1.625 3-3l1-3Z" fill="#3AD1FB"/><path d="m121 234 9 1v2l36-1v1c-4.702.93-9.248 1.132-14.023 1.098l-2.262-.005c-2.363-.005-4.727-.018-7.09-.03-1.61-.006-3.221-.01-4.832-.014A4635.95 4635.95 0 0 1 126 238v-2h-5v-2Z" fill="#1C60A0"/><path d="M59 221c3.822.538 5.196 2.036 7.563 5 2.608 3.317 2.608 3.317 6.437 5l-1-3h4a84.76 84.76 0 0 1-2 7l1.75.188c3.137 1.132 4.342 3.154 6.25 5.812-5.547-2.67-9.73-5.517-14-10l-2.563-2.5c-2.328-2.389-4.4-4.86-6.437-7.5Z" fill="#185FB3"/><path d="M183 175c2.939.507 5.516 1.344 8 3l1 2.563 1 2.437c2.041.887 2.041.887 4 1-2.076.553-3.844 1-6 1v-2h-2v-3h-9c2-4 2-4 3-5Z" fill="#32DEDE"/><path d="m135 57 1 3c-4.246 1.096-7.96.929-12.313.563l-3.8-.31L117 60v2h-8l1-2 5 1v-2c2.208-.339 4.416-.67 6.625-1l3.727-.563A65.914 65.914 0 0 1 135 57Z" fill="#2293F7"/><path d="m94 199 4 1v4h-4l-1 5h-4v-9h2v3h2l1-4Z" fill="#1A262E"/><path d="m64 188 2 1v2h2l1.023 1.934 1.352 2.504 1.336 2.496c1.123 2.2 1.123 2.2 3.289 3.066v2c-3.366-1.443-5.51-3.333-8-6l-2 1 1 2h-4v-4h2v-8Z" fill="#1677D5"/><path d="M217 152h3l-1 10-3 1v5h-2v3h-2l.875-2.875c1.14-3.951 1.911-7.947 2.66-11.988C216 154 216 154 217 152Z" fill="#29AFD2"/><path d="M132 218h19v3c-2.792.027-5.583.047-8.375.063l-2.406.025c-5.992.025-5.992.025-8.219-1.088v-2Z" fill="#2A1F39"/><path d="M196 72v2l4 1-1 2h-3v-2h-12v-3c4.553-2.483 7.225-1.685 12 0Z" fill="#2C1D32"/><path d="M93 188h4v2h2v2h2v2l1.813.375C105 195 105 195 108 197v2h-2l-1 2c-4.93-3.878-8.542-7.761-12-13Z" fill="#33E4EE"/><path d="M32 183c2 0 2 0 3.625 1.25C37 186 37 186 37 190h2v8h-2l-1-6h-2l-1 4h-1c-.076-2.674 0-5 .563-7.625.66-2.511.66-2.511-.563-5.375Z" fill="#1C2527"/><path d="M241 80c2 0 2 0 4.063 2 2.485 3.848 2.63 6.467 2.937 11l-3-1v-2l-4-1v-9Z" fill="#43EAF4"/><path d="m94 70 9 1 2 5c-3.553 1.15-4.8 1.087-8.313-.438L94 74v-4Z" fill="#2392F9"/><path d="M160 53c10.568.64 19.282 4.003 29 8v1h-5v-2c-1.75-.169-3.5-.335-5.25-.5l-2.953-.281c-2.26-.177-4.53-.219-6.797-.219v-4h-9v-2Z" fill="#2E4056"/><path d="m52 213 6 5c-3 0-3 0-6-2l2 3c-.291 3.787-1.361 6.26-4 9h-3v-3h2l2-7h-2v-3h3v-2Z" fill="#1F2C41"/><path d="M101 198c9.615 4.615 9.615 4.615 13 8a100.91 100.91 0 0 0 5.125 2.125l2.758 1.07L124 210c-1.813.625-1.813.625-4 1l-3-2c-2.057-.24-2.057-.24-4.188-.125L109 209v-5h-3v-2l-6-1 1-3Z" fill="#244756"/><path d="M42 174h1v9h-3v2h2v7c-2.648-3.13-4.005-6.02-5-10 .375-2.375.375-2.375 1-4l3 1 1-5Z" fill="#1984EA"/><path d="m152 66 4 2-4 2 9 2v2h-13c0-4 0-4 2-6.25l2-1.75Z" fill="#2B202C"/><path d="m199 245 5 1c-2.564 3.047-5.41 4.21-9.063 5.688l-3.222 1.324C189 254 189 254 187 254v-4l-2-1h4v2l3-1 1-2-3-1h9v-2Z" fill="#1686D5"/><path d="M211 196c2.786.904 4.72 1.74 6.875 3.75 1.53 3.06.937 5.002.125 8.25l-3 1v4l-8 3v-2h2v-2l2.938-2.313c2.265-1.815 2.997-2.517 4.062-5.312.22-2.647.22-2.647-2-5.375l-3-1v-2Z" fill="#207298"/><path d="m215 197 2.438.563L220 198l1-1c2-.04 4-.043 6 0v7l-2 1v-2l-2.188-.188c-3.659-1.057-5.304-3.018-7.812-5.812Z" fill="#23B7F1"/><path d="M53 133h1c.027 1.646.046 3.292.063 4.938l.035 2.777C54 143 54 143 53 144a76.273 76.273 0 0 1-4.691.098l-2.862-.01-3.01-.025-3.021-.014c-2.472-.012-4.944-.028-7.416-.049v-1h17v-6h2v2h2v-6Z" fill="#2B273A"/><path d="m207 96 1 2h-2l-2 7-3.125.188c-4.76.997-6.41 2.517-9.875 5.812l-2-1c2.035-4.07 6.922-5.485 11-7v-4l7-3Z" fill="#2A8494"/><path d="M53 197h2v2h2v-2h2l-1 3c-2.563 1.188-2.563 1.188-5 2l1 7c-1.875-.188-1.875-.188-4-1-1.25-2.563-1.25-2.563-2-5l1.938-1.313c2.33-1.6 2.33-1.6 3.062-4.687Z" fill="#177EF4"/><path d="M116 109c1 2 1 2 .063 5.125L115 117h4v3h-2v2h-3l-1-2-3-1c.613-2.962 1.254-4.38 3-7h2l1-3Z" fill="#292136"/><path d="M75 85v3l-1.813 1.75c-2.8 2.88-3.751 5.517-5.187 9.25h-2v-3h-2v-8h4v4h-2v3c2.21-.88 2.21-.88 3.375-3.313 1.615-2.67 3.35-4.57 5.625-6.687Z" fill="#243D61"/><path d="M180 237v2c-7.603 2.483-15.103 2.185-23 2l1-2c2.652-.379 2.652-.379 5.938-.563 5.66-.33 10.307-1.53 16.062-1.437Z" fill="#2496F7"/><path d="M73 203h2v2h2v2l3 1v3h-2v2h-3v-4l-4 1-1-3h3v-4Z" fill="#1184E8"/><path d="m220 173 2 4 2-2 3 3-1 3-1-2h-5v4l-5-1c1.498-3.112 3.2-6.053 5-9Z" fill="#23C1F9"/><path d="M197 109c1.125 3.75 1.125 3.75 0 6h-4v2l-7 1 1-5 2.938-.375L193 112l1-2 3-1Z" fill="#1A272A"/><path d="M204 105c3.326 2.982 5.292 5.864 7 10l-1 2-2-2-3 1-1-6-3 1-1-2 2-2v2h2v-4Z" fill="#2A384C"/><path d="M212 103c1.102 4.41 1.077 8.484 1 13l-1-2h-2c-4-5.412-4-5.412-4-8 2.1-2.6 2.517-3 6-3Z" fill="#2FD8E9"/><path d="M181 34c5.022.502 8.565 1.641 13 4l3.188 1c2.754.98 3.99 1.773 5.812 4-4.754-1.148-9.379-2.383-14-4v2h-4v-2h3l-1-2c-3.03-.658-3.03-.658-6-1v-2Z" fill="#35D7D8"/><path d="m87 234 1 3h3l-.063 2.375c-.124 2.606-.124 2.606 1.063 4.625l-1 2h3v2c-5.75-1.625-5.75-1.625-8-5h3l-2.5-1.875L84 239v-2h3v-3Z" fill="#1371DB"/><path d="m99 156 4 1 2 8h-2l-1 2h-2c-2.786-4.18-1.796-6.147-1-11Z" fill="#3ACAFB"/><path d="M215 132c2.698 4.047 2.342 7.121 2.313 11.875l-.004 2.562c-.11 7.183-1.23 13.668-3.309 20.563h-1l1-15h2l-1-20Z" fill="#264B63"/><path d="M100 122h2l1 6h-2l-3 9h-2c1.535-12.535 1.535-12.535 4-15Z" fill="#34B3F2"/><path d="M134 52h13v22h-1v-7h-5l2-3h3V53h-12v-1Z" fill="#258BDA"/><path d="M136 264c2.354-.027 4.708-.047 7.063-.063l3.972-.035c3.781.093 7.244.484 10.965 1.098v2l-22-1v-2Z" fill="#1B263E"/><path d="M199 186c2.755.38 3.82.807 5.75 2.875C206 191 206 191 206 194c-2.892.826-4.887 1-8 1-2.2.933-2.2.933-4 2v-2c3.462-3 3.462-3 6-3l-1-6Z" fill="#2F4D66"/><path d="M91 186h2c1.438 2.188 1.438 2.188 3 5l1.688 2.813L99 196h-2v-2l-9 1v-5h4l-1-4Z" fill="#273B4D"/><path d="M221 144h1l1 12h-2v8l-1.938.375L217 165l-1 2v-4l2-1c1.961-5.743 2.428-11.995 3-18Z" fill="#38C4FA"/><path d="M77 145h1v7h2l.148 1.723c.374 3.862.818 7.502 1.977 11.214C83 168 83 168 82 170c-3.825-8.518-5.305-15.636-5-25Z" fill="#2685A4"/><path d="M193 59h-3v2h5l1 4h2v2l4 1-2 1-3-1v-2h-4v-2h-3c-1.563-1.375-1.563-1.375-3-3l-2-2c3.053-.981 4.947-.981 8 0Z" fill="#39ACB9"/><path d="M262 164h1l.184 2.633.253 3.492.247 3.445c.293 3.184.747 6.285 1.316 9.43h-3l-1-3-2-2 1-1c.397-2.18.743-4.37 1.063-6.563l.535-3.628L262 164Z" fill="#1F2B39"/><path d="m180 211 7 2 2-2 1 4h6v3c-6.75.125-6.75.125-9-1v-2l-2.313.188C182 215 182 215 180.188 213.5L179 212l1-1Z" fill="#222326"/><path d="m217 200 1.75.938c2.18 1.14 2.18 1.14 4.438 1.5L225 203l1 3-3 1v2h-5l.063-3.375c.2-3.457.2-3.457-1.063-5.625Z" fill="#2AB1F6"/><path d="M123 98c6.75-.125 6.75-.125 9 1v2c-6.75 4-6.75 4-9 4v-2l-2-1h2v-4Z" fill="#27A2E1"/><path d="M260 169h1c.18 5.22-.03 9.073-2 14h-2l.188 3.188c-.196 3.97-.891 5.654-3.188 8.812-1.188-3.43-.802-5.378.438-8.75l.87-2.422L256 182h2l-.125-2.563c.14-3.86.953-6.774 2.125-10.437Z" fill="#2C5D7B"/><path d="M166 264a224.84 224.84 0 0 1 4.75-.188l2.672-.105c3.025.344 4.334 1.295 6.578 3.293-3.03 1.515-5.651 1.17-9 1-2.938-1-2.938-1-5-2v-2Z" fill="#16253F"/><path d="M90 247c4.234 1.31 8.074 2.944 12 5v1h-8v3h-3v-3h2v-2l-3-2v-2Z" fill="#262441"/><path d="M66 230c2.375.75 2.375.75 5 2a179.61 179.61 0 0 1 2 4c2.025.652 2.025.652 4 1l1 2-2.375-.625L73 238l-2 2h-3l1-4h2v-2l-5-1v-3Z" fill="#2B2A4A"/><path d="m84 212 9 3v2h2l.25 1.875c.563 2.31.563 2.31 2.813 3.375L100 223c-1.61.836-1.61.836-4 1a61.276 61.276 0 0 1-6.25-5.375l-1.68-1.578A158.873 158.873 0 0 1 84 213v-1Z" fill="#25385E"/><path d="M83 200h2v3h-2v3l6-2v3h-2v3h-3l-1 2-3-4 2-1c.407-2.322.744-4.657 1-7Z" fill="#21283D"/><path d="m37 182 .805 1.621c.889 1.77 1.792 3.531 2.703 5.29l1.617 3.151 1.633 3.16C45 198 45 198 45 201h2l-1 4a1660.986 1660.986 0 0 1-3.5-6.375l-1.012-1.828C39 192.227 39 192.227 39 190h-2v-8Z" fill="#293C6F"/><path d="M181 182v2c-3.548 2.129-6.933 2.492-11 3a89.53 89.53 0 0 0-4 1v-2a273.618 273.618 0 0 1 4.688-2.563l2.636-1.44c3.06-1.14 4.595-.924 7.676.003Z" fill="#3BE9EB"/><path d="M59 153h2l-.465 3.004c-.567 3.968-.85 7.932-1.097 11.934l-.131 2.072A2055.19 2055.19 0 0 0 59 175c-2.292-3.638-2.268-6.762-2.25-11l-.016-3.688c.246-3.065.651-4.749 2.266-7.312Z" fill="#1C344E"/><path d="M215 232c3.125.375 3.125.375 6 1v2h-2v2c-2.639 1.783-4.972 2.99-8 4l1-4h2l-1-3 2-2Z" fill="#17A1E7"/><path d="m102 226 9 3v2h6v2l3 1h-7v-2h-5v-2h-3v-2l-3-1v-1Z" fill="#1962A3"/><path d="m191 220 5 2v-2h6c-2.528 2.799-4.204 4.458-8 5v2l-6 1 1.938-1.313c2.33-1.6 2.33-1.6 3.062-4.687h-2v-2Z" fill="#254971"/><path d="m192 197 2 1-1 4h-4v4h-8l2-1v-2h4l.813-1.875C189 199 189 199 192 197Z" fill="#2D4054"/><path d="m64 102 2 3c-.813 2.5-.813 2.5-2 5l-1 3h-2v2h-2l1-8h2l.438-1.938C63 103 63 103 64 102Z" fill="#1E78B9"/><path d="M60 223c4.228 3.083 4.228 3.083 6 5 .375 2.813.375 2.813 0 5h2v2h-3v-2l-3-1v-2h-2v-2h2l-2-5Z" fill="#1D2738"/><path d="m140 101-4 1v3h-4v2c-3.875-.875-3.875-.875-5-2l-2-1c11.011-4.534 11.011-4.534 15-3Z" fill="#20293B"/><path d="M155 98v1l-3.945.367-5.18.508-2.594.238c-4.723.473-8.775 1.329-13.281 2.887l-2-1 4-1v-2c7.65-1.25 15.274-1.09 23-1Z" fill="#275D81"/><path d="M142 95c6.793-.223 13.429.099 20 2l1 2c-6.152.098-6.152.098-8 0l-1-1c-2.84-.283-5.682-.449-8.531-.621L143 97l-1-2Z" fill="#1EC3EC"/><path d="m250 183 2 3-1 2h-2l1 10c-4.06-4.06-4.06-4.06-5-7 .898-2.14.898-2.14 2.375-4.25l1.46-2.14L250 183Z" fill="#26C1F8"/><path d="m137 92.313 2.688.238C142 93 142 93 144 95c-2.709 1.354-5.01 1.065-8 1v-2h-4v2l-4-1c3.13-3.13 4.717-3.105 9-2.688Z" fill="#2CB0F7"/><path d="m179.164 253.805 2.461.07 2.477.055L186 254l-1 2c-6.255 1.97-12.478 2.544-19 3v-2l1.898-.148 2.477-.227c.812-.07 1.624-.14 2.46-.21 2.85-.546 3.424-2.348 6.33-2.61Z" fill="#1577C5"/><path d="M188 89c4.785 2.485 7.86 4.48 11 9l-4 1 1-3h-3l-1-2-1.875.625L188 95l-2-2 2-4Z" fill="#30BAD6"/><path d="m206 214 1 3c-2.36 2.097-3.546 2.97-6.75 3.188L198 220c.25-1.875.25-1.875 1-4 2.582-1.721 3.85-2 7-2Z" fill="#2A2D43"/><path d="M81 169c3.351 1.676 3.999 5.044 5.313 8.41.907 3.418.316 5.495-1.313 8.59h-3c.095-.58.19-1.16.29-1.758.714-5.04.705-8.431-1.29-13.242v-2Z" fill="#2C374D"/><path d="m115 169 1 7 3 1 1 5a1716.08 1716.08 0 0 1-3.313-2.813l-1.863-1.582c-3.344-2.942-3.344-2.942-4.824-4.605v-2c3.875-2 3.875-2 5-2Z" fill="#2D2D47"/><path d="M70 92c2 2 2 2 2.125 5.625L72 101l-4 2-3-2 1-2h2l.438-1.813c.45-1.749.99-3.474 1.562-5.187Z" fill="#1B90E4"/><path d="M186 94h2v2h-2l-1 5h-7c.125-1.875.125-1.875 1-4 3-1.188 3-1.188 6-2l1-1Z" fill="#38CAF7"/><path d="M188 228c-1.6.84-3.205 1.672-4.813 2.5l-2.707 1.406C178 233 178 233 175 233v-4c1.602-.364 3.207-.716 4.813-1.063l2.707-.597C185 227 185 227 188 228Z" fill="#242C3E"/><path d="m152 69 14 1v3a668.813 668.813 0 0 1-15-2l1-2Z" fill="#1B243D"/><path d="m200 40 12 1-1 2h-2l2 4c-4.993-1.277-7.576-3.173-11-7Z" fill="#2B394A"/><path d="M106 250c4.087-.24 7.177.577 11 2v3c-7.625-.875-7.625-.875-11-2v-3Z" fill="#0782F1"/><path d="m228 222 4 2c-1.375 2-1.375 2-3 4h-2v2c-3.462 3-3.462 3-6 3v-3l5-1v-5h2v-2Z" fill="#25A2D6"/><path d="M259 161h3a761.913 761.913 0 0 1-.875 6.375l-.492 3.586C260 174 260 174 258 176v-5h-2l1-4h3l-1-6Z" fill="#31C0E7"/><path d="M56 113c2 3 2 3 1.54 6.574a232.732 232.732 0 0 1-.915 4.114l-.46 2.126A502.88 502.88 0 0 1 55 131h-1v-13h2v-5Z" fill="#2B293F"/><path d="M127 48v2l-1.898.367-2.477.508-2.46.492c-2.352.5-2.352.5-4.165 2.633l-5-2v-1c10.374-3.444 10.374-3.444 16-3Z" fill="#292423"/><path d="m208 245 1 4h3v2l-6 1 2-2-7-1c3.826-4 3.826-4 7-4Z" fill="#29293F"/><path d="M78 230h6l1 4h2v3c-2.169-.506-4-1-6-2v-3l-3-1v-1Z" fill="#1D77FA"/><path d="m227 228 4 1-1 4h-3v3h-2v-2h-2l2-4h2v-2Z" fill="#1B3442"/><path d="M92 223c7.508.492 7.508.492 10 3.063l1 1.937h-8v-2h-3v-3Z" fill="#1980E5"/><path d="m246 204 1 2c-1.25 3.563-1.25 3.563-3 7l-3 1-1 3h-2l-1 3-1-4 2-1 1-3h2v-2l3-2c1.192-2.05 1.192-2.05 2-4Z" fill="#2778A7"/><path d="M212 167c1 2 1 2 .004 5.04l-1.441 3.585-1.434 3.602L208 182h-2l3-9-3 1v-3h5l1-4Z" fill="#235168"/><path d="M54 152h1c1.467 5.225 2.226 9.581 2 15l-4 1 1-16Z" fill="#2073B9"/><path d="m188 111 1 2h-2v2h-7l-1 5h-2v2h-3v-2l4-4 1-3 7 1v-2l2-1Z" fill="#2D4253"/><path d="m211 78 2 1v2l4 1v2h2v4h-2v-2h-4c-1.257-2.906-2-4.796-2-8Z" fill="#273C53"/><path d="M238 72h2c1.783 2.639 2.99 4.972 4 8 2.015.733 2.015.733 4 1l1 7c-5.002-4.724-8.696-9.473-11-16Z" fill="#357F8F"/><path d="M110 241h6l-1 4h-4v2h-7l-1-2 7 1v-5Z" fill="#0886EF"/><path d="M254 183h2c-.49 6.49-.49 6.49-2.938 8.938C251 193 251 193 249 193v-5h2v-2h2l1-3Z" fill="#35B8E4"/><path d="M120 182c4.143.598 7.182 2.007 10.813 4.063l2.957 1.66L136 189c-2.85 1.171-3.857 1.06-6.762-.145l-2.925-1.667-2.95-1.645C121 184 121 184 120 182Z" fill="#2A6B78"/><path d="m200 171 2 4h2v4l-4 1c-1.395-2.298-2.074-3.48-1.688-6.188C199 172 199 172 200 171Z" fill="#152628"/><path d="m175 171-1 5-4 1v2l-4 1c1.543-3.788 4.553-9 9-9Z" fill="#271B2A"/><path d="M166 106h4v2h4v5c-1.938-.313-1.938-.313-4-1l-1-3-3-1v-2Z" fill="#17272A"/><path d="m216 237 2 1c-1.405 3.395-2.764 5.212-6 7-2.68.534-5.268.772-8 1l1-2c3.063-.625 3.063-.625 6-1v-2a105.022 105.022 0 0 1 5-4Z" fill="#24476B"/><path d="m198 196-1.063 2.125c-1.1 3.378-.732 5.456.063 8.875h-3c-1.188-3.25-1.188-3.25-2-7 1.66-3.408 2.14-4 6-4Z" fill="#2A1E2F"/><path d="M74 186c1 3 1 3 0 5.25-1.294 3.558-.718 6.086 0 9.75-2.667-2.49-4.557-4.634-6-8l4-1 .438-1.875C73 188 73 188 74 186Z" fill="#1E2F4D"/><path d="M59 175c2 1.75 2 1.75 4 4v4h2v3h2v5c-6-7.2-6-7.2-6-12h-2v-4Z" fill="#1F4B7A"/><path d="M119 167h2v6h-2v4l-4-1v-4h4v-5Z" fill="#162929"/><path d="M84 162h2c.39 1.455.76 2.914 1.125 4.375l.633 2.46L88 171l-2 2c-3.077-5.292-3.077-5.292-2.688-8.875L84 162Z" fill="#37C6FA"/><path d="M199 98h1c.375 2.25.375 2.25 0 5-2.575 2.016-5.083 3.541-8 5 .875-4.75.875-4.75 2-7l4-1 1-2Z" fill="#28D0E6"/><path d="m190 93 3 1v2h3v2l-3.375.438c-3.446.346-3.446.346-5.625 1.562.75-4.75.75-4.75 3-7Z" fill="#23D3F5"/><path d="M170 79c6 1.833 11.45 4.073 17 7l-1 2-4-1v-2l-9-2v-2l-3-1v-1Z" fill="#2899BC"/><path d="M188 80h3v2h-2l2 8-4-2v-2l-4-2 1.938-.875c2.214-.953 2.214-.953 3.062-3.125Z" fill="#2D2D48"/><path d="M181 52h11c-1 3-1 3-3 4-2 .04-4 .043-6 0l-2-4Z" fill="#4CE5F9"/><path d="M181 33c1.624-.08 3.25-.14 4.875-.188l2.742-.105L191 33l2 3 3 1v2c-5.134-1.39-10.037-3.085-15-5v-1Z" fill="#2C4D5C"/><path d="M151 19h15v3h-8v-2h-7v-1Z" fill="#1B2726"/><path d="M122 257c6.152-.098 6.152-.098 8 0l1 1c1.849.234 3.705.413 5.563.563l3.066.253L142 259v1c-2.584.081-5.165.14-7.75.188l-2.21.076c-3.385.046-5.619-.01-8.556-1.776L122 257Z" fill="#156ECD"/><path d="m78 245 6 1 1 4c-3 1-3 1-5.188.063L78 249v-4Z" fill="#182B2C"/><path d="M129 225c2.063.188 2.063.188 4 1l3 1v2h-11c1.75-2.063 1.75-2.063 4-4Z" fill="#2C1C2B"/><path d="M157 184v2c-8.036 2.277-8.036 2.277-12 1v-2c4.064-.774 7.864-1.098 12-1Z" fill="#132A29"/><path d="M219 168h2c.428 3.64-.026 5.046-1.875 8.313L217 179h-2c.75-4.75.75-4.75 3-7 .643-2.069.643-2.069 1-4Z" fill="#38BBFB"/><path d="M148 102c7.75-.125 7.75-.125 10 1v2h-11l1-3Z" fill="#19292B"/><path d="m227 64 2 3 3.063.938L235 69c.875 2.125.875 2.125 1 4h-4v-4l-1.875.625L228 70l-2-2c.375-2.125.375-2.125 1-4Z" fill="#34F2F4"/><path d="m105 62 4 1-1.5 1.188c-1.956 2.363-1.742 3.826-1.5 6.812h-2v-2h-2v-2l-2-1h3l2-4Z" fill="#1B92F3"/><path d="M95 248c3.95.551 7.35 1.39 11 3v2l3 1c-5.857.732-9.504-1.52-14-5v-1Z" fill="#0E62B5"/><path d="m44 197 4 1 .875 3.25c.942 3.58.942 3.58 2.313 6C52 209 52 209 51 212c-2.703-2.872-3.948-4.31-4.25-8.313L47 201h-2l-1-4Z" fill="#1A62AA"/><path d="m179 187 8 1v4h-5v-2h-3v-3Z" fill="#39F1F6"/><path d="M166 102c7.75.875 7.75.875 10 2 .625 2.563.625 2.563 1 5h-2v-2l-1.688-.25c-3.01-.976-4.934-2.702-7.312-4.75Z" fill="#249BB4"/><path d="M228 57c2.063.438 2.063.438 4 1l1 7c-4.772-2.447-4.772-2.447-5.875-5.125L227 58l1-1Z" fill="#1E3B44"/><path d="m174 53 1 3-15-3v-1c5.339-1.335 8.88-.736 14 1Z" fill="#35ACB4"/><path d="M195 185h2c2 3 2 3 2 6h-3v2h-2c-.042-2.333-.04-4.667 0-7l1-1Z" fill="#3CF3F3"/><path d="M122 185c4.154 1.227 6.437 2.328 10 5h-10l-1-3 1-2Z" fill="#3ADFE1"/><path d="M93 184h3v2l5 1v3h-4v-2h-4v-4Z" fill="#45D5F8"/><path d="M80 145h3c.372 6.574.372 6.574-1.512 8.73-.49.42-.982.838-1.488 1.27a597.53 597.53 0 0 1-.563-4.438l-.316-2.496L79 146l1-1Z" fill="#33B6F9"/><path d="M58 116h1c.333 6.21-.55 10.283-3 16-1.38-3.767-.596-6.448.438-10.25l.87-3.266L58 116Z" fill="#247AAC"/><path d="M252 97c2 2 2 2 2.125 5.125L254 105c-3 0-3 0-5-1v-4h3v-3Z" fill="#36E7EF"/><path d="M166 30c1.938.141 3.875.288 5.813.438l3.269.246C178 31 178 31 181 32v2h-6v-2h-9v-2Z" fill="#35A6A7"/><path d="M79 240c4.993 1.277 7.576 3.173 11 7-3.699-.888-7.346-1.946-11-3v-4Z" fill="#262B5B"/><path d="m121 234 9 1v2h6v1h-10v-2h-5v-2Z" fill="#186EC1"/><path d="M183 206c2.375.25 2.375.25 5 1 1.313 2.063 1.313 2.063 2 4h-2l-1 3-3-1v-2l2-1-3-4Z" fill="#1B232A"/><path d="M259 118h1c.34 1.561.671 3.124 1 4.688l.563 2.636c.427 2.613.513 5.034.437 7.676-2.228-2.228-2.692-3.658-3.625-6.625-.26-.817-.52-1.635-.79-2.477L257 122h2v-4Z" fill="#3DE4F1"/><path d="M109 119c1 3 1 3 .313 5-1.488 2.266-3.07 3.505-5.313 5 .503-4.401 2.088-6.712 5-10Z" fill="#27384F"/><path d="M180 105h3l-.563 2.25c-.658 2.978-.658 2.978.563 6.75l-7-6 2-1 2 1v-3Z" fill="#30C1DC"/><path d="M190 98h9l-1 3-8 1v-4Z" fill="#47C6F6"/><path d="M79 67h4l-2 4h-3v3h-3l1-4h2l1-3Z" fill="#23211E"/><path d="M139 56h3v6l-6 2v-2h3l-.563-1.875C138 58 138 58 139 56Z" fill="#279DF8"/><path d="m160 53-1 3-10 1v-3c3.735-.575 7.213-1 11-1Z" fill="#1A2936"/><path d="m211 50 4 1v3h2v2l4 2c-2.49 1.245-3.41.777-6 0v-3h-2l-2-5Z" fill="#4DEAF6"/><path d="M189 39c3.719.507 6.735 1.116 10 3l-1 3h-2v-2h-4v-2h-3v-2Z" fill="#46EFF9"/><path d="m229 215 1 3h2v5h-2v-3h-4c.375-1.938.375-1.938 1-4l2-1Z" fill="#30AEF7"/><path d="m197 185 3 2c.438 2.438.438 2.438 0 5-2.044 1.976-3.118 3-6 3l-1 2v-3l-2-1 3-1 2 1v-2h3l-2-6Z" fill="#34D0D4"/><path d="M111 174a564.67 564.67 0 0 1 3.375 2.813l1.898 1.582C118 180 118 180 120 183h-5v-3h-2l-2-6Z" fill="#33B8C5"/><path d="m85 174 3 1c.95 2.504.95 2.504 1.688 5.563l.761 3.066L91 186c-4.73-4.615-4.73-4.615-6-8v-4Z" fill="#28A3AE"/><path d="M116 112h3v4h2v3h-2v-2l-4 1-1-2c.938-2.125.938-2.125 2-4Z" fill="#182728"/><path d="M179 55c2.164.023 2.164.023 4.625.375l2.477.336L188 56l-2 3-9-2 2-2Z" fill="#30D8D8"/><path d="m223 207 4 1-1 3h-2v2h-4l3-6Z" fill="#20B8F6"/><path d="M188 175h3l2 5h2v2h2l-1 2-3-1-.938-2.5L191 178c-2.041-.887-2.041-.887-4-1l1-2Z" fill="#3B4558"/><path d="M195 171h3c.625 2.875.625 2.875 1 6l-2 2-1-4h-3l2-4Z" fill="#2A213D"/><path d="m85 74 2 1c-2.096 4.081-4.017 5.799-8 8l-1 2-2-1 3.375-3.875 1.898-2.18A91.238 91.238 0 0 1 85 74Z" fill="#1C64A4"/><path d="M101 198c3.777 1.813 7.373 3.907 11 6-2.49 1.245-3.41.777-6 0v-2l-6-1 1-3Z" fill="#295666"/><path d="M252 191c.93 2.606 1.15 3.642.063 6.25L251 199h-2l-1 5c-1.361-2.722-.761-4.093 0-7 1.111-2.593 1.984-3.984 4-6Z" fill="#27A0C1"/><path d="m157 191 10 1v2h-9l-1-3Z" fill="#35F6F8"/><path d="m179 179 8 1 1 3-9-1v-3Z" fill="#4BE8F2"/><path d="M212 171h2c.688 1.75.688 1.75 1 4-1.313 2.25-1.313 2.25-3 4h-2c.875-5.75.875-5.75 2-8Z" fill="#20C2E8"/><path d="m266 161-1 10h-2v-9c2-1 2-1 3-1Z" fill="#192423"/><path d="m202 69 7 1 1 6a125.024 125.024 0 0 1-6-4v-2l-2-1Z" fill="#33CCD4"/><path d="M211 47c2.95 1.37 5.525 2.878 8 5v2l3 1c-2 1-2 1-4.438.375-3.69-1.98-4.749-4.748-6.562-8.375Z" fill="#2CB2AF"/><path d="M60 235h3v2l4 2v2c-2.375-.188-2.375-.188-5-1-1.313-2.563-1.313-2.563-2-5Z" fill="#1A2523"/><path d="m106 199 7 2v2l3 1-1 2-9-5v-2Z" fill="#35E6E2"/><path d="m206 182 2 1-2 8-4-4 2-3h2v-2Z" fill="#26A6DA"/><path d="M191 176c5.875 1.875 5.875 1.875 7 3 .04 1.666.043 3.334 0 5l-1-2h-2v-2h-2l-2-4Z" fill="#242226"/><path d="M246 77h2v2h3v2l2 1-1 2h-3c-3-4.222-3-4.222-3-7Z" fill="#19292E"/><path d="m181 75 4 2v2l-9 1 5-5Z" fill="#2C1C31"/><path d="M148 60h6l1 3-7 1v-4Z" fill="#1B282E"/><path d="M106 54h9l-2 1v2h-7v-3Z" fill="#1C272A"/><path d="m121 260 9 1v2h-9v-3Z" fill="#271F22"/><path d="M105 254c3.95.551 7.35 1.39 11 3-3.215 1.607-6.436 1.057-10 1l-1-4Z" fill="#24304E"/><path d="M232 215h2v2h2c-.313 1.875-.313 1.875-1 4l-3 2v-8Z" fill="#1AADEA"/><path d="M120 205h10l-3 3c-3.688-.313-3.688-.313-7-1v-2Z" fill="#4FE7F7"/><path d="M44 146h5v3c-2.5 2.188-2.5 2.188-5 4v-7Z" fill="#2693FB"/><path d="M267 113h1v6l-3 1c-1.209 2-1.209 2-2 4v-5l2-1a78.037 78.037 0 0 0 2-5Z" fill="#221A28"/><path d="m249 95 3 1v4l-6 2v-3h2l1-4Z" fill="#47E9F7"/><path d="m251 91 3 1 1 9c-3.938-4.308-3.938-4.308-4.25-7.813L251 91Z" fill="#287180"/><path d="M247 87c2 1.75 2 1.75 4 4v4h-2l-1 2c-1.04-3.38-1.08-6.478-1-10Z" fill="#38DAE0"/><path d="M142 32h1l1 16h-4v-2h2V32Z" fill="#1D2141"/><path d="M212 219c-.573 2.867-.861 3.861-3 6l-3-1c2.258-5 2.258-5 6-5Z" fill="#2CA4F6"/><path d="m217 200 1.813.938c2.277 1.164 2.277 1.164 5.187 2.062l-2 4c-1.938-.688-1.938-.688-4-2-.75-2.625-.75-2.625-1-5Z" fill="#2F9DD0"/><path d="m206 192 5 3c-3 2-3 2-5.688 1.625L203 196l1-3 2 1v-2Z" fill="#273046"/><path d="M95 127h1c.125 6.625.125 6.625-1 10h-3c.308-1.48.622-2.96.938-4.438l.527-2.496C94 128 94 128 95 127Z" fill="#1ABDFC"/><path d="M183 103v2h-3v3l-4-1v-3c3-1 3-1 7-1Z" fill="#36D3FA"/><path d="M217 55c5.538.492 5.538.492 7.875 3.063L226 60l-5 1-.875-1.875c-1.062-2.258-1.062-2.258-3.125-4.125Z" fill="#3CDFE2"/><path d="m52 216 6 3v3h-4l-2-6Z" fill="#301C28"/><path d="m101 201 5 1v2h3v3h-3l-2-3-3-1v-2Z" fill="#2D1D36"/><path d="m98 194 1.625.938c2.773 1.24 5.375 1.653 8.375 2.062v2h-2l-1 2a858.147 858.147 0 0 1-3.5-2.938l-1.969-1.652L98 195v-1Z" fill="#36B9BE"/><path d="M38 183h2v2h2v7c-2.503-2.938-3.47-5.179-4-9Z" fill="#177ED0"/><path d="M37 172h3v7l-2 1c-1.354-2.709-1.065-5.01-1-8Z" fill="#0C8EF9"/><path d="M264 122h3l-1 8c-1.563-1.188-1.563-1.188-3-3 .313-2.688.313-2.688 1-5Z" fill="#20272F"/><path d="m191 90 7 1 1 6a962.085 962.085 0 0 1-4-2.938l-2.25-1.652L191 91v-1Z" fill="#2A344F"/><path d="M68 80h3l-1 4h-2v3h-3l.938-1.813C67.102 82.91 67.102 82.91 68 80Z" fill="#1B2026"/><path d="M142 68h4l-1 5-4-1 1-4Z" fill="#15ABFC"/><path d="M148 53h8v1h-7v3h2v3h-3v-7Z" fill="#2B1E41"/><path d="M149 46h2v3h5v2l-8-1 1-4Z" fill="#36E1EB"/><path d="M192 38c6.4.492 6.4.492 9.438 3.063L203 43c-8.714-1.857-8.714-1.857-11-5Z" fill="#32B0BA"/><path d="M98 253c2.343.256 4.678.593 7 1l1 2h-8v-3Z" fill="#281E29"/><path d="m216 227 2 1v2h3v3h-4v-3h-2l1-3Z" fill="#2CA0F5"/><path d="m80 209 6 5c-3.75 1.125-3.75 1.125-6 0v-5Z" fill="#1276C3"/><path d="M220 179h5v4l-5-1v-3Z" fill="#38B8FD"/><path d="M174 177h3v3h-2v2h-5v-2h4v-3Z" fill="#291C31"/><path d="m109 175 4 2v2l-6 1v-3h2v-2Z" fill="#26E5F3"/><path d="M224 167h3v7h-3v-7Z" fill="#2DC2FD"/><path d="M101 156c2 1 2 1 2.633 2.848l.492 2.214.508 2.223L105 165h-2v-2h-2v-7Z" fill="#26B7CC"/><path d="m40 146 4 1-1 5h-3v-6Z" fill="#119FF4"/><path d="M33 146h3v6l-3 1v-7Z" fill="#0D9CF3"/><path d="M81 138v6l-4-1c.375-1.938.375-1.938 1-4 2-1 2-1 3-1Z" fill="#1BBDFC"/><path d="M78 75h5c-.813 1.938-.813 1.938-2 4l-3 1v-5Z" fill="#281B39"/><path d="M188 65h3c0 2 0 2-1.813 4.125C187 71 187 71 184 71v-3h3l1-3Z" fill="#171E26"/><path d="M174 262h7v3c-2.375.188-2.375.188-5 0l-2-3Z" fill="#2A241F"/><path d="m235 220 1 2-1 3c-2.063.688-2.063.688-4 1v2l-2-1 6-7Z" fill="#274D6D"/><path d="M81 219v3h-3v3h-3v-3c3.333-3 3.333-3 6-3Z" fill="#0984EF"/><path d="m192 197 2 1-1 4h-6l5-5Z" fill="#27646B"/><path d="M180 195h5l1 2h-2l-1 2-4-1 1-3Z" fill="#32F6FA"/><path d="m173 182 2 1c-5.143 4.429-5.143 4.429-9 5v-2c5.273-3.223 5.273-3.223 7-4Z" fill="#3B94A0"/><path d="m49 146 5 1v3l-5-1v-3Z" fill="#119EEC"/><path d="m103 62 2 1-2 3c-3.625.688-3.625.688-7 1 2.363-2.526 3.665-3.888 7-5Z" fill="#1466A3"/><path d="m222 49 3 1h-2v4h-4c.375-1.938.375-1.938 1-4l2-1Z" fill="#322A42"/><path d="m53 222 3 1-1 3c-2.563 1.188-2.563 1.188-5 2l3-6Z" fill="#21221E"/><path d="M189 215h7v3h-7v-3Z" fill="#2D1C20"/><path d="M78 215h6l-1 3h-5v-3Z" fill="#187FFC"/><path d="M184 197h3v2l2 1-2 3-2-1c-.625-2.563-.625-2.563-1-5Z" fill="#32E2E1"/><path d="M93 188h4v2h2l-1 4-5-6Z" fill="#28D3DC"/><path d="M100 122h2l1 6-1-2-4 1 2-5Z" fill="#2FBAF9"/><path d="M263 115h2v4h-2v5c-1.125-1.688-1.125-1.688-2-4 .875-2.75.875-2.75 2-5Z" fill="#23353E"/><path d="m116 109 1 2-1 2h-2l-1 5-3-1c1.375-2.5 1.375-2.5 3-5h2l1-3Z" fill="#34426B"/><path d="m194 108 1 2a90.488 90.488 0 0 1-4 4h-2v-3c2.5-1.688 2.5-1.688 5-3Z" fill="#3B2440"/><path d="M210 96h2v6l-3 1 1-7Z" fill="#46D9F6"/><path d="m66 79 3 1-2 4h-3l-1 2v-3h2l1-4Z" fill="#1F2937"/><path d="M189 67h5v2l-7 2 2-4Z" fill="#1C2E32"/><path d="m199 65 7 1-2 3-6-2 1-2Z" fill="#34E8F0"/><path d="M83 62c-.813 2.438-.813 2.438-2 5l-3 1c.375-2.438.375-2.438 1-5 2-1 2-1 4-1Z" fill="#152232"/><path d="M121 55c-5.75 3-5.75 3-8 3v-3c3.053-.981 4.947-.981 8 0Z" fill="#273059"/><path d="M201 43c2.929.628 5.361 1.586 8 3-3.766 1.255-5.372.37-9-1l1-2Z" fill="#3ADEE0"/><path d="M171 22h6v4l-6-2v-2Z" fill="#1C2933"/></svg>
