<svg width="528" height="527" viewBox="0 0 528 527" fill="none" xmlns="http://www.w3.org/2000/svg"><g clip-path="url(#a)"><path d="M264.478 0C118.959 0 1 117.981 1 263.5S118.959 527 264.478 527s263.478-117.981 263.478-263.5S409.975 0 264.478 0Zm0 491.719c-126.621 0-229.27-102.67-229.27-229.291S137.858 33.115 264.479 33.115c126.621 0 229.269 102.671 229.269 229.291 0 126.621-102.648 229.292-229.269 229.292v.021Z" fill="#fff"/><path d="M35.165 262.406c0 126.621 102.67 229.27 229.291 229.27 126.643 0 229.291-102.649 229.291-229.27 0-126.62-102.648-229.269-229.269-229.269-126.643 0-229.291 102.649-229.291 229.269h-.022Z" fill="url(#b)"/><path d="M312.707 193.354c3.413 0 8.181-1.968 10.587-4.374l62.643-62.665c2.406-2.406 1.597-4.375-1.815-4.375H145.906c-3.412 0-4.221 1.969-1.815 4.375l62.643 62.665c2.406 2.406 7.175 4.374 10.587 4.374h95.386Zm-117.303 21.917c0-3.412-1.968-8.181-4.374-10.587l-62.644-62.665c-2.405-2.406-4.374-1.596-4.374 1.816v238.237c0 3.412 1.969 4.221 4.374 1.815l62.644-62.665c2.406-2.406 4.374-7.174 4.374-10.586v-95.387.022Zm23.01 116.209c-3.412 0-8.18 1.969-10.586 4.375l-62.643 62.665c-2.406 2.406-1.597 4.374 1.815 4.374h236.028c3.412 0 4.221-1.968 1.815-4.374L322.2 335.855c-2.406-2.406-7.174-4.375-10.586-4.375h-93.2Zm68.156-69.074c-3.413 0-4.222 1.969-1.816 4.397L400.57 382.794c2.406 2.406 4.374 1.596 4.374-1.816V268.596c0-3.412-2.799-6.19-6.19-6.19H286.57Z" fill="#fff"/></g><defs><linearGradient id="b" x1="102.344" y1="424.526" x2="426.595" y2="100.274" gradientUnits="userSpaceOnUse"><stop stop-color="#5E4D15"/><stop offset=".06" stop-color="#7C6517"/><stop offset=".14" stop-color="#C09E44"/><stop offset=".18" stop-color="#DBB556"/><stop offset=".21" stop-color="#D1AB4F"/><stop offset=".27" stop-color="#B6933E"/><stop offset=".31" stop-color="#A07F31"/><stop offset=".41" stop-color="#73571B"/><stop offset=".46" stop-color="#5E4411"/><stop offset=".49" stop-color="#6D5014"/><stop offset=".55" stop-color="#96721E"/><stop offset=".59" stop-color="#B38A26"/><stop offset=".62" stop-color="#C09934"/><stop offset=".65" stop-color="#C6A03B"/><stop offset=".66" stop-color="#C9A542"/><stop offset=".68" stop-color="#D3B655"/><stop offset=".71" stop-color="#E4D075"/><stop offset=".73" stop-color="#F8F19D"/><stop offset=".78" stop-color="#F9F2A1"/><stop offset=".82" stop-color="#E6D47F"/><stop offset=".89" stop-color="#C7A449"/><stop offset=".93" stop-color="#BC9234"/></linearGradient><clipPath id="a"><path fill="#fff" transform="translate(1)" d="M0 0h527v527H0z"/></clipPath></defs></svg>
