<svg xmlns="http://www.w3.org/2000/svg" width="300" height="300"><path d="m243 32 2.95 2.27c5.213 4.036 5.213 4.036 7.05 5.73v2l1.938.813C257 44 257 44 258 47h2c2.79 2.946 5.242 6.163 7.728 9.367a347.522 347.522 0 0 0 3.667 4.602C284.162 77.634 292.508 97.579 297 118l.526 2.33c4.347 20.101 4.014 41.64-.526 61.67l-.554 2.476c-5.408 23.2-16.178 43.966-31.466 62.149-1.985 2.317-1.985 2.317-3.617 4.688L260 253h-2l-.813 1.938C256 257 256 257 253 258v2c-22.778 21.591-53.069 35.001-84 39-1.27.18-2.54.36-3.848.547-38.335 4.661-76.486-7.994-107.039-30.692-31.73-24.967-52.417-61.379-57.425-101.48-4.055-38.38 6.319-77.966 30.035-108.574C34.323 54.373 38.08 50.147 42 46l2.379-2.61C95.3-10.407 186.106-14.397 243 32Z" fill="#019587"/><path d="M150 48c3.928.982 6.849 2.342 10.438 4.188C172.317 58.69 172.317 58.69 185 63v2c3.926 1.666 7.9 2.84 12 4l2 1v2l1.813.438c1.749.45 3.474.99 5.187 1.562v2l7 1v2l2.191.352c2.895.668 5.119 1.653 7.746 3.023l2.465 1.273L228 85l6 3v41l-11 5c-3.655 1.682-6.844 3.572-10.125 5.875C206.682 144.081 199.588 148 192 148v3c.645.07 1.29.142 1.953.215 4.31 1.11 7.909 3.216 11.797 5.347a384.98 384.98 0 0 0 22.081 11.012c5.08 2.337 5.08 2.337 6.169 3.426a245.7 245.7 0 0 1 .098 8.848l-.005 2.686c-.005 2.843-.018 5.686-.03 8.529-.006 1.922-.01 3.845-.014 5.767-.011 4.723-.028 9.447-.049 14.17l-10-3v-2l-6-1v-2l-5-1v-2l-9-2v-2l-5-1v-2l-1.938-.25c-4.267-1.045-8.093-2.89-12.062-4.75v-2l-5-1v-2l-2.938-.25c-4.733-.65-8.802-2.673-13.062-4.75v-2l-2-.25c-3.354-.838-6.015-2.235-9.063-3.828-2.274-1.082-4.442-1.61-6.937-1.922l-.25 1.895C145 174 145 174 143.312 174.949l-2.312.738c-5.89 2.12-11.219 5.009-16.67 8.052-4.958 2.712-9.917 4.642-15.33 6.261v4l2.875.375C115 195 115 195 117 197c1.984.714 3.983 1.386 6 2v2l2.688.313C129 202 129 202 134 205l16 8v39c-3.917-.783-5.92-1.296-9.25-3.063-5.519-2.855-11.132-5.479-16.772-8.082A112.606 112.606 0 0 1 113 235a233.457 233.457 0 0 0-5.813-2.688l-2.957-1.324L102 230v-2l-2.75-.313c-3.428-.725-4.521-1.64-7.25-3.687a93.511 93.511 0 0 0-5.25-2.188l-2.703-1.042L82 220v-2l-1.723-.297-2.34-.453-2.285-.422c-3.565-1.113-6.426-2.943-9.652-4.828a773.207 773.207 0 0 1-.55-17.188c-.05-1.948-.118-3.895-.204-5.842-.7-16.132-.7-16.132 2.734-20.473 2.636-1.608 5.079-2.575 8.02-3.497a152.215 152.215 0 0 0 4.203-2.125A490.442 490.442 0 0 1 84.25 161l2.174-1.01c6.798-3.138 13.669-6.1 20.576-8.99-2.35-3.525-3.79-4.027-7.625-5.688a357.747 357.747 0 0 1-15.563-7.375l-1.902-.957L76 134l-10-5V88l9 4.25 2.785 1.313A662.75 662.75 0 0 1 93 101v2l9 2v2l3.047.777c3.971 1.139 7.552 2.876 11.203 4.785 7.11 3.645 14.299 7.095 21.542 10.468l2.321 1.087 2.056.957C144 126 144 126 147 128c5.187.844 7.804-.912 11.926-3.7 3.168-1.986 6.56-3.076 10.074-4.3 5.622-2.27 10.952-4.99 16.328-7.793C188 111 188 111 191 111c-.347-2.726-.724-3.768-2.863-5.563-6.47-3.797-12.941-6.335-20.137-8.437v-2l-2.215-.344c-2.866-.675-4.832-1.651-7.347-3.156-2.993-1.784-4.964-2.632-8.438-3.5V48Z" fill="#AC146C"/><path d="m108 150 10 4v2l2.219.395c8.972 1.953 22.796 6.578 28.781 13.605h-3l-.25 1.895C145 174 145 174 143.312 174.949l-2.312.738c-5.89 2.12-11.219 5.009-16.67 8.052-4.958 2.712-9.917 4.642-15.33 6.261v4l2.875.375C115 195 115 195 117 197c1.984.714 3.983 1.386 6 2v2l2.688.313C129 202 129 202 134 205l16 8v39c-3.917-.783-5.92-1.296-9.25-3.063-5.519-2.855-11.132-5.479-16.772-8.082A112.606 112.606 0 0 1 113 235a233.457 233.457 0 0 0-5.813-2.688l-2.957-1.324L102 230v-2l-2.75-.313c-3.428-.725-4.521-1.64-7.25-3.687a93.511 93.511 0 0 0-5.25-2.188l-2.703-1.042L82 220v-2l-1.723-.297-2.34-.453-2.285-.422c-3.565-1.113-6.426-2.943-9.652-4.828a773.207 773.207 0 0 1-.55-17.188c-.05-1.948-.118-3.895-.204-5.842-.7-16.132-.7-16.132 2.734-20.473 2.636-1.608 5.079-2.575 8.02-3.497a152.215 152.215 0 0 0 4.203-2.125A496.26 496.26 0 0 1 84.25 161l2.176-1.012c5.95-2.749 11.963-5.337 18.011-7.86 2.449-.893 2.449-.893 3.563-2.128Z" fill="#A6B530"/><path d="M150 48c3.928.982 6.849 2.342 10.438 4.188C172.317 58.69 172.317 58.69 185 63v2c3.926 1.666 7.9 2.84 12 4l2 1v2l1.813.438c1.749.45 3.474.99 5.187 1.562v2l7 1v2l2.191.352c2.895.668 5.119 1.653 7.746 3.023l2.465 1.273L228 85l6 3v41l-11 5c-3.655 1.682-6.844 3.572-10.125 5.875C206.682 144.081 199.588 148 192 148v2c-4.99-1.51-9.49-3.594-14.125-5.938l-2.129-1.052c-3.519-1.766-6.613-3.612-9.746-6.01-1.91-.869-1.91-.869-3.875-1.5-9.586-3.422-9.586-3.422-11.125-6.5 5.854-3.707 11.452-6.757 18-9 5.622-2.27 10.952-4.99 16.328-7.793C188 111 188 111 191 111c-.347-2.726-.724-3.768-2.863-5.563-6.47-3.797-12.941-6.335-20.137-8.437v-2l-2.215-.344c-2.866-.675-4.832-1.651-7.347-3.156-2.993-1.784-4.964-2.632-8.438-3.5V48Z" fill="#B4A627"/><path d="M150 48v40l5 1a92.759 92.759 0 0 1 5.125 2.5c2.644 1.382 5.039 2.555 7.875 3.5v2l2.238.41c7.994 1.696 14.293 4.553 20.762 9.59l1 2c-1.61 3.22-4.969 4.02-8.125 5.438l-1.977.908c-4.27 1.953-8.576 3.816-12.898 5.654-4.386 1.873-8.636 3.72-12.688 6.25-3.712 1.961-5.187 2.166-9.312 1.75a80.46 80.46 0 0 1-7.375-3.5 9823.72 9823.72 0 0 0-4.234-2.2c-1.082-.568-1.082-.568-2.186-1.15-3.585-1.87-7.209-3.663-10.83-5.463l-3.852-1.925L115 113l-3.219-1.625a118.568 118.568 0 0 0-6.656-3.063L102 107v-2l-9-2v-2l-2.214-.36c-2.789-.64-4.85-1.539-7.36-2.89l-2.522-1.344L78.313 95l-2.627-1.406c-1.6-.857-3.198-1.716-4.794-2.578A150.945 150.945 0 0 0 67 89l1-3a108.731 108.731 0 0 1 8.125-3.438c4.43-1.699 8.707-3.373 12.805-5.785C92 75 92 75 94 75v-2l2.133-.848c6.72-2.728 13.197-5.76 19.66-9.047 6.408-3.235 12.907-6.286 19.388-9.373a290262062.327 290262062.327 0 0 0 5.476-2.606 104.296 104.296 0 0 0 4.464-2.273C147 48 147 48 150 48Zm-4 122c6.69.446 12.028 3.073 18 6v2l2.688.313c3.412.708 5.378 1.881 8.312 3.687 2.693.707 2.693.707 5 1v2l5 1v2l1.938.25c4.267 1.045 8.093 2.89 12.062 4.75v2l5 1v2l9 2v2l5 1v2l6 1v2l2.75.313c3.323.702 4.675 1.599 7.25 3.687a1213.4 1213.4 0 0 1-29.64 14.498c-6.776 3.206-13.493 6.477-20.087 10.045l-2.437 1.314a807 807 0 0 0-4.945 2.696c-4.31 2.31-7.928 4.037-12.891 4.447v2l-6 1v2c-2.906 1.257-4.796 2-8 2v-39l-6-2a258.156 258.156 0 0 1-6.938-3.438c-3.608-1.85-7.185-3.635-10.94-5.16C123 201 123 201 122 199c-1.985-.71-3.99-1.367-6-2-2.498-.85-4.626-1.79-7-3-.7-2.102-.7-2.102-1-4l1.738-.777c6.45-2.907 12.862-5.894 19.262-8.91l2.536-1.19 2.401-1.135 2.153-1.014c2.148-1.049 2.148-1.049 4.91-2.974h4l1-4Z" fill="#7A2677"/><path d="m66 88 9 4.25 2.785 1.313A662.75 662.75 0 0 1 93 101v2l9 2v2l3.047.777c3.971 1.139 7.552 2.876 11.203 4.785 7.017 3.6 14.111 7 21.278 10.292l2.292 1.068 2.009.925L144 126l3.225 1.572c2.968 2.596 3.185 2.816 3.456 6.462 0 1.63-.034 3.26-.095 4.888l-.026 2.606a525.996 525.996 0 0 1-.185 8.222c-.03 1.86-.057 3.721-.082 5.582-.066 4.557-.17 9.112-.293 13.668l-2.29-.917a3899.67 3899.67 0 0 0-6.058-2.415c-7.913-3.154-15.8-6.363-23.652-9.668v-2l-2.563-.188c-3.546-.838-5.436-2.187-8.289-4.367-3.587-2.413-7.538-4.013-11.476-5.773-4.009-1.802-7.935-3.758-11.86-5.734l-1.904-.959c-1.97-.992-3.939-1.986-5.908-2.979l-10-5V88Z" fill="#C20C78"/><path d="M104 193c5.315.45 8.494 1.035 13 4 1.985.711 3.982 1.39 6 2v2l2.688.313C129 202 129 202 134 205l16 8v39c-3.917-.783-5.92-1.296-9.25-3.063-5.519-2.855-11.132-5.479-16.772-8.082A112.606 112.606 0 0 1 113 235a233.457 233.457 0 0 0-5.813-2.688l-2.957-1.324L102 230v-2l-2.75-.313c-3.428-.725-4.521-1.64-7.25-3.687a93.511 93.511 0 0 0-5.25-2.188l-2.703-1.042L82 220v-2l-9-2-1-4-2-1h3v-2h3l1-3 7-1v-2l9-2v-2h2v-2l9-2v-2Zm46-145c3.928.982 6.849 2.342 10.438 4.188C172.317 58.69 172.317 58.69 185 63v2c3.926 1.666 7.9 2.84 12 4l2 1v2l1.813.438c1.749.45 3.474.99 5.187 1.562v2l7 1v2l2.172.355c2.945.672 5.362 1.644 8.078 2.957l2.64 1.239C228 85 228 85 228.798 87.168L229 89h-2v2a417.885 417.885 0 0 1-3.813 2l-2.144 1.125C219 95 219 95 216 95v2l-9 2v2l-5 1v2c-4.619 1.847-9.056 2.93-14 2-2.027-1.065-3.83-2.306-5.703-3.621C177.896 99.737 172.895 98.46 168 97v-2l-2.215-.344c-2.866-.675-4.832-1.651-7.347-3.156-2.993-1.784-4.964-2.632-8.438-3.5V48Z" fill="#DE7E0A"/><path d="M146 170c6.69.446 12.028 3.073 18 6v2l2.688.313c3.412.708 5.378 1.881 8.312 3.687 2.693.707 2.693.707 5 1v2l5 1v2l2.375.313C190 189 190 189 192 192c-8.832 5.555-18.022 10.48-27.64 14.535-3.593 1.567-6.758 3.471-10.051 5.574-4.102 1.583-7.336.313-11.239-1.379l-2.945-1.542-3.145-1.625L134 206c-5.378-2.78-5.378-2.78-11-5l-1-2c-1.985-.71-3.99-1.367-6-2-2.498-.85-4.626-1.79-7-3-.7-2.102-.7-2.102-1-4l1.738-.777c6.45-2.907 12.862-5.894 19.262-8.91l2.536-1.19 2.401-1.135 2.153-1.014c2.148-1.049 2.148-1.049 4.91-2.974h4l1-4Zm11.547-79.77c1.75.863 3.49 1.744 5.219 2.649 2.31 1.226 2.31 1.226 5.234 2.121v2l2.238.41c7.994 1.696 14.293 4.553 20.762 9.59l1 2c-1.61 3.22-4.969 4.02-8.125 5.438l-1.977.908c-4.27 1.953-8.576 3.816-12.898 5.654-4.386 1.873-8.636 3.72-12.688 6.25-3.712 1.961-5.187 2.166-9.312 1.75a80.46 80.46 0 0 1-7.375-3.5 9823.72 9823.72 0 0 0-4.234-2.2l-2.186-1.15c-3.585-1.87-7.209-3.663-10.83-5.463l-3.852-1.925L115 113l-6-3v-3c1.41-.844 2.829-1.675 4.25-2.5l2.39-1.406C118 102 118 102 122 102v-2l3.148-1.574 2.034-1.018c1.468-.733 2.937-1.463 4.408-2.19 3.193-1.584 6.347-3.182 9.453-4.933 6.638-3.715 9.563-3.408 16.504-.055Z" fill="#079588"/><path d="M136 163c9.595 2.706 9.595 2.706 13 7l-6-1v-2l-7-1v-3Z" fill="#BB6F40"/><path d="m115 104 2 1-5 5 3 1-2 1c-2.625-1.438-2.625-1.438-5-3 2.363-2.526 3.665-3.888 7-5Z" fill="#348F92"/><path d="m229 86 3 1v2c-3.58 2.748-6.492 4.47-11 5 1.313-1.5 1.313-1.5 3-3h3v-2h2v-3Z" fill="#C68D20"/><path d="M76 209h-3l-1 5-4-2 1-3c3.133-1.044 3.99-.934 7 0Z" fill="#BF9125"/><path d="M109 189c2.063.438 2.063.438 4 1l-2 3 3 1-2 1-3-1c-.75-2-.75-2-1-4l1-1Z" fill="#459E77"/><path d="M175 99c1.482.45 2.96.91 4.438 1.375l2.496.773C184 102 184 102 185 104l-7-1v-2l-3-1v-1Z" fill="#7F9557"/></svg>
