<svg width="166" height="185" viewBox="0 0 166 185" fill="none" xmlns="http://www.w3.org/2000/svg"><path fill-rule="evenodd" clip-rule="evenodd" d="M165.276 56.936c0-7.797-4.16-15.002-10.912-18.9L93.55 2.923a21.824 21.824 0 0 0-21.824 0L10.912 38.035A21.825 21.825 0 0 0 0 56.935v70.224c0 7.797 4.16 15.002 10.912 18.9l60.814 35.112a21.826 21.826 0 0 0 21.824 0l60.814-35.112a21.824 21.824 0 0 0 10.912-18.9V56.936ZM64.094 48.42a11.525 11.525 0 0 0-9.982 5.763L35.57 86.3a11.526 11.526 0 0 0 0 11.525l18.542 32.117a11.525 11.525 0 0 0 9.982 5.763h37.084c4.118 0 7.922-2.197 9.981-5.763l18.542-32.117a11.525 11.525 0 0 0 0-11.525l-18.542-32.117a11.525 11.525 0 0 0-9.981-5.763H64.094Z" fill="#FA2F79"/></svg>
