<svg version="1.0" xmlns="http://www.w3.org/2000/svg" width="8889.333" height="8889.333" viewBox="0 0 6667 6667"><path d="M3290.6 435.1c-102.9 6.6-203.8 34.8-292.7 81.9-16.6 8.9-119.6 68.1-316.4 182-138.3 80-347.1 200.6-807.5 466.3-141.1 81.4-324.9 187.5-408.5 235.7-83.6 48.2-194.3 112-246 141.7-51.7 29.7-103.9 60-116 67.3-109.2 65.9-169.3 118.2-231.5 201.2-82.1 109.4-128.3 227.8-140 358.3-2.4 27.1-3 70.6-3.9 294.5-.6 129-1.5 316.6-2.1 417-1.3 231.4.3 1569 2 1587.5 1.7 19.5 4.9 43.5 9 68 23.4 138.8 76.9 255 163.9 356 11.9 13.8 50 52 64.9 64.8 36.8 32.1 74.2 59 119.6 86.2 72.1 43.1 299 174.6 632.6 366.7 99.8 57.5 227.9 131.3 284.5 164 56.7 32.7 156.3 90.2 221.5 127.8 370.7 213.7 512.6 295.8 671 388.3 67.2 39.2 82.4 47.6 111.5 61.8 141.4 68.6 282 92.1 428 71.3 83.1-11.8 164.7-38.7 242.7-80 9-4.8 70.5-40 136.8-78.4 161.4-93.4 334.1-193.2 508-293.5 78.9-45.5 213-122.9 298-172 342.3-197.7 570.1-329 800.3-461.4 140.9-81 158.6-91.6 198.5-118.4 74.9-50.2 123.1-95.4 175-164.2 85.7-113.7 133.1-239.2 142.2-377.2.6-8.9 1.5-45.9 2-82.3 1.6-114.5 3.1-975 2.8-1587.5-.3-545.4-.5-590.4-2.1-608.5-13.8-157.3-66-294.6-153.8-404-47.8-59.6-109-114.1-177.1-157.9-32.3-20.7-167.7-99.7-394.3-230.1-140.9-81.1-147.2-84.7-404.5-233.5-402.2-232.6-407.9-235.9-587.5-339-233.3-133.9-319.8-184.1-436-252.8-55.8-33.1-57.6-34.1-78-45.2-113.4-61.8-223.2-95.4-334.5-102.5-18.8-1.1-63.2-1.1-82.4.1zm83.4 1658.8c87.6 6.3 156.7 16.9 234.5 36.1 200.6 49.3 385.4 143.8 538 275.1 86 74 162.3 161.3 222.3 254.5 62.2 96.6 107.6 196.7 140.2 309.4 3.8 12.9 8 26.3 9.4 29.7 2.4 5.7 3.8 12.5 8 40.4.9 5.9 2.6 13.4 3.7 16.6 3.2 9.5 9.8 14.7 16.1 12.7 8-2.5 171.6-107.8 229.8-147.9 217.7-149.9 342.9-266.9 373-348.4 18.4-50.1 0-87.7-54.5-111.1-95.9-41.3-296.8-41.4-613.5-.4-18.9 2.4-34.8 4.3-35.3 4.1-1-.3 33.7-11.5 89.3-28.7 383.6-119.2 671.9-188.1 874-209 68.2-7 135.3-7.9 180-2.4 52.3 6.4 90.5 22 109.8 44.6 7 8.3 13.6 22 15.8 32.8 2.5 12.4 1.5 29.7-2.5 45.3-17.8 68.5-92.6 162-220.1 275.3-232.8 206.8-625.8 462.4-1033.5 672.1-432.7 222.7-744.9 375.4-1051.5 514.5-662.8 300.7-1246.8 507.5-1803.5 638.8-98.7 23.3-238.3 52.9-268 57-66.5 9-127.2 13.4-184.5 13.4-59.1-.1-92.8-3.8-128.6-13.9-27.3-7.8-45.1-17.2-60-32-8.9-8.8-10.7-11.1-14.7-19.5-5.8-12.1-7.7-20.9-7.7-35 0-30.4 13.4-64.7 42.5-108.5 58.6-88.5 184.6-207.6 351-332 76-56.8 156.9-111.9 218-148.5 7.7-4.6 18.5-11.1 24-14.4 5.5-3.3 38.3-24.1 72.8-46.4 137.8-88.5 196.8-124.6 234.9-143.7 22.5-11.3 30.8-13.6 30.8-8.7 0 3.8-6 9.5-31.5 30.3-57.8 47.2-108.5 91.2-162 140.9-24.7 22.9-79.4 77.3-98.9 98.3-102.3 110.6-151.9 196.2-146.6 253.2 1.1 11.1 2.6 16.7 7 26 24.4 51.1 109.7 68.8 255.5 52.9 85.9-9.3 204.6-33.7 338.5-69.4 14.6-3.8 45.4-11.8 68.5-17.6 23.1-5.8 52.8-13.4 66-16.9 70.4-18.7 88.8-29.4 84.7-49.3-1.9-9.4-8.3-20.7-30.1-53.5-39.4-59-56.2-88.2-80.6-139.7-65.9-139.1-102.6-275.2-114.9-427-5.2-62.9-5.2-138.2-.1-202 21-261.9 120-508.5 282.4-703.4 33-39.6 73.5-81.8 112.4-117.1 11-9.9 24-21.8 29-26.4 73.5-67.5 167.4-131.9 259.2-177.9 147.1-73.5 306.4-114.7 480.5-124.2 20.9-1.1 121.6-.5 141 .9zm1180.7 1345.6c4.1 2.9 5.8 9.8 5.7 23.5-.1 14.9-2.2 27.9-10.3 65.4-6.9 31.7-7.8 36.1-9 48.1-1.7 16.8-13.8 68.7-24.7 106-48.5 166.7-134.5 324.1-251.5 460.6-30.2 35.2-74 80.7-106.9 110.9-141.3 129.9-307.8 226.1-483.5 279.3-98 29.7-193.3 45.2-297.5 48.2-30.4.9-143.8-1.1-167.5-3-95.4-7.4-184.4-24.5-274.5-52.7-108.9-34.1-214.5-85.2-304.5-147.1-11.9-8.2-50.9-37.1-58-43l-3-2.5 2.5-1c18-7 355.7-142.2 398.6-159.6 309.9-125.4 530.5-220 731.9-313.9 270.3-126 511.4-246.2 786.5-392 22.8-12.1 44.6-23.5 48.5-25.3 7.6-3.7 13.7-4.4 17.2-1.9z"/></svg>
